NotoSerifMalayalam-Regular.ufo
<glyph name="exclam.mlym" format="2">
  <advance width="266"/>
  <unicode hex="0021"/>
  <outline>
    <contour>
      <point x="110" y="201" type="line"/>
      <point x="156" y="201" type="line"/>
      <point x="191" y="714" type="line"/>
      <point x="75" y="714" type="line"/>
    </contour>
    <contour>
      <point x="133" y="-7" type="curve" smooth="yes"/>
      <point x="167" y="-7"/>
      <point x="196" y="10"/>
      <point x="196" y="61" type="curve" smooth="yes"/>
      <point x="196" y="113"/>
      <point x="167" y="129"/>
      <point x="133" y="129" type="curve" smooth="yes"/>
      <point x="98" y="129"/>
      <point x="70" y="113"/>
      <point x="70" y="61" type="curve" smooth="yes"/>
      <point x="70" y="10"/>
      <point x="98" y="-7"/>
    </contour>
  </outline>
</glyph>
<glyph name="quotedbl.mlym" format="2">
  <advance width="418"/>
  <unicode hex="0022"/>
  <outline>
    <contour>
      <point x="280" y="565" type="line"/>
      <point x="326" y="565" type="line"/>
      <point x="356" y="800" type="line"/>
      <point x="250" y="800" type="line"/>
    </contour>
    <contour>
      <point x="92" y="565" type="line"/>
      <point x="138" y="565" type="line"/>
      <point x="168" y="800" type="line"/>
      <point x="62" y="800" type="line"/>
    </contour>
  </outline>
</glyph>
<glyph name="quotesingle.mlym" format="2">
  <advance width="230"/>
  <unicode hex="0027"/>
  <outline>
    <contour>
      <point x="92" y="565" type="line"/>
      <point x="138" y="565" type="line"/>
      <point x="168" y="800" type="line"/>
      <point x="62" y="800" type="line"/>
    </contour>
  </outline>
</glyph>
<glyph name="parenleft.mlym" format="2">
  <advance width="357"/>
  <unicode hex="0028"/>
  <outline>
    <contour>
      <point x="325" y="-244" type="curve"/>
      <point x="325" y="-196" type="line"/>
      <point x="175" y="-95"/>
      <point x="158" y="91"/>
      <point x="158" y="281" type="curve" smooth="yes"/>
      <point x="158" y="470"/>
      <point x="175" y="656"/>
      <point x="325" y="757" type="curve"/>
      <point x="325" y="805" type="line"/>
      <point x="128" y="718"/>
      <point x="57" y="563"/>
      <point x="57" y="281" type="curve" smooth="yes"/>
      <point x="57" y="-2"/>
      <point x="126" y="-157"/>
    </contour>
  </outline>
</glyph>
<glyph name="parenright.mlym" format="2">
  <advance width="357"/>
  <unicode hex="0029"/>
  <outline>
    <contour>
      <point x="32" y="805" type="curve"/>
      <point x="32" y="757" type="line"/>
      <point x="182" y="656"/>
      <point x="199" y="470"/>
      <point x="199" y="280" type="curve" smooth="yes"/>
      <point x="199" y="91"/>
      <point x="182" y="-95"/>
      <point x="32" y="-196" type="curve"/>
      <point x="32" y="-244" type="line"/>
      <point x="229" y="-157"/>
      <point x="300" y="-2"/>
      <point x="300" y="280" type="curve" smooth="yes"/>
      <point x="300" y="563"/>
      <point x="231" y="718"/>
    </contour>
  </outline>
</glyph>
<glyph name="asterisk.mlym" format="2">
  <advance width="494"/>
  <unicode hex="002A"/>
  <outline>
    <contour>
      <point x="204" y="418" type="line"/>
      <point x="291" y="418" type="line"/>
      <point x="263" y="576" type="line"/>
      <point x="418" y="483" type="line"/>
      <point x="453" y="560" type="line"/>
      <point x="284" y="609" type="line"/>
      <point x="453" y="658" type="line"/>
      <point x="418" y="736" type="line"/>
      <point x="263" y="642" type="line"/>
      <point x="291" y="800" type="line"/>
      <point x="204" y="800" type="line"/>
      <point x="230" y="641" type="line"/>
      <point x="76" y="738" type="line"/>
      <point x="41" y="659" type="line"/>
      <point x="209" y="609" type="line"/>
      <point x="41" y="559" type="line"/>
      <point x="76" y="481" type="line"/>
      <point x="229" y="576" type="line"/>
    </contour>
  </outline>
</glyph>
<glyph name="hyphen.mlym" format="2">
  <advance width="320"/>
  <unicode hex="002D"/>
  <outline>
    <contour>
      <point x="40" y="232" type="line"/>
      <point x="280" y="232" type="line"/>
      <point x="280" y="307" type="line"/>
      <point x="40" y="307" type="line"/>
    </contour>
  </outline>
</glyph>
<glyph name="slash.mlym" format="2">
  <advance width="358"/>
  <unicode hex="002F"/>
  <outline>
    <contour>
      <point x="25" y="-244" type="line"/>
      <point x="87" y="-244" type="line"/>
      <point x="333" y="800" type="line"/>
      <point x="271" y="800" type="line"/>
    </contour>
  </outline>
</glyph>
<glyph name="two.mlym" format="2">
  <advance width="559"/>
  <unicode hex="0032"/>
  <outline>
    <contour>
      <point x="50" y="0" type="line"/>
      <point x="480" y="0" type="line"/>
      <point x="485" y="173" type="line"/>
      <point x="443" y="173" type="line"/>
      <point x="439" y="155" type="line" smooth="yes"/>
      <point x="430" y="116"/>
      <point x="415" y="80"/>
      <point x="355" y="80" type="curve" smooth="yes"/>
      <point x="124" y="80" type="line"/>
      <point x="293" y="267" type="line" smooth="yes"/>
      <point x="398" y="383"/>
      <point x="460" y="464"/>
      <point x="460" y="557" type="curve" smooth="yes"/>
      <point x="460" y="658"/>
      <point x="383" y="724"/>
      <point x="257" y="724" type="curve" smooth="yes"/>
      <point x="128" y="724"/>
      <point x="61" y="667"/>
      <point x="61" y="590" type="curve" smooth="yes"/>
      <point x="61" y="539"/>
      <point x="99" y="525"/>
      <point x="147" y="525" type="curve"/>
      <point x="147" y="604"/>
      <point x="166" y="674"/>
      <point x="257" y="674" type="curve" smooth="yes"/>
      <point x="327" y="674"/>
      <point x="359" y="623"/>
      <point x="359" y="547" type="curve" smooth="yes"/>
      <point x="359" y="455"/>
      <point x="323" y="389"/>
      <point x="217" y="266" type="curve" smooth="yes"/>
      <point x="50" y="73" type="line"/>
    </contour>
  </outline>
</glyph>
<glyph name="three.mlym" format="2">
  <advance width="559"/>
  <unicode hex="0033"/>
  <outline>
    <contour>
      <point x="234" y="-10" type="curve"/>
      <point x="349" y="-10"/>
      <point x="488" y="43"/>
      <point x="488" y="204" type="curve" smooth="yes"/>
      <point x="488" y="336"/>
      <point x="377" y="373"/>
      <point x="303" y="381" type="curve"/>
      <point x="395" y="403"/>
      <point x="463" y="475"/>
      <point x="463" y="565" type="curve" smooth="yes"/>
      <point x="463" y="666"/>
      <point x="379" y="724"/>
      <point x="253" y="724" type="curve" smooth="yes"/>
      <point x="124" y="724"/>
      <point x="57" y="667"/>
      <point x="57" y="590" type="curve" smooth="yes"/>
      <point x="57" y="539"/>
      <point x="95" y="525"/>
      <point x="143" y="525" type="curve"/>
      <point x="143" y="604"/>
      <point x="162" y="674"/>
      <point x="253" y="674" type="curve" smooth="yes"/>
      <point x="330" y="674"/>
      <point x="360" y="628"/>
      <point x="360" y="550" type="curve" smooth="yes"/>
      <point x="360" y="455"/>
      <point x="291" y="395"/>
      <point x="203" y="395" type="curve"/>
      <point x="171" y="395" type="line"/>
      <point x="171" y="344" type="line"/>
      <point x="203" y="344" type="line" smooth="yes"/>
      <point x="315" y="344"/>
      <point x="384" y="289"/>
      <point x="384" y="205" type="curve" smooth="yes"/>
      <point x="384" y="85"/>
      <point x="314" y="44"/>
      <point x="235" y="44" type="curve" smooth="yes"/>
      <point x="154" y="44"/>
      <point x="108" y="95"/>
      <point x="108" y="165" type="curve"/>
      <point x="70" y="165"/>
      <point x="45" y="141"/>
      <point x="45" y="101" type="curve" smooth="yes"/>
      <point x="45" y="42"/>
      <point x="102" y="-10"/>
    </contour>
  </outline>
</glyph>
<glyph name="seven.mlym" format="2">
  <advance width="559"/>
  <unicode hex="0037"/>
  <outline>
    <contour>
      <point x="175" y="0" type="line"/>
      <point x="250" y="0" type="line"/>
      <point x="496" y="684" type="line"/>
      <point x="496" y="713" type="line"/>
      <point x="49" y="713" type="line"/>
      <point x="44" y="532" type="line"/>
      <point x="86" y="532" type="line"/>
      <point x="90" y="582" type="line"/>
      <point x="93" y="615"/>
      <point x="112" y="633"/>
      <point x="148" y="633" type="curve"/>
      <point x="411" y="633" type="line"/>
    </contour>
  </outline>
</glyph>
<glyph name="colon.mlym" format="2">
  <advance width="270"/>
  <unicode hex="003A"/>
  <outline>
    <contour>
      <point x="135" y="-7" type="curve" smooth="yes"/>
      <point x="169" y="-7"/>
      <point x="198" y="10"/>
      <point x="198" y="61" type="curve" smooth="yes"/>
      <point x="198" y="113"/>
      <point x="169" y="129"/>
      <point x="135" y="129" type="curve" smooth="yes"/>
      <point x="100" y="129"/>
      <point x="72" y="113"/>
      <point x="72" y="61" type="curve" smooth="yes"/>
      <point x="72" y="10"/>
      <point x="100" y="-7"/>
    </contour>
    <contour>
      <point x="135" y="413" type="curve" smooth="yes"/>
      <point x="169" y="413"/>
      <point x="198" y="430"/>
      <point x="198" y="481" type="curve" smooth="yes"/>
      <point x="198" y="533"/>
      <point x="169" y="549"/>
      <point x="135" y="549" type="curve" smooth="yes"/>
      <point x="100" y="549"/>
      <point x="72" y="533"/>
      <point x="72" y="481" type="curve" smooth="yes"/>
      <point x="72" y="430"/>
      <point x="100" y="413"/>
    </contour>
  </outline>
</glyph>
<glyph name="semicolon.mlym" format="2">
  <advance width="275"/>
  <unicode hex="003B"/>
  <outline>
    <contour>
      <point x="45" y="-154" type="line"/>
      <point x="164" y="-119"/>
      <point x="209" y="-43"/>
      <point x="209" y="34" type="curve" smooth="yes"/>
      <point x="209" y="98"/>
      <point x="173" y="129"/>
      <point x="132" y="129" type="curve" smooth="yes"/>
      <point x="95" y="129"/>
      <point x="67" y="108"/>
      <point x="67" y="70" type="curve" smooth="yes"/>
      <point x="67" y="9"/>
      <point x="140" y="18"/>
      <point x="140" y="-22" type="curve" smooth="yes"/>
      <point x="140" y="-61"/>
      <point x="110" y="-91"/>
      <point x="45" y="-112" type="curve"/>
    </contour>
    <contour>
      <point x="137" y="413" type="curve" smooth="yes"/>
      <point x="171" y="413"/>
      <point x="200" y="430"/>
      <point x="200" y="481" type="curve" smooth="yes"/>
      <point x="200" y="533"/>
      <point x="171" y="549"/>
      <point x="137" y="549" type="curve" smooth="yes"/>
      <point x="102" y="549"/>
      <point x="74" y="533"/>
      <point x="74" y="481" type="curve" smooth="yes"/>
      <point x="74" y="430"/>
      <point x="102" y="413"/>
    </contour>
  </outline>
</glyph>
<glyph name="equal.mlym" format="2">
  <advance width="559"/>
  <unicode hex="003D"/>
  <outline>
    <contour>
      <point x="65" y="426" type="line"/>
      <point x="494" y="426" type="line"/>
      <point x="494" y="485" type="line"/>
      <point x="65" y="485" type="line"/>
    </contour>
    <contour>
      <point x="65" y="229" type="line"/>
      <point x="494" y="229" type="line"/>
      <point x="494" y="288" type="line"/>
      <point x="65" y="288" type="line"/>
    </contour>
  </outline>
</glyph>
<glyph name="question.mlym" format="2">
  <advance width="470"/>
  <unicode hex="003F"/>
  <outline>
    <contour>
      <point x="181" y="201" type="line"/>
      <point x="242" y="201" type="line"/>
      <point x="242" y="314" type="line"/>
      <point x="366" y="365"/>
      <point x="436" y="433"/>
      <point x="436" y="543" type="curve" smooth="yes"/>
      <point x="436" y="657"/>
      <point x="343" y="724"/>
      <point x="217" y="724" type="curve" smooth="yes"/>
      <point x="88" y="724"/>
      <point x="30" y="676"/>
      <point x="30" y="612" type="curve" smooth="yes"/>
      <point x="30" y="569"/>
      <point x="65" y="547"/>
      <point x="113" y="547" type="curve"/>
      <point x="113" y="616"/>
      <point x="142" y="675"/>
      <point x="225" y="675" type="curve" smooth="yes"/>
      <point x="302" y="675"/>
      <point x="334" y="629"/>
      <point x="334" y="560" type="curve" smooth="yes"/>
      <point x="334" y="480"/>
      <point x="297" y="400"/>
      <point x="181" y="353" type="curve"/>
    </contour>
    <contour>
      <point x="210" y="-7" type="curve" smooth="yes"/>
      <point x="244" y="-7"/>
      <point x="273" y="10"/>
      <point x="273" y="61" type="curve" smooth="yes"/>
      <point x="273" y="113"/>
      <point x="244" y="129"/>
      <point x="210" y="129" type="curve" smooth="yes"/>
      <point x="175" y="129"/>
      <point x="147" y="113"/>
      <point x="147" y="61" type="curve" smooth="yes"/>
      <point x="147" y="10"/>
      <point x="175" y="-7"/>
    </contour>
  </outline>
</glyph>
<glyph name="bracketleft.mlym" format="2">
  <advance width="357"/>
  <unicode hex="005B"/>
  <outline>
    <contour>
      <point x="100" y="-244" type="line"/>
      <point x="320" y="-244" type="line"/>
      <point x="320" y="-202" type="line"/>
      <point x="277" y="-202" type="line" smooth="yes"/>
      <point x="232" y="-202"/>
      <point x="195" y="-193"/>
      <point x="195" y="-130" type="curve" smooth="yes"/>
      <point x="195" y="686" type="line" smooth="yes"/>
      <point x="195" y="749"/>
      <point x="232" y="758"/>
      <point x="277" y="758" type="curve" smooth="yes"/>
      <point x="320" y="758" type="line"/>
      <point x="320" y="800" type="line"/>
      <point x="100" y="800" type="line"/>
    </contour>
  </outline>
</glyph>
<glyph name="backslash.mlym" format="2">
  <advance width="358"/>
  <unicode hex="005C"/>
  <outline>
    <contour>
      <point x="271" y="-244" type="line"/>
      <point x="333" y="-244" type="line"/>
      <point x="87" y="800" type="line"/>
      <point x="25" y="800" type="line"/>
    </contour>
  </outline>
</glyph>
<glyph name="bracketright.mlym" format="2">
  <advance width="357"/>
  <unicode hex="005D"/>
  <outline>
    <contour>
      <point x="37" y="-244" type="line"/>
      <point x="257" y="-244" type="line"/>
      <point x="257" y="800" type="line"/>
      <point x="37" y="800" type="line"/>
      <point x="37" y="758" type="line"/>
      <point x="80" y="758" type="line" smooth="yes"/>
      <point x="125" y="758"/>
      <point x="162" y="749"/>
      <point x="162" y="686" type="curve" smooth="yes"/>
      <point x="162" y="-130" type="line" smooth="yes"/>
      <point x="162" y="-193"/>
      <point x="125" y="-202"/>
      <point x="80" y="-202" type="curve" smooth="yes"/>
      <point x="37" y="-202" type="line"/>
    </contour>
  </outline>
</glyph>
<glyph name="braceleft.mlym" format="2">
  <advance width="425"/>
  <unicode hex="007B"/>
  <outline>
    <contour>
      <point x="305" y="-244" type="curve" smooth="yes"/>
      <point x="386" y="-244" type="line"/>
      <point x="386" y="-201" type="line"/>
      <point x="341" y="-201" type="line" smooth="yes"/>
      <point x="282" y="-201"/>
      <point x="259" y="-164"/>
      <point x="259" y="-96" type="curve" smooth="yes"/>
      <point x="259" y="153" type="line" smooth="yes"/>
      <point x="259" y="219"/>
      <point x="224" y="264"/>
      <point x="148" y="277" type="curve"/>
      <point x="148" y="278" type="line"/>
      <point x="222" y="290"/>
      <point x="259" y="336"/>
      <point x="259" y="401" type="curve" smooth="yes"/>
      <point x="259" y="652" type="line" smooth="yes"/>
      <point x="259" y="721"/>
      <point x="282" y="757"/>
      <point x="341" y="757" type="curve" smooth="yes"/>
      <point x="386" y="757" type="line"/>
      <point x="386" y="800" type="line"/>
      <point x="305" y="800" type="line" smooth="yes"/>
      <point x="214" y="800"/>
      <point x="164" y="748"/>
      <point x="164" y="657" type="curve" smooth="yes"/>
      <point x="164" y="403" type="line" smooth="yes"/>
      <point x="164" y="322"/>
      <point x="112" y="300"/>
      <point x="46" y="298" type="curve"/>
      <point x="46" y="256" type="line"/>
      <point x="112" y="253"/>
      <point x="164" y="232"/>
      <point x="164" y="150" type="curve" smooth="yes"/>
      <point x="164" y="-100" type="line" smooth="yes"/>
      <point x="164" y="-188"/>
      <point x="214" y="-244"/>
    </contour>
  </outline>
</glyph>
<glyph name="bar.mlym" format="2">
  <advance width="559"/>
  <unicode hex="007C"/>
  <outline>
    <contour>
      <point x="249" y="-244" type="line"/>
      <point x="309" y="-244" type="line"/>
      <point x="309" y="799" type="line"/>
      <point x="249" y="799" type="line"/>
    </contour>
  </outline>
</glyph>
<glyph name="braceright.mlym" format="2">
  <advance width="425"/>
  <unicode hex="007D"/>
  <outline>
    <contour>
      <point x="39" y="-244" type="line"/>
      <point x="120" y="-244" type="line" smooth="yes"/>
      <point x="211" y="-244"/>
      <point x="261" y="-192"/>
      <point x="261" y="-101" type="curve" smooth="yes"/>
      <point x="261" y="153" type="line" smooth="yes"/>
      <point x="261" y="234"/>
      <point x="313" y="256"/>
      <point x="379" y="258" type="curve"/>
      <point x="379" y="300" type="line"/>
      <point x="313" y="303"/>
      <point x="261" y="324"/>
      <point x="261" y="406" type="curve" smooth="yes"/>
      <point x="261" y="656" type="line" smooth="yes"/>
      <point x="261" y="744"/>
      <point x="211" y="800"/>
      <point x="120" y="800" type="curve" smooth="yes"/>
      <point x="39" y="800" type="line"/>
      <point x="39" y="757" type="line"/>
      <point x="84" y="757" type="line" smooth="yes"/>
      <point x="143" y="757"/>
      <point x="166" y="720"/>
      <point x="166" y="652" type="curve" smooth="yes"/>
      <point x="166" y="403" type="line" smooth="yes"/>
      <point x="166" y="337"/>
      <point x="201" y="292"/>
      <point x="277" y="279" type="curve"/>
      <point x="277" y="278" type="line"/>
      <point x="203" y="266"/>
      <point x="166" y="220"/>
      <point x="166" y="155" type="curve" smooth="yes"/>
      <point x="166" y="-96" type="line" smooth="yes"/>
      <point x="166" y="-165"/>
      <point x="143" y="-201"/>
      <point x="84" y="-201" type="curve" smooth="yes"/>
      <point x="39" y="-201" type="line"/>
    </contour>
  </outline>
</glyph>
<glyph name="uni0307" format="2">
  <unicode hex="0307"/>
  <outline>
    <contour>
      <point x="-280" y="646" type="curve" smooth="yes"/>
      <point x="-249" y="646"/>
      <point x="-223" y="662"/>
      <point x="-223" y="708" type="curve" smooth="yes"/>
      <point x="-223" y="755"/>
      <point x="-249" y="770"/>
      <point x="-280" y="770" type="curve" smooth="yes"/>
      <point x="-312" y="770"/>
      <point x="-337" y="755"/>
      <point x="-337" y="708" type="curve" smooth="yes"/>
      <point x="-337" y="662"/>
      <point x="-312" y="646"/>
    </contour>
  </outline>
</glyph>
<glyph name="uni0323" format="2">
  <unicode hex="0323"/>
  <outline>
    <contour>
      <point x="-280" y="-212" type="curve" smooth="yes"/>
      <point x="-249" y="-212"/>
      <point x="-223" y="-196"/>
      <point x="-223" y="-150" type="curve" smooth="yes"/>
      <point x="-223" y="-103"/>
      <point x="-249" y="-88"/>
      <point x="-280" y="-88" type="curve" smooth="yes"/>
      <point x="-312" y="-88"/>
      <point x="-337" y="-103"/>
      <point x="-337" y="-150" type="curve" smooth="yes"/>
      <point x="-337" y="-196"/>
      <point x="-312" y="-212"/>
    </contour>
  </outline>
</glyph>
<glyph name="uni0951" format="2">
  <unicode hex="0951"/>
  <outline>
    <contour>
      <point x="-310" y="653" type="line"/>
      <point x="-250" y="653" type="line"/>
      <point x="-250" y="864" type="line"/>
      <point x="-310" y="864" type="line"/>
    </contour>
  </outline>
</glyph>
<glyph name="uni0952" format="2">
  <unicode hex="0952"/>
  <outline>
    <contour>
      <point x="-67" y="-174" type="line"/>
      <point x="-67" y="-119" type="line"/>
      <point x="-493" y="-119" type="line"/>
      <point x="-493" y="-174" type="line"/>
    </contour>
  </outline>
</glyph>
<glyph name="danda.mlym" format="2">
  <advance width="327"/>
  <unicode hex="0964"/>
  <outline>
    <contour>
      <point x="176" y="-59" type="line"/>
      <point x="245" y="-59" type="line"/>
      <point x="245" y="617" type="line"/>
      <point x="176" y="617" type="line"/>
    </contour>
  </outline>
</glyph>
<glyph name="dbldanda.mlym" format="2">
  <advance width="519"/>
  <unicode hex="0965"/>
  <outline>
    <contour>
      <point x="176" y="-59" type="line"/>
      <point x="245" y="-59" type="line"/>
      <point x="245" y="617" type="line"/>
      <point x="176" y="617" type="line"/>
    </contour>
    <contour>
      <point x="368" y="-59" type="line"/>
      <point x="437" y="-59" type="line"/>
      <point x="437" y="617" type="line"/>
      <point x="368" y="617" type="line"/>
    </contour>
  </outline>
</glyph>
<glyph name="candrabindumlym" format="2">
  <unicode hex="0D01"/>
  <outline>
    <contour>
      <point x="-269" y="654" type="curve" smooth="yes"/>
      <point x="-160" y="654"/>
      <point x="-100" y="709"/>
      <point x="-100" y="782" type="curve" smooth="yes"/>
      <point x="-100" y="815"/>
      <point x="-116" y="848"/>
      <point x="-151" y="848" type="curve" smooth="yes"/>
      <point x="-157" y="848"/>
      <point x="-164" y="847"/>
      <point x="-170" y="845" type="curve"/>
      <point x="-163" y="831"/>
      <point x="-160" y="816"/>
      <point x="-160" y="800" type="curve" smooth="yes"/>
      <point x="-160" y="740"/>
      <point x="-202" y="712"/>
      <point x="-270" y="712" type="curve" smooth="yes"/>
      <point x="-346" y="712"/>
      <point x="-382" y="745"/>
      <point x="-382" y="804" type="curve" smooth="yes"/>
      <point x="-382" y="817"/>
      <point x="-380" y="831"/>
      <point x="-375" y="845" type="curve"/>
      <point x="-383" y="848"/>
      <point x="-390" y="849"/>
      <point x="-396" y="849" type="curve" smooth="yes"/>
      <point x="-428" y="849"/>
      <point x="-459" y="822"/>
      <point x="-459" y="776" type="curve" smooth="yes"/>
      <point x="-459" y="718"/>
      <point x="-420" y="654"/>
    </contour>
    <contour>
      <point x="-275" y="759" type="curve" smooth="yes"/>
      <point x="-246" y="759"/>
      <point x="-224" y="779"/>
      <point x="-224" y="810" type="curve" smooth="yes"/>
      <point x="-224" y="838"/>
      <point x="-246" y="860"/>
      <point x="-275" y="860" type="curve" smooth="yes"/>
      <point x="-304" y="860"/>
      <point x="-325" y="838"/>
      <point x="-325" y="810" type="curve" smooth="yes"/>
      <point x="-325" y="779"/>
      <point x="-304" y="759"/>
    </contour>
  </outline>
</glyph>
<glyph name="anusvaramlym" format="2">
  <advance width="464"/>
  <unicode hex="0D02"/>
  <outline>
    <contour>
      <point x="230" y="9" type="curve" smooth="yes"/>
      <point x="344" y="9"/>
      <point x="429" y="86"/>
      <point x="429" y="208" type="curve" smooth="yes"/>
      <point x="429" y="333"/>
      <point x="340" y="406"/>
      <point x="230" y="406" type="curve" smooth="yes"/>
      <point x="109" y="406"/>
      <point x="35" y="314"/>
      <point x="35" y="208" type="curve" smooth="yes"/>
      <point x="35" y="102"/>
      <point x="107" y="9"/>
    </contour>
    <contour>
      <point x="217" y="68" type="curve" smooth="yes"/>
      <point x="130" y="68"/>
      <point x="89" y="136"/>
      <point x="89" y="207" type="curve" smooth="yes"/>
      <point x="89" y="279"/>
      <point x="131" y="347"/>
      <point x="217" y="347" type="curve" smooth="yes"/>
      <point x="287" y="347"/>
      <point x="338" y="307"/>
      <point x="338" y="206" type="curve" smooth="yes"/>
      <point x="338" y="108"/>
      <point x="287" y="68"/>
    </contour>
  </outline>
</glyph>
<glyph name="visargamlym" format="2">
  <advance width="274"/>
  <unicode hex="0D03"/>
  <outline>
    <contour>
      <point x="133" y="7" type="curve" smooth="yes"/>
      <point x="200" y="7"/>
      <point x="244" y="47"/>
      <point x="244" y="113" type="curve" smooth="yes"/>
      <point x="244" y="178"/>
      <point x="200" y="219"/>
      <point x="136" y="219" type="curve" smooth="yes"/>
      <point x="75" y="219"/>
      <point x="30" y="180"/>
      <point x="30" y="113" type="curve" smooth="yes"/>
      <point x="30" y="43"/>
      <point x="75" y="7"/>
    </contour>
    <contour>
      <point x="123" y="54" type="curve" smooth="yes"/>
      <point x="94" y="54"/>
      <point x="72" y="75"/>
      <point x="72" y="113" type="curve" smooth="yes"/>
      <point x="72" y="151"/>
      <point x="94" y="172"/>
      <point x="123" y="172" type="curve" smooth="yes"/>
      <point x="148" y="172"/>
      <point x="172" y="153"/>
      <point x="172" y="113" type="curve" smooth="yes"/>
      <point x="172" y="73"/>
      <point x="148" y="54"/>
    </contour>
    <contour>
      <point x="133" y="313" type="curve" smooth="yes"/>
      <point x="200" y="313"/>
      <point x="244" y="353"/>
      <point x="244" y="419" type="curve" smooth="yes"/>
      <point x="244" y="484"/>
      <point x="200" y="525"/>
      <point x="136" y="525" type="curve" smooth="yes"/>
      <point x="75" y="525"/>
      <point x="30" y="486"/>
      <point x="30" y="419" type="curve" smooth="yes"/>
      <point x="30" y="349"/>
      <point x="75" y="313"/>
    </contour>
    <contour>
      <point x="123" y="360" type="curve" smooth="yes"/>
      <point x="94" y="360"/>
      <point x="72" y="381"/>
      <point x="72" y="419" type="curve" smooth="yes"/>
      <point x="72" y="457"/>
      <point x="94" y="478"/>
      <point x="123" y="478" type="curve" smooth="yes"/>
      <point x="148" y="478"/>
      <point x="172" y="459"/>
      <point x="172" y="419" type="curve" smooth="yes"/>
      <point x="172" y="379"/>
      <point x="148" y="360"/>
    </contour>
  </outline>
</glyph>
<glyph name="amlym" format="2">
  <advance width="1397"/>
  <unicode hex="0D05"/>
  <outline>
    <contour>
      <point x="202" y="-6" type="curve" smooth="yes"/>
      <point x="216" y="-6"/>
      <point x="229" y="0"/>
      <point x="238" y="11" type="curve"/>
      <point x="159" y="61"/>
      <point x="101" y="136"/>
      <point x="101" y="254" type="curve" smooth="yes"/>
      <point x="101" y="397"/>
      <point x="193" y="500"/>
      <point x="338" y="500" type="curve" smooth="yes"/>
      <point x="457" y="500"/>
      <point x="557" y="460"/>
      <point x="557" y="366" type="curve" smooth="yes"/>
      <point x="557" y="314"/>
      <point x="516" y="281"/>
      <point x="440" y="281" type="curve"/>
      <point x="440" y="233" type="line"/>
      <point x="504" y="233"/>
      <point x="555" y="208"/>
      <point x="555" y="136" type="curve" smooth="yes"/>
      <point x="555" y="83"/>
      <point x="521" y="54"/>
      <point x="463" y="54" type="curve" smooth="yes"/>
      <point x="384" y="54"/>
      <point x="324" y="117"/>
      <point x="324" y="235" type="curve" smooth="yes"/>
      <point x="324" y="422"/>
      <point x="460" y="503"/>
      <point x="580" y="503" type="curve" smooth="yes"/>
      <point x="712" y="503"/>
      <point x="768" y="405"/>
      <point x="768" y="294" type="curve" smooth="yes"/>
      <point x="768" y="0" type="line"/>
      <point x="863" y="0" type="line"/>
      <point x="863" y="296" type="line" smooth="yes"/>
      <point x="863" y="405"/>
      <point x="920" y="500"/>
      <point x="1046" y="500" type="curve" smooth="yes"/>
      <point x="1187" y="500"/>
      <point x="1258" y="365"/>
      <point x="1258" y="232" type="curve" smooth="yes"/>
      <point x="1258" y="95"/>
      <point x="1208" y="54"/>
      <point x="1146" y="54" type="curve" smooth="yes"/>
      <point x="1080" y="54"/>
      <point x="1035" y="105"/>
      <point x="1035" y="199" type="curve" smooth="yes"/>
      <point x="1035" y="307"/>
      <point x="1085" y="412"/>
      <point x="1173" y="484" type="curve"/>
      <point x="1140" y="523" type="line"/>
      <point x="1040" y="439"/>
      <point x="977" y="334"/>
      <point x="977" y="204" type="curve" smooth="yes"/>
      <point x="977" y="80"/>
      <point x="1040" y="-6"/>
      <point x="1156" y="-6" type="curve" smooth="yes"/>
      <point x="1284" y="-6"/>
      <point x="1355" y="106"/>
      <point x="1355" y="234" type="curve" smooth="yes"/>
      <point x="1355" y="420"/>
      <point x="1234" y="560"/>
      <point x="1057" y="560" type="curve" smooth="yes"/>
      <point x="940" y="560"/>
      <point x="852" y="491"/>
      <point x="817" y="401" type="curve"/>
      <point x="854" y="379" type="line"/>
      <point x="806" y="496"/>
      <point x="719" y="560"/>
      <point x="593" y="560" type="curve" smooth="yes"/>
      <point x="406" y="560"/>
      <point x="266" y="422"/>
      <point x="266" y="244" type="curve" smooth="yes"/>
      <point x="266" y="113"/>
      <point x="323" y="-6"/>
      <point x="481" y="-6" type="curve" smooth="yes"/>
      <point x="584" y="-6"/>
      <point x="650" y="48"/>
      <point x="650" y="129" type="curve" smooth="yes"/>
      <point x="650" y="200"/>
      <point x="594" y="244"/>
      <point x="537" y="255" type="curve"/>
      <point x="537" y="259" type="line"/>
      <point x="593" y="268"/>
      <point x="649" y="299"/>
      <point x="649" y="369" type="curve" smooth="yes"/>
      <point x="649" y="440"/>
      <point x="598" y="489"/>
      <point x="533" y="512" type="curve"/>
      <point x="509" y="533" type="line"/>
      <point x="457" y="554"/>
      <point x="397" y="560"/>
      <point x="339" y="560" type="curve" smooth="yes"/>
      <point x="169" y="560"/>
      <point x="42" y="443"/>
      <point x="42" y="256" type="curve" smooth="yes"/>
      <point x="42" y="92"/>
      <point x="139" y="-6"/>
    </contour>
  </outline>
</glyph>
<glyph name="aamlym" format="2">
  <advance width="1583"/>
  <unicode hex="0D06"/>
  <outline>
    <contour>
      <point x="853" y="296" type="line"/>
      <point x="854" y="379" type="line"/>
      <point x="806" y="496"/>
      <point x="719" y="560"/>
      <point x="593" y="560" type="curve" smooth="yes"/>
      <point x="406" y="560"/>
      <point x="266" y="422"/>
      <point x="266" y="244" type="curve" smooth="yes"/>
      <point x="266" y="113"/>
      <point x="323" y="-6"/>
      <point x="481" y="-6" type="curve" smooth="yes"/>
      <point x="584" y="-6"/>
      <point x="650" y="48"/>
      <point x="650" y="129" type="curve" smooth="yes"/>
      <point x="650" y="200"/>
      <point x="594" y="244"/>
      <point x="537" y="255" type="curve"/>
      <point x="537" y="259" type="line"/>
      <point x="593" y="268"/>
      <point x="649" y="299"/>
      <point x="649" y="369" type="curve" smooth="yes"/>
      <point x="649" y="440"/>
      <point x="598" y="489"/>
      <point x="533" y="512" type="curve"/>
      <point x="509" y="533" type="line"/>
      <point x="457" y="554"/>
      <point x="397" y="560"/>
      <point x="339" y="560" type="curve" smooth="yes"/>
      <point x="169" y="560"/>
      <point x="42" y="443"/>
      <point x="42" y="256" type="curve" smooth="yes"/>
      <point x="42" y="92"/>
      <point x="139" y="-6"/>
      <point x="202" y="-6" type="curve" smooth="yes"/>
      <point x="216" y="-6"/>
      <point x="229" y="0"/>
      <point x="238" y="11" type="curve"/>
      <point x="159" y="61"/>
      <point x="101" y="136"/>
      <point x="101" y="254" type="curve" smooth="yes"/>
      <point x="101" y="397"/>
      <point x="193" y="500"/>
      <point x="338" y="500" type="curve" smooth="yes"/>
      <point x="457" y="500"/>
      <point x="557" y="460"/>
      <point x="557" y="366" type="curve" smooth="yes"/>
      <point x="557" y="314"/>
      <point x="516" y="281"/>
      <point x="440" y="281" type="curve"/>
      <point x="440" y="233" type="line"/>
      <point x="504" y="233"/>
      <point x="555" y="208"/>
      <point x="555" y="136" type="curve" smooth="yes"/>
      <point x="555" y="83"/>
      <point x="521" y="54"/>
      <point x="463" y="54" type="curve" smooth="yes"/>
      <point x="384" y="54"/>
      <point x="324" y="117"/>
      <point x="324" y="235" type="curve" smooth="yes"/>
      <point x="324" y="422"/>
      <point x="460" y="503"/>
      <point x="580" y="503" type="curve" smooth="yes"/>
      <point x="712" y="503"/>
      <point x="768" y="405"/>
      <point x="768" y="294" type="curve" smooth="yes"/>
      <point x="768" y="0" type="line"/>
      <point x="853" y="0" type="line"/>
    </contour>
    <contour>
      <point x="1231" y="-170" type="curve" smooth="yes"/>
      <point x="1428" y="-170"/>
      <point x="1545" y="-61"/>
      <point x="1545" y="136" type="curve" smooth="yes"/>
      <point x="1545" y="356"/>
      <point x="1406" y="445"/>
      <point x="1258" y="445" type="curve" smooth="yes"/>
      <point x="1080" y="445"/>
      <point x="967" y="344"/>
      <point x="967" y="184" type="curve" smooth="yes"/>
      <point x="967" y="78"/>
      <point x="1029" y="-6"/>
      <point x="1143" y="-6" type="curve" smooth="yes"/>
      <point x="1274" y="-6"/>
      <point x="1343" y="107"/>
      <point x="1343" y="240" type="curve" smooth="yes"/>
      <point x="1343" y="420"/>
      <point x="1226" y="560"/>
      <point x="1050" y="560" type="curve" smooth="yes"/>
      <point x="940" y="560"/>
      <point x="853" y="491"/>
      <point x="817" y="401" type="curve"/>
      <point x="778" y="293" type="line"/>
      <point x="778" y="0" type="line"/>
      <point x="863" y="0" type="line"/>
      <point x="863" y="296" type="line" smooth="yes"/>
      <point x="863" y="405"/>
      <point x="920" y="500"/>
      <point x="1042" y="500" type="curve" smooth="yes"/>
      <point x="1182" y="500"/>
      <point x="1250" y="365"/>
      <point x="1250" y="229" type="curve" smooth="yes"/>
      <point x="1250" y="101"/>
      <point x="1205" y="54"/>
      <point x="1135" y="54" type="curve" smooth="yes"/>
      <point x="1078" y="54"/>
      <point x="1026" y="92"/>
      <point x="1026" y="189" type="curve" smooth="yes"/>
      <point x="1026" y="318"/>
      <point x="1123" y="391"/>
      <point x="1237" y="391" type="curve" smooth="yes"/>
      <point x="1368" y="391"/>
      <point x="1452" y="313"/>
      <point x="1452" y="140" type="curve" smooth="yes"/>
      <point x="1452" y="-17"/>
      <point x="1368" y="-110"/>
      <point x="1217" y="-110" type="curve" smooth="yes"/>
      <point x="1147" y="-110"/>
      <point x="1101" y="-95"/>
      <point x="1046" y="-70" type="curve"/>
      <point x="1043" y="-75"/>
      <point x="1041" y="-87"/>
      <point x="1041" y="-95" type="curve" smooth="yes"/>
      <point x="1041" y="-124"/>
      <point x="1085" y="-170"/>
    </contour>
  </outline>
</glyph>
<glyph name="imlym" format="2">
  <advance width="1006"/>
  <unicode hex="0D07"/>
  <outline>
    <contour>
      <point x="230" y="-197" type="curve" smooth="yes"/>
      <point x="951" y="-197" type="line"/>
      <point x="951" y="-121" type="line"/>
      <point x="221" y="-121" type="line" smooth="yes"/>
      <point x="147" y="-121"/>
      <point x="124" y="-95"/>
      <point x="124" y="-61" type="curve" smooth="yes"/>
      <point x="124" y="-24"/>
      <point x="145" y="0"/>
      <point x="219" y="0" type="curve"/>
      <point x="626" y="0" type="line" smooth="yes"/>
      <point x="841" y="0"/>
      <point x="962" y="95"/>
      <point x="962" y="305" type="curve" smooth="yes"/>
      <point x="962" y="450"/>
      <point x="871" y="560"/>
      <point x="731" y="560" type="curve" smooth="yes"/>
      <point x="652" y="560"/>
      <point x="587" y="528"/>
      <point x="540" y="435" type="curve"/>
      <point x="555" y="445" type="line"/>
      <point x="512" y="509"/>
      <point x="440" y="560"/>
      <point x="324" y="560" type="curve" smooth="yes"/>
      <point x="161" y="560"/>
      <point x="44" y="457"/>
      <point x="44" y="302" type="curve" smooth="yes"/>
      <point x="44" y="169"/>
      <point x="127" y="108"/>
      <point x="213" y="108" type="curve" smooth="yes"/>
      <point x="316" y="108"/>
      <point x="380" y="161"/>
      <point x="380" y="255" type="curve" smooth="yes"/>
      <point x="380" y="333"/>
      <point x="330" y="401"/>
      <point x="229" y="401" type="curve" smooth="yes"/>
      <point x="169" y="401"/>
      <point x="115" y="361"/>
      <point x="82" y="307" type="curve"/>
      <point x="91" y="243" type="line"/>
      <point x="122" y="312"/>
      <point x="163" y="343"/>
      <point x="210" y="343" type="curve" smooth="yes"/>
      <point x="259" y="343"/>
      <point x="291" y="304"/>
      <point x="291" y="254" type="curve" smooth="yes"/>
      <point x="291" y="201"/>
      <point x="261" y="166"/>
      <point x="205" y="166" type="curve" smooth="yes"/>
      <point x="159" y="166"/>
      <point x="96" y="205"/>
      <point x="96" y="304" type="curve" smooth="yes"/>
      <point x="96" y="417"/>
      <point x="172" y="500"/>
      <point x="315" y="500" type="curve" smooth="yes"/>
      <point x="411" y="500"/>
      <point x="491" y="445"/>
      <point x="491" y="316" type="curve" smooth="yes"/>
      <point x="491" y="120" type="line"/>
      <point x="586" y="120" type="line"/>
      <point x="586" y="355" type="line" smooth="yes"/>
      <point x="586" y="438"/>
      <point x="637" y="500"/>
      <point x="716" y="500" type="curve" smooth="yes"/>
      <point x="805" y="500"/>
      <point x="862" y="425"/>
      <point x="862" y="305" type="curve" smooth="yes"/>
      <point x="862" y="117"/>
      <point x="763" y="54"/>
      <point x="594" y="54" type="curve" smooth="yes"/>
      <point x="212" y="54" type="line" smooth="yes"/>
      <point x="115" y="54"/>
      <point x="51" y="14"/>
      <point x="51" y="-69" type="curve" smooth="yes"/>
      <point x="51" y="-149"/>
      <point x="109" y="-197"/>
    </contour>
  </outline>
</glyph>
<glyph name="umlym" format="2">
  <advance width="671"/>
  <unicode hex="0D09"/>
  <outline>
    <contour>
      <point x="231" y="-197" type="curve" smooth="yes"/>
      <point x="618" y="-197" type="line"/>
      <point x="618" y="-121" type="line"/>
      <point x="222" y="-121" type="line" smooth="yes"/>
      <point x="148" y="-121"/>
      <point x="125" y="-95"/>
      <point x="125" y="-61" type="curve" smooth="yes"/>
      <point x="125" y="-24"/>
      <point x="146" y="0"/>
      <point x="220" y="0" type="curve" smooth="yes"/>
      <point x="303" y="0" type="line" smooth="yes"/>
      <point x="507" y="0"/>
      <point x="629" y="95"/>
      <point x="629" y="288" type="curve" smooth="yes"/>
      <point x="629" y="444"/>
      <point x="513" y="560"/>
      <point x="327" y="560" type="curve" smooth="yes"/>
      <point x="161" y="560"/>
      <point x="44" y="457"/>
      <point x="44" y="302" type="curve" smooth="yes"/>
      <point x="44" y="169"/>
      <point x="127" y="108"/>
      <point x="213" y="108" type="curve" smooth="yes"/>
      <point x="316" y="108"/>
      <point x="380" y="161"/>
      <point x="380" y="255" type="curve" smooth="yes"/>
      <point x="380" y="333"/>
      <point x="330" y="401"/>
      <point x="229" y="401" type="curve" smooth="yes"/>
      <point x="169" y="401"/>
      <point x="115" y="361"/>
      <point x="82" y="307" type="curve"/>
      <point x="91" y="243" type="line"/>
      <point x="122" y="312"/>
      <point x="163" y="343"/>
      <point x="210" y="343" type="curve" smooth="yes"/>
      <point x="259" y="343"/>
      <point x="291" y="304"/>
      <point x="291" y="254" type="curve" smooth="yes"/>
      <point x="291" y="201"/>
      <point x="261" y="166"/>
      <point x="205" y="166" type="curve" smooth="yes"/>
      <point x="159" y="166"/>
      <point x="96" y="205"/>
      <point x="96" y="304" type="curve" smooth="yes"/>
      <point x="96" y="417"/>
      <point x="172" y="500"/>
      <point x="315" y="500" type="curve" smooth="yes"/>
      <point x="442" y="500"/>
      <point x="529" y="421"/>
      <point x="529" y="284" type="curve" smooth="yes"/>
      <point x="529" y="117"/>
      <point x="430" y="54"/>
      <point x="276" y="54" type="curve" smooth="yes"/>
      <point x="213" y="54" type="line" smooth="yes"/>
      <point x="116" y="54"/>
      <point x="52" y="14"/>
      <point x="52" y="-69" type="curve" smooth="yes"/>
      <point x="52" y="-149"/>
      <point x="110" y="-197"/>
    </contour>
  </outline>
</glyph>
<glyph name="rvocalicmlym" format="2">
  <advance width="800"/>
  <unicode hex="0D0B"/>
  <outline>
    <contour>
      <point x="402" y="89" type="curve" smooth="yes"/>
      <point x="590" y="89"/>
      <point x="768" y="150"/>
      <point x="768" y="363" type="curve" smooth="yes"/>
      <point x="768" y="504"/>
      <point x="680" y="560"/>
      <point x="594" y="560" type="curve" smooth="yes"/>
      <point x="513" y="560"/>
      <point x="436" y="507"/>
      <point x="436" y="413" type="curve" smooth="yes"/>
      <point x="436" y="335"/>
      <point x="489" y="268"/>
      <point x="583" y="268" type="curve" smooth="yes"/>
      <point x="652" y="268"/>
      <point x="704" y="301"/>
      <point x="730" y="342" type="curve"/>
      <point x="724" y="409" type="line"/>
      <point x="699" y="355"/>
      <point x="664" y="324"/>
      <point x="606" y="324" type="curve" smooth="yes"/>
      <point x="552" y="324"/>
      <point x="522" y="365"/>
      <point x="522" y="414" type="curve" smooth="yes"/>
      <point x="522" y="464"/>
      <point x="550" y="504"/>
      <point x="604" y="504" type="curve" smooth="yes"/>
      <point x="656" y="504"/>
      <point x="714" y="466"/>
      <point x="714" y="358" type="curve" smooth="yes"/>
      <point x="714" y="211"/>
      <point x="592" y="136"/>
      <point x="400" y="136" type="curve" smooth="yes"/>
      <point x="216" y="136"/>
      <point x="86" y="210"/>
      <point x="86" y="355" type="curve" smooth="yes"/>
      <point x="86" y="467"/>
      <point x="148" y="504"/>
      <point x="196" y="504" type="curve" smooth="yes"/>
      <point x="250" y="504"/>
      <point x="279" y="464"/>
      <point x="279" y="414" type="curve" smooth="yes"/>
      <point x="279" y="365"/>
      <point x="250" y="324"/>
      <point x="195" y="324" type="curve" smooth="yes"/>
      <point x="135" y="324"/>
      <point x="101" y="360"/>
      <point x="72" y="418" type="curve"/>
      <point x="62" y="351" type="line"/>
      <point x="88" y="305"/>
      <point x="141" y="268"/>
      <point x="217" y="268" type="curve" smooth="yes"/>
      <point x="311" y="268"/>
      <point x="365" y="335"/>
      <point x="365" y="413" type="curve" smooth="yes"/>
      <point x="365" y="507"/>
      <point x="291" y="560"/>
      <point x="211" y="560" type="curve" smooth="yes"/>
      <point x="119" y="560"/>
      <point x="32" y="496"/>
      <point x="32" y="362" type="curve" smooth="yes"/>
      <point x="32" y="144"/>
      <point x="226" y="89"/>
    </contour>
    <contour>
      <point x="396" y="-207" type="curve" smooth="yes"/>
      <point x="640" y="-207"/>
      <point x="729" y="-139"/>
      <point x="729" y="-36" type="curve" smooth="yes"/>
      <point x="729" y="60"/>
      <point x="640" y="126"/>
      <point x="396" y="126" type="curve" smooth="yes"/>
      <point x="150" y="126"/>
      <point x="64" y="58"/>
      <point x="64" y="-36" type="curve" smooth="yes"/>
      <point x="64" y="-139"/>
      <point x="160" y="-207"/>
    </contour>
    <contour>
      <point x="396" y="-153" type="curve" smooth="yes"/>
      <point x="209" y="-153"/>
      <point x="153" y="-107"/>
      <point x="153" y="-37" type="curve" smooth="yes"/>
      <point x="153" y="39"/>
      <point x="213" y="84"/>
      <point x="396" y="84" type="curve" smooth="yes"/>
      <point x="591" y="84"/>
      <point x="640" y="36"/>
      <point x="640" y="-37" type="curve" smooth="yes"/>
      <point x="640" y="-107"/>
      <point x="582" y="-153"/>
    </contour>
  </outline>
</glyph>
<glyph name="lvocalicmlym" format="2">
  <advance width="1153"/>
  <unicode hex="0D0C"/>
  <outline>
    <contour>
      <point x="252" y="-6" type="curve" smooth="yes"/>
      <point x="359" y="-6"/>
      <point x="422" y="64"/>
      <point x="422" y="159" type="curve" smooth="yes"/>
      <point x="422" y="252"/>
      <point x="356" y="322"/>
      <point x="259" y="322" type="curve" smooth="yes"/>
      <point x="185" y="322"/>
      <point x="127" y="276"/>
      <point x="90" y="213" type="curve"/>
      <point x="99" y="152" type="line"/>
      <point x="128" y="209"/>
      <point x="175" y="261"/>
      <point x="235" y="261" type="curve" smooth="yes"/>
      <point x="288" y="261"/>
      <point x="331" y="225"/>
      <point x="331" y="159" type="curve" smooth="yes"/>
      <point x="331" y="100"/>
      <point x="298" y="54"/>
      <point x="234" y="54" type="curve" smooth="yes"/>
      <point x="173" y="54"/>
      <point x="97" y="116"/>
      <point x="97" y="250" type="curve" smooth="yes"/>
      <point x="97" y="417"/>
      <point x="213" y="500"/>
      <point x="329" y="500" type="curve" smooth="yes"/>
      <point x="445" y="500"/>
      <point x="524" y="428"/>
      <point x="524" y="292" type="curve" smooth="yes"/>
      <point x="524" y="0" type="line"/>
      <point x="609" y="0" type="line"/>
      <point x="609" y="361" type="line"/>
      <point x="593" y="423" type="line"/>
      <point x="538" y="523"/>
      <point x="437" y="560"/>
      <point x="341" y="560" type="curve" smooth="yes"/>
      <point x="190" y="560"/>
      <point x="42" y="457"/>
      <point x="42" y="251" type="curve" smooth="yes"/>
      <point x="42" y="123"/>
      <point x="111" y="-6"/>
    </contour>
    <contour>
      <point x="534" y="294" type="line"/>
      <point x="534" y="0" type="line"/>
      <point x="619" y="0" type="line"/>
      <point x="619" y="296" type="line" smooth="yes"/>
      <point x="619" y="405"/>
      <point x="676" y="500"/>
      <point x="802" y="500" type="curve" smooth="yes"/>
      <point x="943" y="500"/>
      <point x="1014" y="365"/>
      <point x="1014" y="232" type="curve" smooth="yes"/>
      <point x="1014" y="95"/>
      <point x="964" y="54"/>
      <point x="902" y="54" type="curve" smooth="yes"/>
      <point x="836" y="54"/>
      <point x="791" y="105"/>
      <point x="791" y="199" type="curve" smooth="yes"/>
      <point x="791" y="307"/>
      <point x="841" y="412"/>
      <point x="929" y="484" type="curve"/>
      <point x="896" y="523" type="line"/>
      <point x="796" y="439"/>
      <point x="733" y="334"/>
      <point x="733" y="204" type="curve" smooth="yes"/>
      <point x="733" y="80"/>
      <point x="796" y="-6"/>
      <point x="912" y="-6" type="curve" smooth="yes"/>
      <point x="1040" y="-6"/>
      <point x="1111" y="106"/>
      <point x="1111" y="234" type="curve" smooth="yes"/>
      <point x="1111" y="420"/>
      <point x="990" y="560"/>
      <point x="813" y="560" type="curve" smooth="yes"/>
      <point x="696" y="560"/>
      <point x="608" y="491"/>
      <point x="573" y="401" type="curve"/>
    </contour>
  </outline>
</glyph>
<glyph name="emlym" format="2">
  <advance width="1305"/>
  <unicode hex="0D0E"/>
  <outline>
    <contour>
      <point x="148" y="-6" type="curve" smooth="yes"/>
      <point x="165" y="-6"/>
      <point x="172" y="0"/>
      <point x="180" y="14" type="curve"/>
      <point x="137" y="42"/>
      <point x="91" y="91"/>
      <point x="91" y="167" type="curve" smooth="yes"/>
      <point x="91" y="239"/>
      <point x="137" y="299"/>
      <point x="216" y="299" type="curve" smooth="yes"/>
      <point x="287" y="299"/>
      <point x="333" y="245"/>
      <point x="333" y="177" type="curve" smooth="yes"/>
      <point x="333" y="90"/>
      <point x="283" y="41"/>
      <point x="255" y="17" type="curve"/>
      <point x="265" y="0" type="line"/>
      <point x="851" y="0" type="line"/>
      <point x="851" y="54" type="line"/>
      <point x="367" y="54" type="line"/>
      <point x="406" y="88"/>
      <point x="424" y="137"/>
      <point x="424" y="182" type="curve" smooth="yes"/>
      <point x="424" y="292"/>
      <point x="334" y="359"/>
      <point x="228" y="359" type="curve" smooth="yes"/>
      <point x="118" y="359"/>
      <point x="34" y="283"/>
      <point x="34" y="167" type="curve" smooth="yes"/>
      <point x="34" y="68"/>
      <point x="98" y="-6"/>
    </contour>
    <contour>
      <point x="1051" y="-230" type="curve" smooth="yes"/>
      <point x="1157" y="-230"/>
      <point x="1261" y="-81"/>
      <point x="1261" y="139" type="curve" smooth="yes"/>
      <point x="1261" y="351"/>
      <point x="1163" y="560"/>
      <point x="894" y="560" type="curve" smooth="yes"/>
      <point x="713" y="560"/>
      <point x="539" y="410"/>
      <point x="539" y="122" type="curve" smooth="yes"/>
      <point x="539" y="-58"/>
      <point x="610" y="-228"/>
      <point x="781" y="-228" type="curve" smooth="yes"/>
      <point x="872" y="-228"/>
      <point x="923" y="-182"/>
      <point x="923" y="-81" type="curve" smooth="yes"/>
      <point x="923" y="418" type="line"/>
      <point x="828" y="418" type="line"/>
      <point x="828" y="-87" type="line" smooth="yes"/>
      <point x="828" y="-141"/>
      <point x="810" y="-162"/>
      <point x="770" y="-162" type="curve" smooth="yes"/>
      <point x="652" y="-162"/>
      <point x="599" y="-46"/>
      <point x="599" y="119" type="curve" smooth="yes"/>
      <point x="599" y="369"/>
      <point x="739" y="498"/>
      <point x="894" y="498" type="curve" smooth="yes"/>
      <point x="1073" y="498"/>
      <point x="1163" y="329"/>
      <point x="1163" y="141" type="curve" smooth="yes"/>
      <point x="1163" y="-15"/>
      <point x="1114" y="-145"/>
      <point x="1016" y="-223" type="curve"/>
      <point x="1027" y="-227"/>
      <point x="1039" y="-230"/>
    </contour>
  </outline>
</glyph>
<glyph name="eemlym" format="2">
  <advance width="1293"/>
  <unicode hex="0D0F"/>
  <outline>
    <contour>
      <point x="781" y="-228" type="curve" smooth="yes"/>
      <point x="872" y="-228"/>
      <point x="923" y="-182"/>
      <point x="923" y="-81" type="curve" smooth="yes"/>
      <point x="923" y="418" type="line"/>
      <point x="828" y="418" type="line"/>
      <point x="828" y="-87" type="line" smooth="yes"/>
      <point x="828" y="-141"/>
      <point x="810" y="-162"/>
      <point x="770" y="-162" type="curve" smooth="yes"/>
      <point x="652" y="-162"/>
      <point x="599" y="-43"/>
      <point x="599" y="119" type="curve" smooth="yes"/>
      <point x="599" y="377"/>
      <point x="754" y="498"/>
      <point x="934" y="498" type="curve" smooth="yes"/>
      <point x="1076" y="498"/>
      <point x="1147" y="426"/>
      <point x="1147" y="322" type="curve" smooth="yes"/>
      <point x="1147" y="236"/>
      <point x="1092" y="178"/>
      <point x="1022" y="178" type="curve"/>
      <point x="1022" y="127" type="line"/>
      <point x="1125" y="125"/>
      <point x="1176" y="57"/>
      <point x="1176" y="-30" type="curve" smooth="yes"/>
      <point x="1176" y="-115"/>
      <point x="1141" y="-168"/>
      <point x="1061" y="-168" type="curve" smooth="yes"/>
      <point x="1033" y="-168"/>
      <point x="1012" y="-164"/>
      <point x="997" y="-159" type="curve"/>
      <point x="996" y="-164"/>
      <point x="996" y="-169"/>
      <point x="996" y="-173" type="curve" smooth="yes"/>
      <point x="996" y="-205"/>
      <point x="1033" y="-228"/>
      <point x="1104" y="-228" type="curve" smooth="yes"/>
      <point x="1192" y="-228"/>
      <point x="1274" y="-162"/>
      <point x="1274" y="-34" type="curve" smooth="yes"/>
      <point x="1274" y="70"/>
      <point x="1206" y="136"/>
      <point x="1112" y="156" type="curve"/>
      <point x="1112" y="159" type="line"/>
      <point x="1188" y="184"/>
      <point x="1245" y="240"/>
      <point x="1245" y="335" type="curve" smooth="yes"/>
      <point x="1245" y="484"/>
      <point x="1109" y="560"/>
      <point x="947" y="560" type="curve" smooth="yes"/>
      <point x="713" y="560"/>
      <point x="539" y="411"/>
      <point x="539" y="122" type="curve" smooth="yes"/>
      <point x="539" y="-58"/>
      <point x="610" y="-228"/>
    </contour>
    <contour>
      <point x="148" y="-6" type="curve" smooth="yes"/>
      <point x="165" y="-6"/>
      <point x="172" y="0"/>
      <point x="180" y="14" type="curve"/>
      <point x="137" y="42"/>
      <point x="91" y="91"/>
      <point x="91" y="167" type="curve" smooth="yes"/>
      <point x="91" y="239"/>
      <point x="137" y="299"/>
      <point x="216" y="299" type="curve" smooth="yes"/>
      <point x="287" y="299"/>
      <point x="333" y="245"/>
      <point x="333" y="177" type="curve" smooth="yes"/>
      <point x="333" y="90"/>
      <point x="283" y="41"/>
      <point x="255" y="17" type="curve"/>
      <point x="265" y="0" type="line"/>
      <point x="851" y="0" type="line"/>
      <point x="851" y="54" type="line"/>
      <point x="367" y="54" type="line"/>
      <point x="406" y="88"/>
      <point x="424" y="137"/>
      <point x="424" y="182" type="curve" smooth="yes"/>
      <point x="424" y="292"/>
      <point x="334" y="359"/>
      <point x="228" y="359" type="curve" smooth="yes"/>
      <point x="118" y="359"/>
      <point x="34" y="283"/>
      <point x="34" y="167" type="curve" smooth="yes"/>
      <point x="34" y="68"/>
      <point x="98" y="-6"/>
    </contour>
  </outline>
</glyph>
<glyph name="omlym" format="2">
  <advance width="747"/>
  <unicode hex="0D12"/>
  <outline>
    <contour>
      <point x="249" y="-6" type="curve" smooth="yes"/>
      <point x="355" y="-6"/>
      <point x="418" y="64"/>
      <point x="418" y="159" type="curve" smooth="yes"/>
      <point x="418" y="252"/>
      <point x="352" y="322"/>
      <point x="255" y="322" type="curve" smooth="yes"/>
      <point x="181" y="322"/>
      <point x="123" y="276"/>
      <point x="86" y="213" type="curve"/>
      <point x="95" y="152" type="line"/>
      <point x="124" y="209"/>
      <point x="171" y="261"/>
      <point x="231" y="261" type="curve" smooth="yes"/>
      <point x="284" y="261"/>
      <point x="327" y="225"/>
      <point x="327" y="159" type="curve" smooth="yes"/>
      <point x="327" y="100"/>
      <point x="294" y="54"/>
      <point x="231" y="54" type="curve" smooth="yes"/>
      <point x="165" y="54"/>
      <point x="95" y="111"/>
      <point x="95" y="236" type="curve" smooth="yes"/>
      <point x="95" y="396"/>
      <point x="220" y="500"/>
      <point x="417" y="500" type="curve" smooth="yes"/>
      <point x="534" y="500"/>
      <point x="604" y="468"/>
      <point x="604" y="397" type="curve" smooth="yes"/>
      <point x="604" y="339"/>
      <point x="557" y="303"/>
      <point x="485" y="303" type="curve" smooth="yes"/>
      <point x="473" y="303" type="line"/>
      <point x="473" y="253" type="line"/>
      <point x="491" y="253" type="line" smooth="yes"/>
      <point x="569" y="253"/>
      <point x="614" y="215"/>
      <point x="614" y="148" type="curve" smooth="yes"/>
      <point x="614" y="85"/>
      <point x="569" y="54"/>
      <point x="516" y="54" type="curve" smooth="yes"/>
      <point x="493" y="54"/>
      <point x="467" y="60"/>
      <point x="441" y="71" type="curve"/>
      <point x="439" y="66"/>
      <point x="437" y="56"/>
      <point x="437" y="51" type="curve" smooth="yes"/>
      <point x="437" y="21"/>
      <point x="468" y="-6"/>
      <point x="543" y="-6" type="curve" smooth="yes"/>
      <point x="655" y="-6"/>
      <point x="709" y="54"/>
      <point x="709" y="134" type="curve" smooth="yes"/>
      <point x="709" y="200"/>
      <point x="664" y="262"/>
      <point x="581" y="276" type="curve"/>
      <point x="581" y="280" type="line"/>
      <point x="662" y="297"/>
      <point x="698" y="350"/>
      <point x="698" y="399" type="curve" smooth="yes"/>
      <point x="698" y="500"/>
      <point x="612" y="560"/>
      <point x="428" y="560" type="curve" smooth="yes"/>
      <point x="200" y="560"/>
      <point x="40" y="436"/>
      <point x="40" y="236" type="curve" smooth="yes"/>
      <point x="40" y="118"/>
      <point x="102" y="-6"/>
    </contour>
  </outline>
</glyph>
<glyph name="kamlym" format="2">
  <advance width="997"/>
  <unicode hex="0D15"/>
  <outline>
    <contour>
      <point x="195" y="-6" type="curve" smooth="yes"/>
      <point x="280" y="-6"/>
      <point x="335" y="39"/>
      <point x="366" y="126" type="curve"/>
      <point x="324" y="157" type="line"/>
      <point x="306" y="85"/>
      <point x="270" y="49"/>
      <point x="213" y="49" type="curve" smooth="yes"/>
      <point x="173" y="49"/>
      <point x="128" y="68"/>
      <point x="128" y="139" type="curve" smooth="yes"/>
      <point x="128" y="226"/>
      <point x="197" y="259"/>
      <point x="297" y="259" type="curve" smooth="yes"/>
      <point x="717" y="259" type="line" smooth="yes"/>
      <point x="816" y="259"/>
      <point x="867" y="226"/>
      <point x="867" y="145" type="curve" smooth="yes"/>
      <point x="867" y="86"/>
      <point x="827" y="51"/>
      <point x="768" y="51" type="curve" smooth="yes"/>
      <point x="762" y="51"/>
      <point x="755" y="51"/>
      <point x="748" y="52" type="curve"/>
      <point x="748" y="16"/>
      <point x="779" y="-6"/>
      <point x="821" y="-6" type="curve" smooth="yes"/>
      <point x="896" y="-6"/>
      <point x="962" y="47"/>
      <point x="962" y="144" type="curve" smooth="yes"/>
      <point x="962" y="245"/>
      <point x="877" y="310"/>
      <point x="729" y="310" type="curve" smooth="yes"/>
      <point x="300" y="310" type="line" smooth="yes"/>
      <point x="132" y="310"/>
      <point x="35" y="249"/>
      <point x="35" y="141" type="curve" smooth="yes"/>
      <point x="35" y="53"/>
      <point x="96" y="-6"/>
    </contour>
    <contour>
      <point x="501" y="-6" type="curve" smooth="yes"/>
      <point x="660" y="-6"/>
      <point x="723" y="121"/>
      <point x="723" y="277" type="curve" smooth="yes"/>
      <point x="723" y="433"/>
      <point x="660" y="560"/>
      <point x="501" y="560" type="curve" smooth="yes"/>
      <point x="353" y="560"/>
      <point x="287" y="428"/>
      <point x="287" y="277" type="curve" smooth="yes"/>
      <point x="287" y="125"/>
      <point x="353" y="-6"/>
    </contour>
    <contour>
      <point x="489" y="54" type="curve" smooth="yes"/>
      <point x="389" y="54"/>
      <point x="344" y="162"/>
      <point x="344" y="277" type="curve" smooth="yes"/>
      <point x="344" y="392"/>
      <point x="389" y="500"/>
      <point x="494" y="500" type="curve" smooth="yes"/>
      <point x="598" y="500"/>
      <point x="627" y="412"/>
      <point x="627" y="277" type="curve" smooth="yes"/>
      <point x="627" y="142"/>
      <point x="598" y="54"/>
    </contour>
  </outline>
</glyph>
<glyph name="khamlym" format="2">
  <advance width="991"/>
  <unicode hex="0D16"/>
  <outline>
    <contour>
      <point x="252" y="-6" type="curve" smooth="yes"/>
      <point x="359" y="-6"/>
      <point x="422" y="64"/>
      <point x="422" y="159" type="curve" smooth="yes"/>
      <point x="422" y="252"/>
      <point x="356" y="322"/>
      <point x="259" y="322" type="curve" smooth="yes"/>
      <point x="185" y="322"/>
      <point x="127" y="276"/>
      <point x="90" y="213" type="curve"/>
      <point x="99" y="152" type="line"/>
      <point x="128" y="209"/>
      <point x="175" y="261"/>
      <point x="235" y="261" type="curve" smooth="yes"/>
      <point x="288" y="261"/>
      <point x="331" y="225"/>
      <point x="331" y="159" type="curve" smooth="yes"/>
      <point x="331" y="100"/>
      <point x="298" y="54"/>
      <point x="234" y="54" type="curve" smooth="yes"/>
      <point x="173" y="54"/>
      <point x="97" y="116"/>
      <point x="97" y="250" type="curve" smooth="yes"/>
      <point x="97" y="417"/>
      <point x="213" y="496"/>
      <point x="339" y="496" type="curve" smooth="yes"/>
      <point x="491" y="496"/>
      <point x="554" y="398"/>
      <point x="554" y="269" type="curve" smooth="yes"/>
      <point x="554" y="169"/>
      <point x="517" y="84"/>
      <point x="440" y="26" type="curve"/>
      <point x="453" y="0" type="line"/>
      <point x="919" y="0" type="line"/>
      <point x="919" y="554" type="line"/>
      <point x="824" y="554" type="line"/>
      <point x="824" y="54" type="line"/>
      <point x="485" y="54" type="line"/>
      <point x="528" y="23" type="line"/>
      <point x="621" y="90"/>
      <point x="652" y="181"/>
      <point x="652" y="286" type="curve" smooth="yes"/>
      <point x="652" y="428"/>
      <point x="550" y="560"/>
      <point x="355" y="560" type="curve" smooth="yes"/>
      <point x="191" y="560"/>
      <point x="42" y="456"/>
      <point x="42" y="251" type="curve" smooth="yes"/>
      <point x="42" y="123"/>
      <point x="111" y="-6"/>
    </contour>
  </outline>
</glyph>
<glyph name="gamlym" format="2">
  <advance width="847"/>
  <unicode hex="0D17"/>
  <outline>
    <contour>
      <point x="256" y="-6" type="curve" smooth="yes"/>
      <point x="400" y="-6"/>
      <point x="473" y="80"/>
      <point x="473" y="240" type="curve" smooth="yes"/>
      <point x="473" y="329" type="line" smooth="yes"/>
      <point x="473" y="459"/>
      <point x="520" y="499"/>
      <point x="599" y="499" type="curve" smooth="yes"/>
      <point x="696" y="499"/>
      <point x="746" y="415"/>
      <point x="746" y="283" type="curve" smooth="yes"/>
      <point x="746" y="145"/>
      <point x="687" y="70"/>
      <point x="608" y="11" type="curve"/>
      <point x="618" y="-1"/>
      <point x="631" y="-6"/>
      <point x="645" y="-6" type="curve" smooth="yes"/>
      <point x="705" y="-6"/>
      <point x="805" y="106"/>
      <point x="805" y="279" type="curve" smooth="yes"/>
      <point x="805" y="459"/>
      <point x="722" y="560"/>
      <point x="586" y="560" type="curve" smooth="yes"/>
      <point x="452" y="560"/>
      <point x="374" y="474"/>
      <point x="374" y="314" type="curve" smooth="yes"/>
      <point x="374" y="225" type="line" smooth="yes"/>
      <point x="374" y="94"/>
      <point x="327" y="55"/>
      <point x="248" y="55" type="curve" smooth="yes"/>
      <point x="148" y="55"/>
      <point x="101" y="139"/>
      <point x="101" y="271" type="curve" smooth="yes"/>
      <point x="101" y="409"/>
      <point x="160" y="484"/>
      <point x="239" y="543" type="curve"/>
      <point x="229" y="555"/>
      <point x="216" y="560"/>
      <point x="202" y="560" type="curve" smooth="yes"/>
      <point x="142" y="560"/>
      <point x="42" y="448"/>
      <point x="42" y="275" type="curve" smooth="yes"/>
      <point x="42" y="95"/>
      <point x="125" y="-6"/>
    </contour>
  </outline>
</glyph>
<glyph name="ghamlym" format="2">
  <advance width="1293"/>
  <unicode hex="0D18"/>
  <outline>
    <contour>
      <point x="532" y="0" type="line"/>
      <point x="1221" y="0" type="line"/>
      <point x="1221" y="554" type="line"/>
      <point x="1126" y="554" type="line"/>
      <point x="1126" y="54" type="line"/>
      <point x="626" y="54" type="line"/>
      <point x="626" y="340" type="line" smooth="yes"/>
      <point x="626" y="456"/>
      <point x="685" y="500"/>
      <point x="767" y="500" type="curve" smooth="yes"/>
      <point x="861" y="500"/>
      <point x="900" y="438"/>
      <point x="900" y="338" type="curve" smooth="yes"/>
      <point x="900" y="274" type="line"/>
      <point x="591" y="274" type="line"/>
      <point x="591" y="221" type="line"/>
      <point x="959" y="221" type="line"/>
      <point x="959" y="328" type="line" smooth="yes"/>
      <point x="959" y="487"/>
      <point x="880" y="560"/>
      <point x="751" y="560" type="curve" smooth="yes"/>
      <point x="638" y="560"/>
      <point x="532" y="493"/>
      <point x="532" y="328" type="curve" smooth="yes"/>
    </contour>
    <contour>
      <point x="143" y="215" type="curve" smooth="yes"/>
      <point x="160" y="215"/>
      <point x="170" y="224"/>
      <point x="175" y="235" type="curve"/>
      <point x="132" y="263"/>
      <point x="91" y="313"/>
      <point x="91" y="379" type="curve" smooth="yes"/>
      <point x="91" y="448"/>
      <point x="137" y="500"/>
      <point x="210" y="500" type="curve" smooth="yes"/>
      <point x="282" y="500"/>
      <point x="320" y="441"/>
      <point x="320" y="388" type="curve" smooth="yes"/>
      <point x="320" y="328"/>
      <point x="300" y="279"/>
      <point x="251" y="238" type="curve"/>
      <point x="261" y="221" type="line"/>
      <point x="573" y="221" type="line"/>
      <point x="573" y="274" type="line"/>
      <point x="334" y="274" type="line"/>
      <point x="346" y="260" type="line"/>
      <point x="394" y="298"/>
      <point x="411" y="348"/>
      <point x="411" y="393" type="curve" smooth="yes"/>
      <point x="411" y="483"/>
      <point x="338" y="560"/>
      <point x="224" y="560" type="curve" smooth="yes"/>
      <point x="96" y="560"/>
      <point x="34" y="470"/>
      <point x="34" y="379" type="curve" smooth="yes"/>
      <point x="34" y="279"/>
      <point x="102" y="215"/>
    </contour>
  </outline>
</glyph>
<glyph name="ngamlym" format="2">
  <advance width="1084"/>
  <unicode hex="0D19"/>
  <outline>
    <contour>
      <point x="252" y="-6" type="curve" smooth="yes"/>
      <point x="359" y="-6"/>
      <point x="422" y="64"/>
      <point x="422" y="159" type="curve" smooth="yes"/>
      <point x="422" y="252"/>
      <point x="356" y="322"/>
      <point x="259" y="322" type="curve" smooth="yes"/>
      <point x="185" y="322"/>
      <point x="127" y="276"/>
      <point x="90" y="213" type="curve"/>
      <point x="99" y="152" type="line"/>
      <point x="128" y="209"/>
      <point x="175" y="261"/>
      <point x="235" y="261" type="curve" smooth="yes"/>
      <point x="288" y="261"/>
      <point x="331" y="225"/>
      <point x="331" y="159" type="curve" smooth="yes"/>
      <point x="331" y="100"/>
      <point x="298" y="54"/>
      <point x="234" y="54" type="curve" smooth="yes"/>
      <point x="173" y="54"/>
      <point x="97" y="116"/>
      <point x="97" y="250" type="curve" smooth="yes"/>
      <point x="97" y="417"/>
      <point x="213" y="500"/>
      <point x="329" y="500" type="curve" smooth="yes"/>
      <point x="445" y="500"/>
      <point x="524" y="428"/>
      <point x="524" y="292" type="curve" smooth="yes"/>
      <point x="524" y="0" type="line"/>
      <point x="609" y="0" type="line"/>
      <point x="609" y="361" type="line"/>
      <point x="593" y="423" type="line"/>
      <point x="538" y="523"/>
      <point x="437" y="560"/>
      <point x="341" y="560" type="curve" smooth="yes"/>
      <point x="190" y="560"/>
      <point x="42" y="457"/>
      <point x="42" y="251" type="curve" smooth="yes"/>
      <point x="42" y="123"/>
      <point x="111" y="-6"/>
    </contour>
    <contour>
      <point x="828" y="560" type="curve" smooth="yes"/>
      <point x="700" y="560"/>
      <point x="614" y="489"/>
      <point x="577" y="399" type="curve"/>
      <point x="534" y="294" type="line"/>
      <point x="534" y="0" type="line"/>
      <point x="619" y="0" type="line"/>
      <point x="619" y="290" type="line" smooth="yes"/>
      <point x="619" y="438"/>
      <point x="713" y="500"/>
      <point x="814" y="500" type="curve" smooth="yes"/>
      <point x="889" y="500"/>
      <point x="941" y="463"/>
      <point x="941" y="397" type="curve" smooth="yes"/>
      <point x="941" y="339"/>
      <point x="894" y="303"/>
      <point x="822" y="303" type="curve" smooth="yes"/>
      <point x="791" y="303" type="line"/>
      <point x="791" y="253" type="line"/>
      <point x="828" y="253" type="line" smooth="yes"/>
      <point x="906" y="253"/>
      <point x="951" y="215"/>
      <point x="951" y="148" type="curve" smooth="yes"/>
      <point x="951" y="85"/>
      <point x="906" y="54"/>
      <point x="853" y="54" type="curve" smooth="yes"/>
      <point x="815" y="54"/>
      <point x="781" y="63"/>
      <point x="751" y="79" type="curve"/>
      <point x="749" y="74"/>
      <point x="747" y="64"/>
      <point x="747" y="59" type="curve" smooth="yes"/>
      <point x="747" y="29"/>
      <point x="796" y="-6"/>
      <point x="880" y="-6" type="curve" smooth="yes"/>
      <point x="992" y="-6"/>
      <point x="1046" y="54"/>
      <point x="1046" y="134" type="curve" smooth="yes"/>
      <point x="1046" y="200"/>
      <point x="1001" y="262"/>
      <point x="918" y="276" type="curve"/>
      <point x="918" y="280" type="line"/>
      <point x="999" y="297"/>
      <point x="1035" y="350"/>
      <point x="1035" y="402" type="curve" smooth="yes"/>
      <point x="1035" y="498"/>
      <point x="953" y="560"/>
    </contour>
  </outline>
</glyph>
<glyph name="camlym" format="2">
  <advance width="934"/>
  <unicode hex="0D1A"/>
  <outline>
    <contour>
      <point x="17" y="0" type="line"/>
      <point x="862" y="0" type="line"/>
      <point x="862" y="554" type="line"/>
      <point x="767" y="554" type="line"/>
      <point x="767" y="54" type="line"/>
      <point x="17" y="54" type="line"/>
    </contour>
    <contour>
      <point x="390" y="22" type="line"/>
      <point x="439" y="20" type="line"/>
      <point x="491" y="65"/>
      <point x="531" y="114"/>
      <point x="531" y="203" type="curve" smooth="yes"/>
      <point x="531" y="316"/>
      <point x="448" y="376"/>
      <point x="340" y="376" type="curve" smooth="yes"/>
      <point x="219" y="376"/>
      <point x="154" y="289"/>
      <point x="154" y="217" type="curve" smooth="yes"/>
      <point x="154" y="169"/>
      <point x="169" y="137"/>
      <point x="205" y="137" type="curve" smooth="yes"/>
      <point x="210" y="137"/>
      <point x="218" y="138"/>
      <point x="222" y="140" type="curve"/>
      <point x="215" y="160"/>
      <point x="212" y="179"/>
      <point x="212" y="197" type="curve" smooth="yes"/>
      <point x="212" y="261"/>
      <point x="247" y="316"/>
      <point x="329" y="316" type="curve" smooth="yes"/>
      <point x="394" y="316"/>
      <point x="440" y="271"/>
      <point x="440" y="199" type="curve" smooth="yes"/>
      <point x="440" y="118"/>
      <point x="404" y="66"/>
      <point x="370" y="39" type="curve"/>
    </contour>
  </outline>
</glyph>
<glyph name="chamlym" format="2">
  <advance width="1312"/>
  <unicode hex="0D1B"/>
  <outline>
    <contour>
      <point x="1071" y="-6" type="curve" smooth="yes"/>
      <point x="1199" y="-6"/>
      <point x="1270" y="106"/>
      <point x="1270" y="234" type="curve" smooth="yes"/>
      <point x="1270" y="420"/>
      <point x="1153" y="560"/>
      <point x="964" y="560" type="curve" smooth="yes"/>
      <point x="808" y="560"/>
      <point x="669" y="450"/>
      <point x="669" y="256" type="curve" smooth="yes"/>
      <point x="669" y="172"/>
      <point x="699" y="99"/>
      <point x="740" y="54" type="curve"/>
      <point x="17" y="54" type="line"/>
      <point x="17" y="0" type="line"/>
      <point x="803" y="0" type="line"/>
      <point x="827" y="38" type="line"/>
      <point x="770" y="88"/>
      <point x="728" y="160"/>
      <point x="728" y="254" type="curve" smooth="yes"/>
      <point x="728" y="402"/>
      <point x="821" y="498"/>
      <point x="955" y="498" type="curve" smooth="yes"/>
      <point x="1102" y="498"/>
      <point x="1173" y="364"/>
      <point x="1173" y="232" type="curve" smooth="yes"/>
      <point x="1173" y="95"/>
      <point x="1123" y="54"/>
      <point x="1061" y="54" type="curve" smooth="yes"/>
      <point x="995" y="54"/>
      <point x="950" y="106"/>
      <point x="950" y="199" type="curve" smooth="yes"/>
      <point x="950" y="307"/>
      <point x="1000" y="412"/>
      <point x="1088" y="484" type="curve"/>
      <point x="1055" y="523" type="line"/>
      <point x="955" y="439"/>
      <point x="892" y="334"/>
      <point x="892" y="204" type="curve" smooth="yes"/>
      <point x="892" y="80"/>
      <point x="955" y="-6"/>
    </contour>
    <contour>
      <point x="388" y="22" type="line"/>
      <point x="437" y="20" type="line"/>
      <point x="489" y="65"/>
      <point x="529" y="114"/>
      <point x="529" y="203" type="curve" smooth="yes"/>
      <point x="529" y="316"/>
      <point x="446" y="376"/>
      <point x="338" y="376" type="curve" smooth="yes"/>
      <point x="217" y="376"/>
      <point x="152" y="289"/>
      <point x="152" y="217" type="curve" smooth="yes"/>
      <point x="152" y="169"/>
      <point x="167" y="137"/>
      <point x="203" y="137" type="curve" smooth="yes"/>
      <point x="208" y="137"/>
      <point x="216" y="138"/>
      <point x="220" y="140" type="curve"/>
      <point x="213" y="160"/>
      <point x="210" y="179"/>
      <point x="210" y="197" type="curve" smooth="yes"/>
      <point x="210" y="261"/>
      <point x="245" y="316"/>
      <point x="327" y="316" type="curve" smooth="yes"/>
      <point x="392" y="316"/>
      <point x="438" y="271"/>
      <point x="438" y="199" type="curve" smooth="yes"/>
      <point x="438" y="118"/>
      <point x="402" y="66"/>
      <point x="368" y="39" type="curve"/>
    </contour>
  </outline>
</glyph>
<glyph name="jamlym" format="2">
  <advance width="967"/>
  <unicode hex="0D1C"/>
  <outline>
    <contour>
      <point x="214" y="-6" type="curve" smooth="yes"/>
      <point x="367" y="-6"/>
      <point x="524" y="56"/>
      <point x="641" y="117" type="curve"/>
      <point x="659" y="128" type="line"/>
      <point x="698" y="150"/>
      <point x="735" y="164"/>
      <point x="764" y="164" type="curve" smooth="yes"/>
      <point x="810" y="164"/>
      <point x="831" y="138"/>
      <point x="831" y="104" type="curve" smooth="yes"/>
      <point x="831" y="70"/>
      <point x="804" y="48"/>
      <point x="764" y="48" type="curve" smooth="yes"/>
      <point x="710" y="48"/>
      <point x="687" y="73"/>
      <point x="660" y="130" type="curve"/>
      <point x="613" y="108" type="line"/>
      <point x="635" y="48"/>
      <point x="680" y="-9"/>
      <point x="774" y="-9" type="curve" smooth="yes"/>
      <point x="867" y="-9"/>
      <point x="913" y="40"/>
      <point x="913" y="101" type="curve" smooth="yes"/>
      <point x="913" y="149"/>
      <point x="878" y="200"/>
      <point x="790" y="200" type="curve" smooth="yes"/>
      <point x="754" y="200"/>
      <point x="736" y="195"/>
      <point x="703" y="184" type="curve"/>
      <point x="673" y="180"/>
      <point x="654" y="173"/>
      <point x="640" y="167" type="curve" smooth="yes"/>
      <point x="460" y="88"/>
      <point x="343" y="50"/>
      <point x="230" y="50" type="curve" smooth="yes"/>
      <point x="160" y="50"/>
      <point x="124" y="64"/>
      <point x="124" y="102" type="curve" smooth="yes"/>
      <point x="124" y="138"/>
      <point x="150" y="154"/>
      <point x="192" y="154" type="curve" smooth="yes"/>
      <point x="468" y="154" type="line" smooth="yes"/>
      <point x="559" y="154"/>
      <point x="623" y="160"/>
      <point x="654" y="166" type="curve" smooth="yes"/>
      <point x="700" y="175"/>
      <point x="746" y="185"/>
      <point x="785" y="196" type="curve"/>
      <point x="887" y="224"/>
      <point x="925" y="294"/>
      <point x="925" y="376" type="curve" smooth="yes"/>
      <point x="925" y="478"/>
      <point x="843" y="560"/>
      <point x="722" y="560" type="curve" smooth="yes"/>
      <point x="602" y="560"/>
      <point x="521" y="480"/>
      <point x="507" y="380" type="curve"/>
      <point x="565" y="398" type="line"/>
      <point x="510" y="524"/>
      <point x="408" y="560"/>
      <point x="300" y="560" type="curve" smooth="yes"/>
      <point x="117" y="560"/>
      <point x="48" y="461"/>
      <point x="48" y="373" type="curve" smooth="yes"/>
      <point x="48" y="284"/>
      <point x="110" y="226"/>
      <point x="211" y="226" type="curve" smooth="yes"/>
      <point x="322" y="226"/>
      <point x="365" y="277"/>
      <point x="365" y="339" type="curve" smooth="yes"/>
      <point x="365" y="391"/>
      <point x="325" y="453"/>
      <point x="233" y="453" type="curve" smooth="yes"/>
      <point x="163" y="453"/>
      <point x="117" y="417"/>
      <point x="79" y="353" type="curve"/>
      <point x="98" y="312" type="line"/>
      <point x="123" y="364"/>
      <point x="157" y="397"/>
      <point x="211" y="397" type="curve" smooth="yes"/>
      <point x="262" y="397"/>
      <point x="283" y="368"/>
      <point x="283" y="339" type="curve" smooth="yes"/>
      <point x="283" y="304"/>
      <point x="261" y="280"/>
      <point x="201" y="280" type="curve" smooth="yes"/>
      <point x="125" y="280"/>
      <point x="99" y="319"/>
      <point x="99" y="372" type="curve" smooth="yes"/>
      <point x="99" y="432"/>
      <point x="138" y="502"/>
      <point x="279" y="502" type="curve" smooth="yes"/>
      <point x="383" y="502"/>
      <point x="474" y="462"/>
      <point x="474" y="336" type="curve" smooth="yes"/>
      <point x="474" y="244" type="line"/>
      <point x="569" y="244" type="line"/>
      <point x="569" y="347" type="line" smooth="yes"/>
      <point x="569" y="466"/>
      <point x="635" y="500"/>
      <point x="700" y="500" type="curve" smooth="yes"/>
      <point x="774" y="500"/>
      <point x="827" y="451"/>
      <point x="827" y="367" type="curve" smooth="yes"/>
      <point x="827" y="303"/>
      <point x="810" y="261"/>
      <point x="764" y="234" type="curve" smooth="yes"/>
      <point x="732" y="215"/>
      <point x="679" y="206"/>
      <point x="591" y="206" type="curve" smooth="yes"/>
      <point x="192" y="206" type="line" smooth="yes"/>
      <point x="98" y="206"/>
      <point x="42" y="173"/>
      <point x="42" y="105" type="curve" smooth="yes"/>
      <point x="42" y="29"/>
      <point x="93" y="-6"/>
    </contour>
  </outline>
</glyph>
<glyph name="jhamlym" format="2">
  <advance width="1564"/>
  <unicode hex="0D1D"/>
  <outline>
    <contour>
      <point x="201" y="-6" type="curve" smooth="yes"/>
      <point x="215" y="-6"/>
      <point x="230" y="0"/>
      <point x="238" y="11" type="curve"/>
      <point x="159" y="61"/>
      <point x="101" y="136"/>
      <point x="101" y="254" type="curve" smooth="yes"/>
      <point x="101" y="397"/>
      <point x="193" y="500"/>
      <point x="323" y="500" type="curve" smooth="yes"/>
      <point x="473" y="500"/>
      <point x="550" y="371"/>
      <point x="550" y="219" type="curve" smooth="yes"/>
      <point x="550" y="101"/>
      <point x="497" y="54"/>
      <point x="435" y="54" type="curve" smooth="yes"/>
      <point x="369" y="54"/>
      <point x="324" y="113"/>
      <point x="324" y="208" type="curve" smooth="yes"/>
      <point x="324" y="406"/>
      <point x="458" y="500"/>
      <point x="581" y="500" type="curve" smooth="yes"/>
      <point x="632" y="500"/>
      <point x="669" y="488"/>
      <point x="704" y="456" type="curve" smooth="yes"/>
      <point x="736" y="426"/>
      <point x="758" y="377"/>
      <point x="758" y="278" type="curve" smooth="yes"/>
      <point x="758" y="233" type="line" smooth="yes"/>
      <point x="758" y="65"/>
      <point x="840" y="-6"/>
      <point x="948" y="-6" type="curve" smooth="yes"/>
      <point x="1026" y="-6"/>
      <point x="1099" y="37"/>
      <point x="1135" y="141" type="curve"/>
      <point x="1093" y="146" type="line"/>
      <point x="1118" y="57"/>
      <point x="1185" y="-6"/>
      <point x="1290" y="-6" type="curve" smooth="yes"/>
      <point x="1436" y="-6"/>
      <point x="1522" y="126"/>
      <point x="1522" y="275" type="curve" smooth="yes"/>
      <point x="1522" y="449"/>
      <point x="1422" y="560"/>
      <point x="1362" y="560" type="curve" smooth="yes"/>
      <point x="1348" y="560"/>
      <point x="1334" y="554"/>
      <point x="1325" y="543" type="curve"/>
      <point x="1405" y="483"/>
      <point x="1463" y="409"/>
      <point x="1463" y="271" type="curve" smooth="yes"/>
      <point x="1463" y="160"/>
      <point x="1408" y="54"/>
      <point x="1299" y="54" type="curve" smooth="yes"/>
      <point x="1224" y="54"/>
      <point x="1174" y="111"/>
      <point x="1174" y="200" type="curve" smooth="yes"/>
      <point x="1174" y="554" type="line"/>
      <point x="1079" y="554" type="line"/>
      <point x="1079" y="199" type="line" smooth="yes"/>
      <point x="1079" y="97"/>
      <point x="1017" y="54"/>
      <point x="963" y="54" type="curve" smooth="yes"/>
      <point x="892" y="54"/>
      <point x="855" y="100"/>
      <point x="855" y="222" type="curve" smooth="yes"/>
      <point x="855" y="287" type="line" smooth="yes"/>
      <point x="855" y="405"/>
      <point x="820" y="470"/>
      <point x="761" y="513" type="curve" smooth="yes"/>
      <point x="718" y="544"/>
      <point x="664" y="560"/>
      <point x="596" y="560" type="curve" smooth="yes"/>
      <point x="440" y="560"/>
      <point x="265" y="441"/>
      <point x="265" y="214" type="curve" smooth="yes"/>
      <point x="265" y="85"/>
      <point x="329" y="-6"/>
      <point x="445" y="-6" type="curve" smooth="yes"/>
      <point x="573" y="-6"/>
      <point x="643" y="106"/>
      <point x="643" y="235" type="curve" smooth="yes"/>
      <point x="643" y="407"/>
      <point x="513" y="560"/>
      <point x="329" y="560" type="curve" smooth="yes"/>
      <point x="169" y="560"/>
      <point x="42" y="443"/>
      <point x="42" y="256" type="curve" smooth="yes"/>
      <point x="42" y="92"/>
      <point x="137" y="-6"/>
    </contour>
  </outline>
</glyph>
<glyph name="ttamlym" format="2">
  <advance width="562"/>
  <unicode hex="0D1F"/>
  <outline>
    <contour>
      <point x="279" y="-6" type="curve" smooth="yes"/>
      <point x="427" y="-6"/>
      <point x="528" y="41"/>
      <point x="528" y="154" type="curve" smooth="yes"/>
      <point x="528" y="263"/>
      <point x="443" y="315"/>
      <point x="290" y="323" type="curve" smooth="yes"/>
      <point x="160" y="330"/>
      <point x="123" y="364"/>
      <point x="123" y="413" type="curve" smooth="yes"/>
      <point x="123" y="465"/>
      <point x="163" y="503"/>
      <point x="281" y="503" type="curve" smooth="yes"/>
      <point x="373" y="503"/>
      <point x="444" y="475"/>
      <point x="495" y="447" type="curve"/>
      <point x="500" y="455"/>
      <point x="504" y="464"/>
      <point x="504" y="475" type="curve" smooth="yes"/>
      <point x="504" y="521"/>
      <point x="403" y="560"/>
      <point x="272" y="560" type="curve" smooth="yes"/>
      <point x="153" y="560"/>
      <point x="41" y="513"/>
      <point x="41" y="399" type="curve" smooth="yes"/>
      <point x="41" y="295"/>
      <point x="133" y="252"/>
      <point x="275" y="244" type="curve" smooth="yes"/>
      <point x="402" y="237"/>
      <point x="444" y="201"/>
      <point x="444" y="144" type="curve" smooth="yes"/>
      <point x="444" y="75"/>
      <point x="380" y="51"/>
      <point x="278" y="51" type="curve" smooth="yes"/>
      <point x="170" y="51"/>
      <point x="77" y="95"/>
      <point x="43" y="118" type="curve"/>
      <point x="37" y="112"/>
      <point x="33" y="97"/>
      <point x="33" y="91" type="curve" smooth="yes"/>
      <point x="33" y="42"/>
      <point x="142" y="-6"/>
    </contour>
  </outline>
</glyph>
<glyph name="tthamlym" format="2">
  <advance width="652"/>
  <unicode hex="0D20"/>
  <outline>
    <contour>
      <point x="323" y="-6" type="curve" smooth="yes"/>
      <point x="476" y="-6"/>
      <point x="611" y="99"/>
      <point x="611" y="277" type="curve" smooth="yes"/>
      <point x="611" y="455"/>
      <point x="472" y="560"/>
      <point x="323" y="560" type="curve" smooth="yes"/>
      <point x="169" y="560"/>
      <point x="41" y="455"/>
      <point x="41" y="277" type="curve" smooth="yes"/>
      <point x="41" y="99"/>
      <point x="166" y="-6"/>
    </contour>
    <contour>
      <point x="309" y="54" type="curve" smooth="yes"/>
      <point x="200" y="54"/>
      <point x="100" y="130"/>
      <point x="100" y="277" type="curve" smooth="yes"/>
      <point x="100" y="423"/>
      <point x="200" y="500"/>
      <point x="309" y="500" type="curve" smooth="yes"/>
      <point x="416" y="500"/>
      <point x="512" y="428"/>
      <point x="512" y="277" type="curve" smooth="yes"/>
      <point x="512" y="125"/>
      <point x="416" y="54"/>
    </contour>
  </outline>
</glyph>
<glyph name="ddamlym" format="2">
  <advance width="1182"/>
  <unicode hex="0D21"/>
  <outline>
    <contour>
      <point x="202" y="-6" type="curve" smooth="yes"/>
      <point x="216" y="-6"/>
      <point x="229" y="-1"/>
      <point x="239" y="11" type="curve"/>
      <point x="160" y="70"/>
      <point x="101" y="145"/>
      <point x="101" y="283" type="curve" smooth="yes"/>
      <point x="101" y="416"/>
      <point x="148" y="499"/>
      <point x="248" y="499" type="curve" smooth="yes"/>
      <point x="327" y="499"/>
      <point x="374" y="460"/>
      <point x="374" y="329" type="curve" smooth="yes"/>
      <point x="374" y="233" type="line" smooth="yes"/>
      <point x="374" y="65"/>
      <point x="458" y="-6"/>
      <point x="566" y="-6" type="curve" smooth="yes"/>
      <point x="644" y="-6"/>
      <point x="717" y="37"/>
      <point x="753" y="141" type="curve"/>
      <point x="711" y="146" type="line"/>
      <point x="736" y="57"/>
      <point x="802" y="-6"/>
      <point x="911" y="-6" type="curve" smooth="yes"/>
      <point x="1056" y="-6"/>
      <point x="1140" y="126"/>
      <point x="1140" y="275" type="curve" smooth="yes"/>
      <point x="1140" y="449"/>
      <point x="1040" y="560"/>
      <point x="980" y="560" type="curve" smooth="yes"/>
      <point x="966" y="560"/>
      <point x="952" y="555"/>
      <point x="943" y="543" type="curve"/>
      <point x="1023" y="483"/>
      <point x="1081" y="409"/>
      <point x="1081" y="271" type="curve" smooth="yes"/>
      <point x="1081" y="160"/>
      <point x="1025" y="54"/>
      <point x="917" y="54" type="curve" smooth="yes"/>
      <point x="842" y="54"/>
      <point x="792" y="111"/>
      <point x="792" y="200" type="curve" smooth="yes"/>
      <point x="792" y="554" type="line"/>
      <point x="697" y="554" type="line"/>
      <point x="697" y="199" type="line" smooth="yes"/>
      <point x="697" y="97"/>
      <point x="635" y="54"/>
      <point x="581" y="54" type="curve" smooth="yes"/>
      <point x="510" y="54"/>
      <point x="473" y="100"/>
      <point x="473" y="222" type="curve" smooth="yes"/>
      <point x="473" y="314" type="line" smooth="yes"/>
      <point x="473" y="474"/>
      <point x="400" y="560"/>
      <point x="258" y="560" type="curve" smooth="yes"/>
      <point x="126" y="560"/>
      <point x="42" y="459"/>
      <point x="42" y="279" type="curve" smooth="yes"/>
      <point x="42" y="106"/>
      <point x="142" y="-6"/>
    </contour>
  </outline>
</glyph>
<glyph name="ddhamlym" format="2">
  <advance width="1316"/>
  <unicode hex="0D22"/>
  <outline>
    <contour>
      <point x="202" y="-6" type="curve" smooth="yes"/>
      <point x="216" y="-6"/>
      <point x="229" y="-1"/>
      <point x="239" y="11" type="curve"/>
      <point x="160" y="70"/>
      <point x="101" y="145"/>
      <point x="101" y="283" type="curve" smooth="yes"/>
      <point x="101" y="416"/>
      <point x="148" y="499"/>
      <point x="248" y="499" type="curve" smooth="yes"/>
      <point x="327" y="499"/>
      <point x="374" y="460"/>
      <point x="374" y="329" type="curve" smooth="yes"/>
      <point x="374" y="233" type="line" smooth="yes"/>
      <point x="374" y="65"/>
      <point x="458" y="-6"/>
      <point x="566" y="-6" type="curve" smooth="yes"/>
      <point x="644" y="-6"/>
      <point x="717" y="37"/>
      <point x="753" y="141" type="curve"/>
      <point x="782" y="200" type="line"/>
      <point x="782" y="554" type="line"/>
      <point x="697" y="554" type="line"/>
      <point x="697" y="199" type="line" smooth="yes"/>
      <point x="697" y="97"/>
      <point x="635" y="54"/>
      <point x="581" y="54" type="curve" smooth="yes"/>
      <point x="510" y="54"/>
      <point x="473" y="100"/>
      <point x="473" y="222" type="curve" smooth="yes"/>
      <point x="473" y="314" type="line" smooth="yes"/>
      <point x="473" y="474"/>
      <point x="400" y="560"/>
      <point x="258" y="560" type="curve" smooth="yes"/>
      <point x="126" y="560"/>
      <point x="42" y="459"/>
      <point x="42" y="279" type="curve" smooth="yes"/>
      <point x="42" y="106"/>
      <point x="142" y="-6"/>
    </contour>
    <contour>
      <point x="1064" y="560" type="curve" smooth="yes"/>
      <point x="954" y="560"/>
      <point x="890" y="489"/>
      <point x="890" y="394" type="curve" smooth="yes"/>
      <point x="890" y="302"/>
      <point x="952" y="232"/>
      <point x="1053" y="232" type="curve" smooth="yes"/>
      <point x="1127" y="232"/>
      <point x="1186" y="275"/>
      <point x="1222" y="341" type="curve"/>
      <point x="1213" y="402" type="line"/>
      <point x="1182" y="342"/>
      <point x="1141" y="293"/>
      <point x="1077" y="293" type="curve" smooth="yes"/>
      <point x="1024" y="293"/>
      <point x="981" y="329"/>
      <point x="981" y="395" type="curve" smooth="yes"/>
      <point x="981" y="454"/>
      <point x="1014" y="500"/>
      <point x="1078" y="500" type="curve" smooth="yes"/>
      <point x="1143" y="500"/>
      <point x="1219" y="438"/>
      <point x="1219" y="304" type="curve" smooth="yes"/>
      <point x="1219" y="137"/>
      <point x="1112" y="54"/>
      <point x="981" y="54" type="curve" smooth="yes"/>
      <point x="873" y="54"/>
      <point x="792" y="116"/>
      <point x="792" y="247" type="curve" smooth="yes"/>
      <point x="792" y="554" type="line"/>
      <point x="707" y="554" type="line"/>
      <point x="707" y="193" type="line"/>
      <point x="721" y="128" type="line"/>
      <point x="777" y="24"/>
      <point x="877" y="-6"/>
      <point x="970" y="-6" type="curve" smooth="yes"/>
      <point x="1135" y="-6"/>
      <point x="1274" y="97"/>
      <point x="1274" y="303" type="curve" smooth="yes"/>
      <point x="1274" y="436"/>
      <point x="1205" y="560"/>
    </contour>
  </outline>
</glyph>
<glyph name="nnamlym" format="2">
  <advance width="1375"/>
  <unicode hex="0D23"/>
  <outline>
    <contour>
      <point x="252" y="-6" type="curve" smooth="yes"/>
      <point x="359" y="-6"/>
      <point x="422" y="64"/>
      <point x="422" y="159" type="curve" smooth="yes"/>
      <point x="422" y="252"/>
      <point x="356" y="322"/>
      <point x="259" y="322" type="curve" smooth="yes"/>
      <point x="185" y="322"/>
      <point x="127" y="276"/>
      <point x="90" y="213" type="curve"/>
      <point x="99" y="152" type="line"/>
      <point x="128" y="209"/>
      <point x="175" y="261"/>
      <point x="235" y="261" type="curve" smooth="yes"/>
      <point x="288" y="261"/>
      <point x="331" y="225"/>
      <point x="331" y="159" type="curve" smooth="yes"/>
      <point x="331" y="100"/>
      <point x="298" y="54"/>
      <point x="234" y="54" type="curve" smooth="yes"/>
      <point x="173" y="54"/>
      <point x="97" y="116"/>
      <point x="97" y="250" type="curve" smooth="yes"/>
      <point x="97" y="417"/>
      <point x="213" y="500"/>
      <point x="329" y="500" type="curve" smooth="yes"/>
      <point x="445" y="500"/>
      <point x="524" y="428"/>
      <point x="524" y="292" type="curve" smooth="yes"/>
      <point x="524" y="0" type="line"/>
      <point x="619" y="0" type="line"/>
      <point x="619" y="361" type="line" smooth="yes"/>
      <point x="619" y="451"/>
      <point x="662" y="500"/>
      <point x="739" y="500" type="curve" smooth="yes"/>
      <point x="821" y="500"/>
      <point x="856" y="445"/>
      <point x="856" y="363" type="curve" smooth="yes"/>
      <point x="856" y="0" type="line"/>
      <point x="951" y="0" type="line"/>
      <point x="951" y="355" type="line" smooth="yes"/>
      <point x="951" y="436"/>
      <point x="1002" y="500"/>
      <point x="1083" y="500" type="curve" smooth="yes"/>
      <point x="1164" y="500"/>
      <point x="1235" y="425"/>
      <point x="1235" y="263" type="curve" smooth="yes"/>
      <point x="1235" y="162"/>
      <point x="1194" y="55"/>
      <point x="1118" y="0" type="curve"/>
      <point x="1126" y="-4"/>
      <point x="1140" y="-8"/>
      <point x="1158" y="-8" type="curve" smooth="yes"/>
      <point x="1232" y="-8"/>
      <point x="1333" y="88"/>
      <point x="1333" y="265" type="curve" smooth="yes"/>
      <point x="1333" y="461"/>
      <point x="1225" y="560"/>
      <point x="1095" y="560" type="curve" smooth="yes"/>
      <point x="1021" y="560"/>
      <point x="952" y="527"/>
      <point x="913" y="448" type="curve"/>
      <point x="937" y="446" type="line"/>
      <point x="901" y="516"/>
      <point x="834" y="560"/>
      <point x="749" y="560" type="curve" smooth="yes"/>
      <point x="664" y="560"/>
      <point x="602" y="519"/>
      <point x="568" y="444" type="curve"/>
      <point x="581" y="442" type="line"/>
      <point x="526" y="528"/>
      <point x="428" y="560"/>
      <point x="341" y="560" type="curve" smooth="yes"/>
      <point x="190" y="560"/>
      <point x="42" y="457"/>
      <point x="42" y="251" type="curve" smooth="yes"/>
      <point x="42" y="123"/>
      <point x="111" y="-6"/>
    </contour>
  </outline>
</glyph>
<glyph name="tamlym" format="2">
  <advance width="947"/>
  <unicode hex="0D24"/>
  <outline>
    <contour>
      <point x="201" y="-6" type="curve" smooth="yes"/>
      <point x="215" y="-6"/>
      <point x="230" y="0"/>
      <point x="238" y="11" type="curve"/>
      <point x="159" y="61"/>
      <point x="101" y="136"/>
      <point x="101" y="254" type="curve" smooth="yes"/>
      <point x="101" y="397"/>
      <point x="193" y="500"/>
      <point x="325" y="500" type="curve" smooth="yes"/>
      <point x="473" y="500"/>
      <point x="550" y="372"/>
      <point x="550" y="219" type="curve" smooth="yes"/>
      <point x="550" y="101"/>
      <point x="497" y="54"/>
      <point x="435" y="54" type="curve" smooth="yes"/>
      <point x="369" y="54"/>
      <point x="324" y="113"/>
      <point x="324" y="208" type="curve" smooth="yes"/>
      <point x="324" y="406"/>
      <point x="455" y="500"/>
      <point x="588" y="500" type="curve" smooth="yes"/>
      <point x="697" y="500"/>
      <point x="806" y="419"/>
      <point x="806" y="254" type="curve" smooth="yes"/>
      <point x="806" y="155"/>
      <point x="763" y="53"/>
      <point x="690" y="0" type="curve"/>
      <point x="697" y="-4"/>
      <point x="712" y="-8"/>
      <point x="729" y="-8" type="curve" smooth="yes"/>
      <point x="804" y="-8"/>
      <point x="905" y="84"/>
      <point x="905" y="255" type="curve" smooth="yes"/>
      <point x="905" y="459"/>
      <point x="762" y="560"/>
      <point x="606" y="560" type="curve" smooth="yes"/>
      <point x="436" y="560"/>
      <point x="265" y="441"/>
      <point x="265" y="214" type="curve" smooth="yes"/>
      <point x="265" y="85"/>
      <point x="329" y="-6"/>
      <point x="445" y="-6" type="curve" smooth="yes"/>
      <point x="573" y="-6"/>
      <point x="643" y="106"/>
      <point x="643" y="235" type="curve" smooth="yes"/>
      <point x="643" y="407"/>
      <point x="513" y="560"/>
      <point x="329" y="560" type="curve" smooth="yes"/>
      <point x="169" y="560"/>
      <point x="42" y="443"/>
      <point x="42" y="256" type="curve" smooth="yes"/>
      <point x="42" y="92"/>
      <point x="137" y="-6"/>
    </contour>
  </outline>
</glyph>
<glyph name="thamlym" format="2">
  <advance width="897"/>
  <unicode hex="0D25"/>
  <outline>
    <contour>
      <point x="72" y="0" type="line"/>
      <point x="832" y="0" type="line"/>
      <point x="832" y="294" type="line" smooth="yes"/>
      <point x="832" y="449"/>
      <point x="755" y="560"/>
      <point x="595" y="560" type="curve" smooth="yes"/>
      <point x="444" y="560"/>
      <point x="357" y="459"/>
      <point x="357" y="312" type="curve" smooth="yes"/>
      <point x="357" y="54" type="line"/>
      <point x="167" y="54" type="line"/>
      <point x="167" y="554" type="line"/>
      <point x="72" y="554" type="line"/>
    </contour>
    <contour>
      <point x="452" y="54" type="line"/>
      <point x="452" y="306" type="line" smooth="yes"/>
      <point x="452" y="426"/>
      <point x="505" y="500"/>
      <point x="613" y="500" type="curve" smooth="yes"/>
      <point x="727" y="500"/>
      <point x="773" y="413"/>
      <point x="773" y="286" type="curve" smooth="yes"/>
      <point x="773" y="54" type="line"/>
    </contour>
  </outline>
</glyph>
<glyph name="damlym" format="2">
  <advance width="617"/>
  <unicode hex="0D26"/>
  <outline>
    <contour>
      <point x="143" y="-9" type="curve" smooth="yes"/>
      <point x="150" y="-9"/>
      <point x="158" y="-7"/>
      <point x="164" y="-3" type="curve"/>
      <point x="127" y="68"/>
      <point x="105" y="127"/>
      <point x="105" y="233" type="curve" smooth="yes"/>
      <point x="105" y="357"/>
      <point x="168" y="500"/>
      <point x="339" y="500" type="curve" smooth="yes"/>
      <point x="414" y="500"/>
      <point x="473" y="464"/>
      <point x="473" y="397" type="curve" smooth="yes"/>
      <point x="473" y="339"/>
      <point x="426" y="303"/>
      <point x="354" y="303" type="curve" smooth="yes"/>
      <point x="296" y="303" type="line"/>
      <point x="296" y="253" type="line"/>
      <point x="359" y="253" type="line" smooth="yes"/>
      <point x="437" y="253"/>
      <point x="483" y="214"/>
      <point x="483" y="151" type="curve" smooth="yes"/>
      <point x="483" y="89"/>
      <point x="441" y="54"/>
      <point x="371" y="54" type="curve" smooth="yes"/>
      <point x="322" y="54"/>
      <point x="287" y="67"/>
      <point x="256" y="80" type="curve"/>
      <point x="253" y="74"/>
      <point x="252" y="68"/>
      <point x="252" y="62" type="curve" smooth="yes"/>
      <point x="252" y="29"/>
      <point x="293" y="-6"/>
      <point x="400" y="-6" type="curve" smooth="yes"/>
      <point x="511" y="-6"/>
      <point x="579" y="46"/>
      <point x="579" y="134" type="curve" smooth="yes"/>
      <point x="579" y="200"/>
      <point x="535" y="262"/>
      <point x="452" y="276" type="curve"/>
      <point x="452" y="280" type="line"/>
      <point x="533" y="297"/>
      <point x="568" y="350"/>
      <point x="568" y="402" type="curve" smooth="yes"/>
      <point x="568" y="495"/>
      <point x="484" y="560"/>
      <point x="351" y="560" type="curve" smooth="yes"/>
      <point x="139" y="560"/>
      <point x="46" y="397"/>
      <point x="46" y="233" type="curve" smooth="yes"/>
      <point x="46" y="60"/>
      <point x="105" y="-9"/>
    </contour>
  </outline>
</glyph>
<glyph name="dhamlym" format="2">
  <advance width="909"/>
  <unicode hex="0D27"/>
  <outline>
    <contour>
      <point x="281" y="-6" type="curve" smooth="yes"/>
      <point x="354" y="-6"/>
      <point x="429" y="22"/>
      <point x="480" y="141" type="curve"/>
      <point x="438" y="146" type="line"/>
      <point x="462" y="57"/>
      <point x="529" y="-6"/>
      <point x="638" y="-6" type="curve" smooth="yes"/>
      <point x="783" y="-6"/>
      <point x="867" y="125"/>
      <point x="867" y="275" type="curve" smooth="yes"/>
      <point x="867" y="448"/>
      <point x="767" y="560"/>
      <point x="707" y="560" type="curve" smooth="yes"/>
      <point x="693" y="560"/>
      <point x="679" y="555"/>
      <point x="670" y="543" type="curve"/>
      <point x="749" y="484"/>
      <point x="808" y="409"/>
      <point x="808" y="271" type="curve" smooth="yes"/>
      <point x="808" y="160"/>
      <point x="752" y="54"/>
      <point x="643" y="54" type="curve" smooth="yes"/>
      <point x="569" y="54"/>
      <point x="519" y="111"/>
      <point x="519" y="199" type="curve" smooth="yes"/>
      <point x="519" y="554" type="line"/>
      <point x="424" y="554" type="line"/>
      <point x="424" y="198" type="line" smooth="yes"/>
      <point x="424" y="118"/>
      <point x="373" y="54"/>
      <point x="292" y="54" type="curve" smooth="yes"/>
      <point x="211" y="54"/>
      <point x="140" y="129"/>
      <point x="140" y="291" type="curve" smooth="yes"/>
      <point x="140" y="392"/>
      <point x="181" y="499"/>
      <point x="257" y="554" type="curve"/>
      <point x="249" y="558"/>
      <point x="235" y="562"/>
      <point x="217" y="562" type="curve" smooth="yes"/>
      <point x="143" y="562"/>
      <point x="42" y="466"/>
      <point x="42" y="289" type="curve" smooth="yes"/>
      <point x="42" y="93"/>
      <point x="150" y="-6"/>
    </contour>
  </outline>
</glyph>
<glyph name="namlym" format="2">
  <advance width="909"/>
  <unicode hex="0D28"/>
  <outline>
    <contour>
      <point x="202" y="-6" type="curve" smooth="yes"/>
      <point x="216" y="-6"/>
      <point x="230" y="0"/>
      <point x="239" y="11" type="curve"/>
      <point x="159" y="71"/>
      <point x="101" y="145"/>
      <point x="101" y="283" type="curve" smooth="yes"/>
      <point x="101" y="394"/>
      <point x="156" y="500"/>
      <point x="265" y="500" type="curve" smooth="yes"/>
      <point x="340" y="500"/>
      <point x="390" y="443"/>
      <point x="390" y="354" type="curve" smooth="yes"/>
      <point x="390" y="0" type="line"/>
      <point x="485" y="0" type="line"/>
      <point x="485" y="355" type="line" smooth="yes"/>
      <point x="485" y="436"/>
      <point x="536" y="500"/>
      <point x="617" y="500" type="curve" smooth="yes"/>
      <point x="698" y="500"/>
      <point x="769" y="425"/>
      <point x="769" y="263" type="curve" smooth="yes"/>
      <point x="769" y="162"/>
      <point x="728" y="55"/>
      <point x="652" y="0" type="curve"/>
      <point x="659" y="-4"/>
      <point x="674" y="-8"/>
      <point x="692" y="-8" type="curve" smooth="yes"/>
      <point x="766" y="-8"/>
      <point x="867" y="88"/>
      <point x="867" y="265" type="curve" smooth="yes"/>
      <point x="867" y="461"/>
      <point x="758" y="560"/>
      <point x="629" y="560" type="curve" smooth="yes"/>
      <point x="555" y="560"/>
      <point x="480" y="532"/>
      <point x="429" y="413" type="curve"/>
      <point x="471" y="408" type="line"/>
      <point x="446" y="497"/>
      <point x="379" y="560"/>
      <point x="274" y="560" type="curve" smooth="yes"/>
      <point x="128" y="560"/>
      <point x="42" y="428"/>
      <point x="42" y="279" type="curve" smooth="yes"/>
      <point x="42" y="105"/>
      <point x="142" y="-6"/>
    </contour>
  </outline>
</glyph>
<glyph name="phamlym" format="2">
  <advance width="1122"/>
  <unicode hex="0D2B"/>
  <outline>
    <contour>
      <point x="148" y="-6" type="curve" smooth="yes"/>
      <point x="165" y="-6"/>
      <point x="172" y="0"/>
      <point x="180" y="14" type="curve"/>
      <point x="137" y="42"/>
      <point x="91" y="91"/>
      <point x="91" y="167" type="curve" smooth="yes"/>
      <point x="91" y="239"/>
      <point x="137" y="299"/>
      <point x="216" y="299" type="curve" smooth="yes"/>
      <point x="287" y="299"/>
      <point x="333" y="245"/>
      <point x="333" y="177" type="curve" smooth="yes"/>
      <point x="333" y="90"/>
      <point x="283" y="41"/>
      <point x="255" y="17" type="curve"/>
      <point x="265" y="0" type="line"/>
      <point x="771" y="0" type="line"/>
      <point x="771" y="54" type="line"/>
      <point x="367" y="54" type="line"/>
      <point x="406" y="88"/>
      <point x="424" y="137"/>
      <point x="424" y="182" type="curve" smooth="yes"/>
      <point x="424" y="292"/>
      <point x="334" y="359"/>
      <point x="228" y="359" type="curve" smooth="yes"/>
      <point x="118" y="359"/>
      <point x="34" y="283"/>
      <point x="34" y="167" type="curve" smooth="yes"/>
      <point x="34" y="68"/>
      <point x="98" y="-6"/>
    </contour>
    <contour>
      <point x="582" y="0" type="line"/>
      <point x="1057" y="0" type="line"/>
      <point x="1057" y="294" type="line" smooth="yes"/>
      <point x="1057" y="449"/>
      <point x="980" y="560"/>
      <point x="820" y="560" type="curve" smooth="yes"/>
      <point x="669" y="560"/>
      <point x="582" y="459"/>
      <point x="582" y="312" type="curve" smooth="yes"/>
    </contour>
    <contour>
      <point x="677" y="54" type="line"/>
      <point x="677" y="306" type="line" smooth="yes"/>
      <point x="677" y="426"/>
      <point x="730" y="500"/>
      <point x="838" y="500" type="curve" smooth="yes"/>
      <point x="952" y="500"/>
      <point x="998" y="413"/>
      <point x="998" y="286" type="curve" smooth="yes"/>
      <point x="998" y="54" type="line"/>
    </contour>
  </outline>
</glyph>
<glyph name="bamlym" format="2">
  <advance width="1342"/>
  <unicode hex="0D2C"/>
  <outline>
    <contour>
      <point x="252" y="-6" type="curve" smooth="yes"/>
      <point x="359" y="-6"/>
      <point x="422" y="64"/>
      <point x="422" y="159" type="curve" smooth="yes"/>
      <point x="422" y="252"/>
      <point x="356" y="322"/>
      <point x="259" y="322" type="curve" smooth="yes"/>
      <point x="185" y="322"/>
      <point x="127" y="276"/>
      <point x="90" y="213" type="curve"/>
      <point x="99" y="152" type="line"/>
      <point x="128" y="209"/>
      <point x="175" y="261"/>
      <point x="235" y="261" type="curve" smooth="yes"/>
      <point x="288" y="261"/>
      <point x="331" y="225"/>
      <point x="331" y="159" type="curve" smooth="yes"/>
      <point x="331" y="100"/>
      <point x="298" y="54"/>
      <point x="234" y="54" type="curve" smooth="yes"/>
      <point x="173" y="54"/>
      <point x="97" y="116"/>
      <point x="97" y="250" type="curve" smooth="yes"/>
      <point x="97" y="417"/>
      <point x="213" y="500"/>
      <point x="329" y="500" type="curve" smooth="yes"/>
      <point x="445" y="500"/>
      <point x="524" y="428"/>
      <point x="524" y="292" type="curve" smooth="yes"/>
      <point x="524" y="0" type="line"/>
      <point x="609" y="0" type="line"/>
      <point x="609" y="361" type="line"/>
      <point x="593" y="423" type="line"/>
      <point x="538" y="523"/>
      <point x="437" y="560"/>
      <point x="341" y="560" type="curve" smooth="yes"/>
      <point x="190" y="560"/>
      <point x="42" y="457"/>
      <point x="42" y="251" type="curve" smooth="yes"/>
      <point x="42" y="123"/>
      <point x="111" y="-6"/>
    </contour>
    <contour>
      <point x="763" y="560" type="curve" smooth="yes"/>
      <point x="689" y="560"/>
      <point x="614" y="532"/>
      <point x="563" y="413" type="curve"/>
      <point x="534" y="292" type="line"/>
      <point x="534" y="0" type="line"/>
      <point x="619" y="0" type="line"/>
      <point x="619" y="355" type="line" smooth="yes"/>
      <point x="619" y="436"/>
      <point x="670" y="500"/>
      <point x="751" y="500" type="curve" smooth="yes"/>
      <point x="832" y="500"/>
      <point x="903" y="425"/>
      <point x="903" y="265" type="curve" smooth="yes"/>
      <point x="903" y="166"/>
      <point x="870" y="86"/>
      <point x="823" y="28" type="curve"/>
      <point x="836" y="0" type="line"/>
      <point x="1270" y="0" type="line"/>
      <point x="1270" y="554" type="line"/>
      <point x="1174" y="554" type="line"/>
      <point x="1174" y="54" type="line"/>
      <point x="902" y="54" type="line"/>
      <point x="921" y="45" type="line"/>
      <point x="968" y="100"/>
      <point x="1001" y="179"/>
      <point x="1001" y="269" type="curve" smooth="yes"/>
      <point x="1001" y="461"/>
      <point x="892" y="560"/>
    </contour>
  </outline>
</glyph>
<glyph name="bhamlym" format="2">
  <advance width="629"/>
  <unicode hex="0D2D"/>
  <outline>
    <contour>
      <point x="143" y="-9" type="curve" smooth="yes"/>
      <point x="150" y="-9"/>
      <point x="158" y="-6"/>
      <point x="164" y="-2" type="curve"/>
      <point x="127" y="68"/>
      <point x="105" y="127"/>
      <point x="105" y="233" type="curve" smooth="yes"/>
      <point x="105" y="376"/>
      <point x="178" y="500"/>
      <point x="358" y="500" type="curve" smooth="yes"/>
      <point x="448" y="500"/>
      <point x="501" y="468"/>
      <point x="501" y="413" type="curve" smooth="yes"/>
      <point x="501" y="380"/>
      <point x="486" y="361"/>
      <point x="442" y="361" type="curve" smooth="yes"/>
      <point x="417" y="361"/>
      <point x="400" y="363"/>
      <point x="377" y="363" type="curve" smooth="yes"/>
      <point x="293" y="363"/>
      <point x="246" y="330"/>
      <point x="246" y="266" type="curve" smooth="yes"/>
      <point x="246" y="198"/>
      <point x="304" y="166"/>
      <point x="394" y="166" type="curve" smooth="yes"/>
      <point x="406" y="166" type="line" smooth="yes"/>
      <point x="462" y="166"/>
      <point x="495" y="150"/>
      <point x="495" y="111" type="curve" smooth="yes"/>
      <point x="495" y="70"/>
      <point x="468" y="50"/>
      <point x="394" y="50" type="curve" smooth="yes"/>
      <point x="334" y="50"/>
      <point x="287" y="69"/>
      <point x="251" y="89" type="curve"/>
      <point x="248" y="83"/>
      <point x="246" y="77"/>
      <point x="246" y="69" type="curve" smooth="yes"/>
      <point x="246" y="36"/>
      <point x="290" y="-6"/>
      <point x="402" y="-6" type="curve" smooth="yes"/>
      <point x="520" y="-6"/>
      <point x="586" y="40"/>
      <point x="586" y="113" type="curve" smooth="yes"/>
      <point x="586" y="181"/>
      <point x="534" y="217"/>
      <point x="443" y="217" type="curve" smooth="yes"/>
      <point x="424" y="217" type="line" smooth="yes"/>
      <point x="372" y="217"/>
      <point x="337" y="231"/>
      <point x="337" y="270" type="curve" smooth="yes"/>
      <point x="337" y="303"/>
      <point x="363" y="316"/>
      <point x="407" y="316" type="curve" smooth="yes"/>
      <point x="431" y="316"/>
      <point x="458" y="314"/>
      <point x="483" y="314" type="curve" smooth="yes"/>
      <point x="564" y="314"/>
      <point x="594" y="358"/>
      <point x="594" y="414" type="curve" smooth="yes"/>
      <point x="594" y="496"/>
      <point x="512" y="560"/>
      <point x="367" y="560" type="curve" smooth="yes"/>
      <point x="143" y="560"/>
      <point x="46" y="407"/>
      <point x="46" y="233" type="curve" smooth="yes"/>
      <point x="46" y="60"/>
      <point x="105" y="-9"/>
    </contour>
  </outline>
</glyph>
<glyph name="mamlym" format="2">
  <advance width="686"/>
  <unicode hex="0D2E"/>
  <outline>
    <contour>
      <point x="64" y="0" type="line"/>
      <point x="622" y="0" type="line"/>
      <point x="622" y="303" type="line" smooth="yes"/>
      <point x="622" y="469"/>
      <point x="502" y="560"/>
      <point x="347" y="560" type="curve" smooth="yes"/>
      <point x="196" y="560"/>
      <point x="64" y="480"/>
      <point x="64" y="296" type="curve" smooth="yes"/>
    </contour>
    <contour>
      <point x="156" y="25" type="line"/>
      <point x="361" y="110"/>
      <point x="443" y="224"/>
      <point x="443" y="331" type="curve" smooth="yes"/>
      <point x="443" y="429"/>
      <point x="375" y="494"/>
      <point x="266" y="494" type="curve" smooth="yes"/>
      <point x="229" y="494"/>
      <point x="193" y="482"/>
      <point x="162" y="466" type="curve"/>
      <point x="173" y="461" type="line"/>
      <point x="203" y="486"/>
      <point x="252" y="505"/>
      <point x="329" y="505" type="curve" smooth="yes"/>
      <point x="457" y="505"/>
      <point x="536" y="443"/>
      <point x="536" y="298" type="curve" smooth="yes"/>
      <point x="536" y="54" type="line"/>
      <point x="123" y="54" type="line"/>
      <point x="123" y="291" type="line" smooth="yes"/>
      <point x="123" y="418"/>
      <point x="176" y="457"/>
      <point x="240" y="457" type="curve" smooth="yes"/>
      <point x="315" y="457"/>
      <point x="344" y="403"/>
      <point x="344" y="340" type="curve" smooth="yes"/>
      <point x="344" y="229"/>
      <point x="249" y="127"/>
      <point x="123" y="54" type="curve"/>
    </contour>
  </outline>
</glyph>
<glyph name="yamlym" format="2">
  <advance width="977"/>
  <unicode hex="0D2F"/>
  <outline>
    <contour>
      <point x="337" y="-6" type="curve" smooth="yes"/>
      <point x="544" y="-6"/>
      <point x="673" y="147"/>
      <point x="673" y="322" type="curve" smooth="yes"/>
      <point x="673" y="491"/>
      <point x="567" y="560"/>
      <point x="472" y="560" type="curve" smooth="yes"/>
      <point x="368" y="560"/>
      <point x="278" y="486"/>
      <point x="278" y="344" type="curve" smooth="yes"/>
      <point x="278" y="122"/>
      <point x="439" y="-6"/>
      <point x="633" y="-6" type="curve" smooth="yes"/>
      <point x="803" y="-6"/>
      <point x="935" y="105"/>
      <point x="935" y="300" type="curve" smooth="yes"/>
      <point x="935" y="456"/>
      <point x="848" y="560"/>
      <point x="763" y="560" type="curve" smooth="yes"/>
      <point x="752" y="560"/>
      <point x="737" y="557"/>
      <point x="727" y="551" type="curve"/>
      <point x="792" y="496"/>
      <point x="836" y="414"/>
      <point x="836" y="302" type="curve" smooth="yes"/>
      <point x="836" y="133"/>
      <point x="731" y="54"/>
      <point x="613" y="54" type="curve" smooth="yes"/>
      <point x="448" y="54"/>
      <point x="337" y="172"/>
      <point x="337" y="344" type="curve" smooth="yes"/>
      <point x="337" y="450"/>
      <point x="395" y="500"/>
      <point x="457" y="500" type="curve" smooth="yes"/>
      <point x="521" y="500"/>
      <point x="580" y="451"/>
      <point x="580" y="330" type="curve" smooth="yes"/>
      <point x="580" y="206"/>
      <point x="513" y="54"/>
      <point x="340" y="54" type="curve" smooth="yes"/>
      <point x="185" y="54"/>
      <point x="101" y="172"/>
      <point x="101" y="315" type="curve" smooth="yes"/>
      <point x="101" y="417"/>
      <point x="148" y="500"/>
      <point x="252" y="500" type="curve" smooth="yes"/>
      <point x="292" y="500"/>
      <point x="326" y="487"/>
      <point x="354" y="456" type="curve"/>
      <point x="390" y="514" type="line"/>
      <point x="351" y="544"/>
      <point x="313" y="560"/>
      <point x="255" y="560" type="curve" smooth="yes"/>
      <point x="123" y="560"/>
      <point x="42" y="460"/>
      <point x="42" y="314" type="curve" smooth="yes"/>
      <point x="42" y="133"/>
      <point x="155" y="-6"/>
    </contour>
  </outline>
</glyph>
<glyph name="ramlym" format="2">
  <advance width="685"/>
  <unicode hex="0D30"/>
  <outline>
    <contour>
      <point x="201" y="-6" type="curve" smooth="yes"/>
      <point x="215" y="-6"/>
      <point x="230" y="0"/>
      <point x="238" y="11" type="curve"/>
      <point x="159" y="61"/>
      <point x="101" y="145"/>
      <point x="101" y="254" type="curve" smooth="yes"/>
      <point x="101" y="402"/>
      <point x="194" y="498"/>
      <point x="328" y="498" type="curve" smooth="yes"/>
      <point x="475" y="498"/>
      <point x="546" y="364"/>
      <point x="546" y="232" type="curve" smooth="yes"/>
      <point x="546" y="95"/>
      <point x="496" y="54"/>
      <point x="434" y="54" type="curve" smooth="yes"/>
      <point x="368" y="54"/>
      <point x="323" y="105"/>
      <point x="323" y="199" type="curve" smooth="yes"/>
      <point x="323" y="307"/>
      <point x="373" y="412"/>
      <point x="461" y="484" type="curve"/>
      <point x="428" y="523" type="line"/>
      <point x="328" y="439"/>
      <point x="265" y="334"/>
      <point x="265" y="204" type="curve" smooth="yes"/>
      <point x="265" y="80"/>
      <point x="328" y="-6"/>
      <point x="444" y="-6" type="curve" smooth="yes"/>
      <point x="572" y="-6"/>
      <point x="643" y="106"/>
      <point x="643" y="234" type="curve" smooth="yes"/>
      <point x="643" y="420"/>
      <point x="526" y="560"/>
      <point x="336" y="560" type="curve" smooth="yes"/>
      <point x="181" y="560"/>
      <point x="42" y="450"/>
      <point x="42" y="256" type="curve" smooth="yes"/>
      <point x="42" y="104"/>
      <point x="137" y="-6"/>
    </contour>
  </outline>
</glyph>
<glyph name="rramlym" format="2">
  <advance width="653"/>
  <unicode hex="0D31"/>
  <outline>
    <contour>
      <point x="199" y="-6" type="curve" smooth="yes"/>
      <point x="213" y="-6"/>
      <point x="228" y="0"/>
      <point x="235" y="11" type="curve"/>
      <point x="158" y="63"/>
      <point x="101" y="146"/>
      <point x="101" y="263" type="curve" smooth="yes"/>
      <point x="101" y="421"/>
      <point x="200" y="496"/>
      <point x="310" y="496" type="curve" smooth="yes"/>
      <point x="425" y="496"/>
      <point x="513" y="405"/>
      <point x="513" y="259" type="curve" smooth="yes"/>
      <point x="513" y="152"/>
      <point x="468" y="56"/>
      <point x="391" y="2" type="curve"/>
      <point x="399" y="-2"/>
      <point x="413" y="-6"/>
      <point x="431" y="-6" type="curve" smooth="yes"/>
      <point x="507" y="-6"/>
      <point x="611" y="86"/>
      <point x="611" y="255" type="curve" smooth="yes"/>
      <point x="611" y="432"/>
      <point x="493" y="560"/>
      <point x="321" y="560" type="curve" smooth="yes"/>
      <point x="175" y="560"/>
      <point x="42" y="454"/>
      <point x="42" y="263" type="curve" smooth="yes"/>
      <point x="42" y="107"/>
      <point x="136" y="-6"/>
    </contour>
  </outline>
</glyph>
<glyph name="lamlym" format="2">
  <advance width="827"/>
  <unicode hex="0D32"/>
  <outline>
    <contour>
      <point x="66" y="0" type="line"/>
      <point x="755" y="0" type="line"/>
      <point x="755" y="554" type="line"/>
      <point x="660" y="554" type="line"/>
      <point x="660" y="54" type="line"/>
      <point x="160" y="54" type="line"/>
      <point x="160" y="340" type="line" smooth="yes"/>
      <point x="160" y="456"/>
      <point x="219" y="500"/>
      <point x="301" y="500" type="curve" smooth="yes"/>
      <point x="395" y="500"/>
      <point x="434" y="438"/>
      <point x="434" y="338" type="curve" smooth="yes"/>
      <point x="434" y="274" type="line"/>
      <point x="123" y="274" type="line"/>
      <point x="123" y="221" type="line"/>
      <point x="493" y="221" type="line"/>
      <point x="493" y="328" type="line" smooth="yes"/>
      <point x="493" y="487"/>
      <point x="414" y="560"/>
      <point x="285" y="560" type="curve" smooth="yes"/>
      <point x="172" y="560"/>
      <point x="66" y="493"/>
      <point x="66" y="328" type="curve" smooth="yes"/>
    </contour>
  </outline>
</glyph>
<glyph name="llamlym" format="2">
  <advance width="695"/>
  <unicode hex="0D33"/>
  <outline>
    <contour>
      <point x="230" y="-197" type="curve" smooth="yes"/>
      <point x="645" y="-197" type="line"/>
      <point x="645" y="-121" type="line"/>
      <point x="222" y="-121" type="line" smooth="yes"/>
      <point x="148" y="-121"/>
      <point x="125" y="-95"/>
      <point x="125" y="-61" type="curve" smooth="yes"/>
      <point x="125" y="-24"/>
      <point x="146" y="0"/>
      <point x="220" y="0" type="curve" smooth="yes"/>
      <point x="446" y="0" type="line" smooth="yes"/>
      <point x="579" y="0"/>
      <point x="657" y="38"/>
      <point x="657" y="141" type="curve" smooth="yes"/>
      <point x="657" y="204"/>
      <point x="609" y="263"/>
      <point x="529" y="276" type="curve"/>
      <point x="528" y="280" type="line"/>
      <point x="609" y="297"/>
      <point x="646" y="348"/>
      <point x="646" y="399" type="curve" smooth="yes"/>
      <point x="646" y="510"/>
      <point x="542" y="560"/>
      <point x="384" y="560" type="curve" smooth="yes"/>
      <point x="176" y="560"/>
      <point x="44" y="456"/>
      <point x="44" y="299" type="curve" smooth="yes"/>
      <point x="44" y="169"/>
      <point x="129" y="108"/>
      <point x="213" y="108" type="curve" smooth="yes"/>
      <point x="316" y="108"/>
      <point x="380" y="161"/>
      <point x="380" y="255" type="curve" smooth="yes"/>
      <point x="380" y="333"/>
      <point x="330" y="401"/>
      <point x="229" y="401" type="curve" smooth="yes"/>
      <point x="169" y="401"/>
      <point x="115" y="361"/>
      <point x="82" y="307" type="curve"/>
      <point x="91" y="243" type="line"/>
      <point x="122" y="312"/>
      <point x="163" y="343"/>
      <point x="210" y="343" type="curve" smooth="yes"/>
      <point x="259" y="343"/>
      <point x="291" y="304"/>
      <point x="291" y="254" type="curve" smooth="yes"/>
      <point x="291" y="205"/>
      <point x="261" y="166"/>
      <point x="207" y="166" type="curve" smooth="yes"/>
      <point x="159" y="166"/>
      <point x="96" y="205"/>
      <point x="96" y="299" type="curve" smooth="yes"/>
      <point x="96" y="418"/>
      <point x="194" y="500"/>
      <point x="365" y="500" type="curve" smooth="yes"/>
      <point x="467" y="500"/>
      <point x="552" y="478"/>
      <point x="552" y="393" type="curve" smooth="yes"/>
      <point x="552" y="337"/>
      <point x="502" y="305"/>
      <point x="434" y="303" type="curve"/>
      <point x="434" y="253" type="line"/>
      <point x="515" y="252"/>
      <point x="562" y="220"/>
      <point x="562" y="153" type="curve" smooth="yes"/>
      <point x="562" y="92"/>
      <point x="533" y="54"/>
      <point x="427" y="54" type="curve" smooth="yes"/>
      <point x="213" y="54" type="line" smooth="yes"/>
      <point x="116" y="54"/>
      <point x="52" y="14"/>
      <point x="52" y="-70" type="curve" smooth="yes"/>
      <point x="52" y="-148"/>
      <point x="109" y="-197"/>
    </contour>
  </outline>
</glyph>
<glyph name="lllamlym" format="2">
  <advance width="634"/>
  <unicode hex="0D34"/>
  <outline>
    <contour>
      <point x="288" y="-6" type="curve" smooth="yes"/>
      <point x="379" y="-6"/>
      <point x="448" y="45"/>
      <point x="448" y="134" type="curve" smooth="yes"/>
      <point x="448" y="184"/>
      <point x="424" y="224"/>
      <point x="399" y="266" type="curve" smooth="yes"/>
      <point x="374" y="308"/>
      <point x="349" y="352"/>
      <point x="349" y="406" type="curve" smooth="yes"/>
      <point x="349" y="470"/>
      <point x="390" y="502"/>
      <point x="446" y="502" type="curve" smooth="yes"/>
      <point x="499" y="502"/>
      <point x="543" y="468"/>
      <point x="543" y="403" type="curve" smooth="yes"/>
      <point x="543" y="297"/>
      <point x="445" y="245"/>
      <point x="340" y="245" type="curve" smooth="yes"/>
      <point x="189" y="245"/>
      <point x="132" y="315"/>
      <point x="132" y="417" type="curve" smooth="yes"/>
      <point x="132" y="463"/>
      <point x="147" y="517"/>
      <point x="185" y="554" type="curve"/>
      <point x="179" y="556"/>
      <point x="170" y="557"/>
      <point x="161" y="557" type="curve" smooth="yes"/>
      <point x="98" y="557"/>
      <point x="37" y="495"/>
      <point x="37" y="404" type="curve" smooth="yes"/>
      <point x="37" y="278"/>
      <point x="123" y="194"/>
      <point x="322" y="194" type="curve" smooth="yes"/>
      <point x="469" y="194"/>
      <point x="600" y="266"/>
      <point x="600" y="401" type="curve" smooth="yes"/>
      <point x="600" y="498"/>
      <point x="529" y="560"/>
      <point x="430" y="560" type="curve" smooth="yes"/>
      <point x="343" y="560"/>
      <point x="259" y="506"/>
      <point x="259" y="405" type="curve" smooth="yes"/>
      <point x="259" y="343"/>
      <point x="286" y="293"/>
      <point x="313" y="252" type="curve" smooth="yes"/>
      <point x="344" y="205"/>
      <point x="358" y="172"/>
      <point x="358" y="137" type="curve" smooth="yes"/>
      <point x="358" y="90"/>
      <point x="332" y="61"/>
      <point x="260" y="61" type="curve" smooth="yes"/>
      <point x="231" y="61"/>
      <point x="201" y="68"/>
      <point x="171" y="81" type="curve"/>
      <point x="169" y="74"/>
      <point x="169" y="70"/>
      <point x="169" y="66" type="curve" smooth="yes"/>
      <point x="169" y="36"/>
      <point x="189" y="-6"/>
    </contour>
  </outline>
</glyph>
<glyph name="shamlym" format="2">
  <advance width="1005"/>
  <unicode hex="0D36"/>
  <outline>
    <contour>
      <point x="255" y="-6" type="curve" smooth="yes"/>
      <point x="400" y="-6"/>
      <point x="473" y="80"/>
      <point x="473" y="240" type="curve" smooth="yes"/>
      <point x="473" y="288" type="line" smooth="yes"/>
      <point x="473" y="445"/>
      <point x="547" y="507"/>
      <point x="649" y="507" type="curve" smooth="yes"/>
      <point x="799" y="507"/>
      <point x="866" y="365"/>
      <point x="866" y="232" type="curve" smooth="yes"/>
      <point x="866" y="95"/>
      <point x="816" y="54"/>
      <point x="754" y="54" type="curve" smooth="yes"/>
      <point x="688" y="54"/>
      <point x="643" y="105"/>
      <point x="643" y="199" type="curve" smooth="yes"/>
      <point x="643" y="307"/>
      <point x="693" y="412"/>
      <point x="781" y="484" type="curve"/>
      <point x="748" y="523" type="line"/>
      <point x="648" y="439"/>
      <point x="585" y="334"/>
      <point x="585" y="204" type="curve" smooth="yes"/>
      <point x="585" y="78"/>
      <point x="648" y="-6"/>
      <point x="764" y="-6" type="curve" smooth="yes"/>
      <point x="892" y="-6"/>
      <point x="963" y="106"/>
      <point x="963" y="234" type="curve" smooth="yes"/>
      <point x="963" y="424"/>
      <point x="842" y="560"/>
      <point x="650" y="560" type="curve" smooth="yes"/>
      <point x="496" y="560"/>
      <point x="374" y="473"/>
      <point x="374" y="292" type="curve" smooth="yes"/>
      <point x="374" y="225" type="line" smooth="yes"/>
      <point x="374" y="94"/>
      <point x="327" y="55"/>
      <point x="248" y="55" type="curve" smooth="yes"/>
      <point x="148" y="55"/>
      <point x="101" y="138"/>
      <point x="101" y="271" type="curve" smooth="yes"/>
      <point x="101" y="409"/>
      <point x="160" y="484"/>
      <point x="239" y="543" type="curve"/>
      <point x="229" y="555"/>
      <point x="216" y="560"/>
      <point x="202" y="560" type="curve" smooth="yes"/>
      <point x="142" y="560"/>
      <point x="42" y="448"/>
      <point x="42" y="275" type="curve" smooth="yes"/>
      <point x="42" y="95"/>
      <point x="124" y="-6"/>
    </contour>
  </outline>
</glyph>
<glyph name="ssamlym" format="2">
  <advance width="1122"/>
  <unicode hex="0D37"/>
  <outline>
    <contour>
      <point x="148" y="-6" type="curve" smooth="yes"/>
      <point x="165" y="-6"/>
      <point x="172" y="0"/>
      <point x="180" y="14" type="curve"/>
      <point x="137" y="42"/>
      <point x="91" y="91"/>
      <point x="91" y="167" type="curve" smooth="yes"/>
      <point x="91" y="239"/>
      <point x="137" y="299"/>
      <point x="216" y="299" type="curve" smooth="yes"/>
      <point x="287" y="299"/>
      <point x="333" y="245"/>
      <point x="333" y="177" type="curve" smooth="yes"/>
      <point x="333" y="90"/>
      <point x="283" y="41"/>
      <point x="255" y="17" type="curve"/>
      <point x="265" y="0" type="line"/>
      <point x="771" y="0" type="line"/>
      <point x="771" y="54" type="line"/>
      <point x="367" y="54" type="line"/>
      <point x="406" y="88"/>
      <point x="424" y="137"/>
      <point x="424" y="182" type="curve" smooth="yes"/>
      <point x="424" y="292"/>
      <point x="334" y="359"/>
      <point x="228" y="359" type="curve" smooth="yes"/>
      <point x="118" y="359"/>
      <point x="34" y="283"/>
      <point x="34" y="167" type="curve" smooth="yes"/>
      <point x="34" y="68"/>
      <point x="98" y="-6"/>
    </contour>
    <contour>
      <point x="654" y="0" type="line"/>
      <point x="1050" y="0" type="line"/>
      <point x="1050" y="551" type="line"/>
      <point x="1008" y="554" type="line"/>
      <point x="962" y="374"/>
      <point x="842" y="280"/>
      <point x="701" y="280" type="curve" smooth="yes"/>
      <point x="587" y="280"/>
      <point x="513" y="327"/>
      <point x="513" y="418" type="curve" smooth="yes"/>
      <point x="513" y="466"/>
      <point x="540" y="500"/>
      <point x="587" y="500" type="curve" smooth="yes"/>
      <point x="633" y="500"/>
      <point x="654" y="465"/>
      <point x="654" y="398" type="curve" smooth="yes"/>
    </contour>
    <contour>
      <point x="747" y="54" type="line"/>
      <point x="747" y="399" type="line" smooth="yes"/>
      <point x="747" y="517"/>
      <point x="675" y="560"/>
      <point x="603" y="560" type="curve" smooth="yes"/>
      <point x="527" y="560"/>
      <point x="457" y="511"/>
      <point x="457" y="416" type="curve" smooth="yes"/>
      <point x="457" y="292"/>
      <point x="560" y="227"/>
      <point x="698" y="227" type="curve" smooth="yes"/>
      <point x="845" y="227"/>
      <point x="964" y="308"/>
      <point x="1018" y="437" type="curve"/>
      <point x="963" y="378" type="line"/>
      <point x="958" y="336"/>
      <point x="957" y="268"/>
      <point x="957" y="223" type="curve" smooth="yes"/>
      <point x="957" y="54" type="line"/>
    </contour>
  </outline>
</glyph>
<glyph name="samlym" format="2">
  <advance width="1182"/>
  <unicode hex="0D38"/>
  <outline>
    <contour>
      <point x="980" y="560" type="curve" smooth="yes"/>
      <point x="966" y="560"/>
      <point x="953" y="555"/>
      <point x="943" y="543" type="curve"/>
      <point x="1022" y="484"/>
      <point x="1081" y="409"/>
      <point x="1081" y="271" type="curve" smooth="yes"/>
      <point x="1081" y="138"/>
      <point x="1034" y="55"/>
      <point x="934" y="55" type="curve" smooth="yes"/>
      <point x="855" y="55"/>
      <point x="808" y="94"/>
      <point x="808" y="225" type="curve" smooth="yes"/>
      <point x="808" y="321" type="line" smooth="yes"/>
      <point x="808" y="489"/>
      <point x="724" y="560"/>
      <point x="616" y="560" type="curve" smooth="yes"/>
      <point x="538" y="560"/>
      <point x="465" y="517"/>
      <point x="429" y="413" type="curve"/>
      <point x="471" y="408" type="line"/>
      <point x="446" y="497"/>
      <point x="380" y="560"/>
      <point x="271" y="560" type="curve" smooth="yes"/>
      <point x="126" y="560"/>
      <point x="42" y="428"/>
      <point x="42" y="279" type="curve" smooth="yes"/>
      <point x="42" y="105"/>
      <point x="142" y="-6"/>
      <point x="202" y="-6" type="curve" smooth="yes"/>
      <point x="216" y="-6"/>
      <point x="230" y="-1"/>
      <point x="239" y="11" type="curve"/>
      <point x="159" y="71"/>
      <point x="101" y="145"/>
      <point x="101" y="283" type="curve" smooth="yes"/>
      <point x="101" y="394"/>
      <point x="157" y="500"/>
      <point x="265" y="500" type="curve" smooth="yes"/>
      <point x="340" y="500"/>
      <point x="390" y="443"/>
      <point x="390" y="354" type="curve" smooth="yes"/>
      <point x="390" y="0" type="line"/>
      <point x="485" y="0" type="line"/>
      <point x="485" y="355" type="line" smooth="yes"/>
      <point x="485" y="457"/>
      <point x="547" y="500"/>
      <point x="601" y="500" type="curve" smooth="yes"/>
      <point x="672" y="500"/>
      <point x="709" y="454"/>
      <point x="709" y="332" type="curve" smooth="yes"/>
      <point x="709" y="240" type="line" smooth="yes"/>
      <point x="709" y="80"/>
      <point x="782" y="-6"/>
      <point x="926" y="-6" type="curve" smooth="yes"/>
      <point x="1057" y="-6"/>
      <point x="1140" y="95"/>
      <point x="1140" y="275" type="curve" smooth="yes"/>
      <point x="1140" y="448"/>
      <point x="1040" y="560"/>
    </contour>
  </outline>
</glyph>
<glyph name="hamlym" format="2">
  <advance width="1162"/>
  <unicode hex="0D39"/>
  <outline>
    <contour>
      <point x="940" y="-8" type="curve" smooth="yes"/>
      <point x="1016" y="-8"/>
      <point x="1120" y="84"/>
      <point x="1120" y="255" type="curve" smooth="yes"/>
      <point x="1120" y="428"/>
      <point x="1015" y="560"/>
      <point x="837" y="560" type="curve" smooth="yes"/>
      <point x="696" y="560"/>
      <point x="563" y="460"/>
      <point x="563" y="261" type="curve" smooth="yes"/>
      <point x="563" y="172"/>
      <point x="596" y="98"/>
      <point x="647" y="38" type="curve"/>
      <point x="646" y="54" type="line"/>
      <point x="367" y="54" type="line"/>
      <point x="406" y="88"/>
      <point x="424" y="137"/>
      <point x="424" y="182" type="curve" smooth="yes"/>
      <point x="424" y="292"/>
      <point x="334" y="359"/>
      <point x="228" y="359" type="curve" smooth="yes"/>
      <point x="118" y="359"/>
      <point x="34" y="283"/>
      <point x="34" y="167" type="curve" smooth="yes"/>
      <point x="34" y="68"/>
      <point x="98" y="-6"/>
      <point x="148" y="-6" type="curve" smooth="yes"/>
      <point x="165" y="-6"/>
      <point x="172" y="0"/>
      <point x="180" y="14" type="curve"/>
      <point x="137" y="42"/>
      <point x="91" y="91"/>
      <point x="91" y="167" type="curve" smooth="yes"/>
      <point x="91" y="239"/>
      <point x="138" y="299"/>
      <point x="216" y="299" type="curve" smooth="yes"/>
      <point x="287" y="299"/>
      <point x="333" y="245"/>
      <point x="333" y="177" type="curve" smooth="yes"/>
      <point x="333" y="88"/>
      <point x="280" y="38"/>
      <point x="255" y="17" type="curve"/>
      <point x="265" y="0" type="line"/>
      <point x="696" y="0" type="line"/>
      <point x="720" y="38" type="line"/>
      <point x="667" y="89"/>
      <point x="622" y="155"/>
      <point x="622" y="263" type="curve" smooth="yes"/>
      <point x="622" y="412"/>
      <point x="713" y="496"/>
      <point x="826" y="496" type="curve" smooth="yes"/>
      <point x="952" y="496"/>
      <point x="1022" y="393"/>
      <point x="1022" y="259" type="curve" smooth="yes"/>
      <point x="1022" y="150"/>
      <point x="976" y="54"/>
      <point x="901" y="0" type="curve"/>
      <point x="907" y="-4"/>
      <point x="921" y="-8"/>
    </contour>
  </outline>
</glyph>
<glyph name="tttamlym" format="2">
  <advance width="749"/>
  <unicode hex="0D3A"/>
  <outline>
    <contour>
      <point x="42" y="0" type="line"/>
      <point x="732" y="0" type="line"/>
      <point x="732" y="54" type="line"/>
      <point x="131" y="54" type="line"/>
      <point x="310" y="526" type="line"/>
      <point x="219" y="556" type="line"/>
      <point x="21" y="26" type="line"/>
    </contour>
    <contour>
      <point x="362" y="-179" type="line"/>
      <point x="457" y="-179" type="line"/>
      <point x="457" y="36" type="line"/>
      <point x="362" y="36" type="line"/>
    </contour>
  </outline>
</glyph>
<glyph name="avagrahamlym" format="2">
  <advance width="298"/>
  <unicode hex="0D3D"/>
  <outline>
    <contour>
      <point x="47" y="-220" type="curve" smooth="yes"/>
      <point x="141" y="-220"/>
      <point x="195" y="-163"/>
      <point x="195" y="-52" type="curve" smooth="yes"/>
      <point x="195" y="603" type="line" smooth="yes"/>
      <point x="195" y="668"/>
      <point x="217" y="702"/>
      <point x="276" y="702" type="curve" smooth="yes"/>
      <point x="297" y="702"/>
      <point x="321" y="696"/>
      <point x="343" y="686" type="curve"/>
      <point x="348" y="693"/>
      <point x="350" y="702"/>
      <point x="350" y="710" type="curve" smooth="yes"/>
      <point x="350" y="735"/>
      <point x="317" y="759"/>
      <point x="252" y="759" type="curve" smooth="yes"/>
      <point x="158" y="759"/>
      <point x="104" y="692"/>
      <point x="104" y="591" type="curve" smooth="yes"/>
      <point x="104" y="-64" type="line" smooth="yes"/>
      <point x="104" y="-128"/>
      <point x="82" y="-163"/>
      <point x="23" y="-163" type="curve" smooth="yes"/>
      <point x="2" y="-163"/>
      <point x="-22" y="-157"/>
      <point x="-44" y="-147" type="curve"/>
      <point x="-49" y="-154"/>
      <point x="-51" y="-163"/>
      <point x="-51" y="-171" type="curve" smooth="yes"/>
      <point x="-51" y="-196"/>
      <point x="-18" y="-220"/>
    </contour>
  </outline>
</glyph>
<glyph name="aavowelsignmlym" format="2">
  <advance width="499"/>
  <unicode hex="0D3E"/>
  <outline>
    <contour>
      <point x="230" y="-6" type="curve" smooth="yes"/>
      <point x="391" y="-6"/>
      <point x="457" y="139"/>
      <point x="457" y="277" type="curve" smooth="yes"/>
      <point x="457" y="415"/>
      <point x="391" y="560"/>
      <point x="230" y="560" type="curve" smooth="yes"/>
      <point x="97" y="560"/>
      <point x="30" y="459"/>
      <point x="30" y="392" type="curve" smooth="yes"/>
      <point x="30" y="372"/>
      <point x="42" y="354"/>
      <point x="63" y="354" type="curve"/>
      <point x="79" y="430"/>
      <point x="127" y="500"/>
      <point x="216" y="500" type="curve" smooth="yes"/>
      <point x="326" y="500"/>
      <point x="362" y="384"/>
      <point x="362" y="277" type="curve" smooth="yes"/>
      <point x="362" y="169"/>
      <point x="326" y="54"/>
      <point x="216" y="54" type="curve" smooth="yes"/>
      <point x="127" y="54"/>
      <point x="79" y="124"/>
      <point x="63" y="200" type="curve"/>
      <point x="42" y="200"/>
      <point x="30" y="182"/>
      <point x="30" y="161" type="curve" smooth="yes"/>
      <point x="30" y="95"/>
      <point x="97" y="-6"/>
    </contour>
  </outline>
</glyph>
<glyph name="ivowelsignmlym" format="2">
  <advance width="238"/>
  <unicode hex="0D3F"/>
  <outline>
    <contour>
      <point x="72" y="0" type="line"/>
      <point x="166" y="0" type="line"/>
      <point x="166" y="626" type="line" smooth="yes"/>
      <point x="166" y="759"/>
      <point x="102" y="843"/>
      <point x="-17" y="843" type="curve" smooth="yes"/>
      <point x="-109" y="843"/>
      <point x="-187" y="781"/>
      <point x="-187" y="682" type="curve" smooth="yes"/>
      <point x="-187" y="647"/>
      <point x="-168" y="620"/>
      <point x="-143" y="620" type="curve" smooth="yes"/>
      <point x="-137" y="620"/>
      <point x="-127" y="621"/>
      <point x="-120" y="624" type="curve"/>
      <point x="-125" y="637"/>
      <point x="-129" y="662"/>
      <point x="-129" y="679" type="curve" smooth="yes"/>
      <point x="-129" y="750"/>
      <point x="-93" y="788"/>
      <point x="-36" y="788" type="curve" smooth="yes"/>
      <point x="30" y="788"/>
      <point x="72" y="745"/>
      <point x="72" y="619" type="curve" smooth="yes"/>
    </contour>
  </outline>
</glyph>
<glyph name="iivowelsignmlym" format="2">
  <advance width="238"/>
  <unicode hex="0D40"/>
  <outline>
    <contour>
      <point x="72" y="0" type="line"/>
      <point x="166" y="0" type="line"/>
      <point x="166" y="619" type="line" smooth="yes"/>
      <point x="166" y="762"/>
      <point x="81" y="843"/>
      <point x="-49" y="843" type="curve" smooth="yes"/>
      <point x="-170" y="843"/>
      <point x="-232" y="770"/>
      <point x="-232" y="694" type="curve" smooth="yes"/>
      <point x="-232" y="634"/>
      <point x="-194" y="579"/>
      <point x="-116" y="579" type="curve" smooth="yes"/>
      <point x="-34" y="579"/>
      <point x="3" y="626"/>
      <point x="3" y="685" type="curve" smooth="yes"/>
      <point x="3" y="752"/>
      <point x="-48" y="794"/>
      <point x="-114" y="810" type="curve"/>
      <point x="-133" y="788" type="line"/>
      <point x="-80" y="766"/>
      <point x="-61" y="725"/>
      <point x="-61" y="696" type="curve" smooth="yes"/>
      <point x="-61" y="660"/>
      <point x="-84" y="634"/>
      <point x="-121" y="634" type="curve" smooth="yes"/>
      <point x="-159" y="634"/>
      <point x="-180" y="659"/>
      <point x="-180" y="696" type="curve" smooth="yes"/>
      <point x="-180" y="735"/>
      <point x="-150" y="793"/>
      <point x="-64" y="793" type="curve" smooth="yes"/>
      <point x="2" y="793"/>
      <point x="72" y="759"/>
      <point x="72" y="605" type="curve" smooth="yes"/>
    </contour>
  </outline>
</glyph>
<glyph name="uvowelsignmlym" format="2">
  <advance width="297"/>
  <unicode hex="0D41"/>
  <outline>
    <contour>
      <point x="140" y="-228" type="curve" smooth="yes"/>
      <point x="240" y="-228"/>
      <point x="306" y="-162"/>
      <point x="306" y="-76" type="curve" smooth="yes"/>
      <point x="306" y="15"/>
      <point x="247" y="78"/>
      <point x="146" y="130" type="curve"/>
      <point x="135" y="130" type="line"/>
      <point x="35" y="79"/>
      <point x="-28" y="17"/>
      <point x="-28" y="-73" type="curve" smooth="yes"/>
      <point x="-28" y="-153"/>
      <point x="22" y="-228"/>
    </contour>
    <contour>
      <point x="131" y="-168" type="curve" smooth="yes"/>
      <point x="53" y="-168"/>
      <point x="24" y="-116"/>
      <point x="24" y="-71" type="curve" smooth="yes"/>
      <point x="24" y="-2"/>
      <point x="77" y="44"/>
      <point x="136" y="77" type="curve"/>
      <point x="128" y="76" type="line"/>
      <point x="187" y="43"/>
      <point x="233" y="-6"/>
      <point x="233" y="-67" type="curve" smooth="yes"/>
      <point x="233" y="-130"/>
      <point x="199" y="-168"/>
    </contour>
    <contour>
      <point x="149" y="95" type="line"/>
      <point x="196" y="187"/>
      <point x="233" y="318"/>
      <point x="233" y="408" type="curve" smooth="yes"/>
      <point x="233" y="487"/>
      <point x="204" y="562"/>
      <point x="118" y="562" type="curve" smooth="yes"/>
      <point x="70" y="562"/>
      <point x="37" y="535"/>
      <point x="37" y="504" type="curve" smooth="yes"/>
      <point x="37" y="501"/>
      <point x="37" y="491"/>
      <point x="38" y="488" type="curve"/>
      <point x="49" y="491"/>
      <point x="66" y="494"/>
      <point x="79" y="494" type="curve" smooth="yes"/>
      <point x="118" y="494"/>
      <point x="160" y="480"/>
      <point x="160" y="393" type="curve" smooth="yes"/>
      <point x="160" y="308"/>
      <point x="143" y="195"/>
      <point x="107" y="103" type="curve"/>
    </contour>
  </outline>
</glyph>
<glyph name="uuvowelsignmlym" format="2">
  <advance width="297"/>
  <unicode hex="0D42"/>
  <outline>
    <contour>
      <point x="140" y="-228" type="curve" smooth="yes"/>
      <point x="238" y="-228"/>
      <point x="306" y="-162"/>
      <point x="306" y="-76" type="curve" smooth="yes"/>
      <point x="306" y="15"/>
      <point x="247" y="78"/>
      <point x="146" y="130" type="curve"/>
      <point x="136" y="130" type="line"/>
      <point x="35" y="79"/>
      <point x="-28" y="17"/>
      <point x="-28" y="-73" type="curve" smooth="yes"/>
      <point x="-28" y="-153"/>
      <point x="25" y="-228"/>
    </contour>
    <contour>
      <point x="136" y="-168" type="curve" smooth="yes"/>
      <point x="53" y="-168"/>
      <point x="23" y="-116"/>
      <point x="23" y="-65" type="curve" smooth="yes"/>
      <point x="23" y="-14"/>
      <point x="41" y="20"/>
      <point x="71" y="45" type="curve"/>
      <point x="69" y="48" type="line"/>
      <point x="54" y="29"/>
      <point x="42" y="6"/>
      <point x="42" y="-19" type="curve" smooth="yes"/>
      <point x="42" y="-82"/>
      <point x="90" y="-103"/>
      <point x="134" y="-103" type="curve" smooth="yes"/>
      <point x="184" y="-103"/>
      <point x="230" y="-82"/>
      <point x="230" y="-19" type="curve" smooth="yes"/>
      <point x="230" y="9"/>
      <point x="217" y="31"/>
      <point x="201" y="51" type="curve"/>
      <point x="198" y="49" type="line"/>
      <point x="231" y="21"/>
      <point x="249" y="-11"/>
      <point x="249" y="-63" type="curve" smooth="yes"/>
      <point x="249" y="-133"/>
      <point x="199" y="-168"/>
    </contour>
    <contour>
      <point x="136" y="-47" type="curve" smooth="yes"/>
      <point x="98" y="-47"/>
      <point x="82" y="-27"/>
      <point x="82" y="0" type="curve" smooth="yes"/>
      <point x="82" y="29"/>
      <point x="103" y="62"/>
      <point x="157" y="93" type="curve"/>
      <point x="115" y="93" type="line"/>
      <point x="166" y="66"/>
      <point x="190" y="29"/>
      <point x="190" y="0" type="curve" smooth="yes"/>
      <point x="190" y="-28"/>
      <point x="172" y="-47"/>
    </contour>
    <contour>
      <point x="149" y="95" type="line"/>
      <point x="196" y="187"/>
      <point x="233" y="318"/>
      <point x="233" y="408" type="curve" smooth="yes"/>
      <point x="233" y="487"/>
      <point x="204" y="562"/>
      <point x="118" y="562" type="curve" smooth="yes"/>
      <point x="70" y="562"/>
      <point x="37" y="535"/>
      <point x="37" y="504" type="curve" smooth="yes"/>
      <point x="37" y="501"/>
      <point x="37" y="491"/>
      <point x="38" y="488" type="curve"/>
      <point x="49" y="491"/>
      <point x="66" y="494"/>
      <point x="79" y="494" type="curve" smooth="yes"/>
      <point x="118" y="494"/>
      <point x="160" y="480"/>
      <point x="160" y="393" type="curve" smooth="yes"/>
      <point x="160" y="308"/>
      <point x="143" y="195"/>
      <point x="107" y="103" type="curve"/>
    </contour>
  </outline>
</glyph>
<glyph name="rvocalicvowelsignmlym" format="2">
  <advance width="245"/>
  <unicode hex="0D43"/>
  <outline>
    <contour>
      <point x="65" y="-310" type="curve" smooth="yes"/>
      <point x="179" y="-310"/>
      <point x="253" y="-234"/>
      <point x="253" y="-115" type="curve" smooth="yes"/>
      <point x="253" y="-30"/>
      <point x="230" y="39"/>
      <point x="194" y="127" type="curve" smooth="yes"/>
      <point x="156" y="219"/>
      <point x="131" y="307"/>
      <point x="131" y="391" type="curve" smooth="yes"/>
      <point x="131" y="476"/>
      <point x="152" y="526"/>
      <point x="172" y="558" type="curve"/>
      <point x="164" y="559"/>
      <point x="156" y="560"/>
      <point x="147" y="560" type="curve" smooth="yes"/>
      <point x="88" y="560"/>
      <point x="29" y="524"/>
      <point x="29" y="418" type="curve" smooth="yes"/>
      <point x="29" y="325"/>
      <point x="71" y="233"/>
      <point x="118" y="139" type="curve" smooth="yes"/>
      <point x="168" y="40"/>
      <point x="194" y="-23"/>
      <point x="194" y="-108" type="curve" smooth="yes"/>
      <point x="194" y="-192"/>
      <point x="161" y="-257"/>
      <point x="69" y="-257" type="curve" smooth="yes"/>
      <point x="-9" y="-257"/>
      <point x="-58" y="-225"/>
      <point x="-58" y="-160" type="curve" smooth="yes"/>
      <point x="-58" y="-114"/>
      <point x="-29" y="-83"/>
      <point x="18" y="-83" type="curve" smooth="yes"/>
      <point x="76" y="-83"/>
      <point x="95" y="-129"/>
      <point x="95" y="-164" type="curve" smooth="yes"/>
      <point x="95" y="-196"/>
      <point x="85" y="-228"/>
      <point x="63" y="-261" type="curve"/>
      <point x="111" y="-269" type="line"/>
      <point x="137" y="-236"/>
      <point x="150" y="-191"/>
      <point x="150" y="-149" type="curve" smooth="yes"/>
      <point x="150" y="-85"/>
      <point x="114" y="-23"/>
      <point x="19" y="-23" type="curve" smooth="yes"/>
      <point x="-58" y="-23"/>
      <point x="-117" y="-69"/>
      <point x="-117" y="-155" type="curve" smooth="yes"/>
      <point x="-117" y="-249"/>
      <point x="-53" y="-310"/>
    </contour>
  </outline>
</glyph>
<glyph name="rrvocalicvowelsignmlym" format="2">
  <advance width="245"/>
  <unicode hex="0D44"/>
  <outline>
    <contour>
      <point x="13" y="-310" type="curve" smooth="yes"/>
      <point x="180" y="-310"/>
      <point x="253" y="-232"/>
      <point x="253" y="-115" type="curve" smooth="yes"/>
      <point x="253" y="-30"/>
      <point x="230" y="39"/>
      <point x="194" y="127" type="curve" smooth="yes"/>
      <point x="156" y="219"/>
      <point x="131" y="307"/>
      <point x="131" y="391" type="curve" smooth="yes"/>
      <point x="131" y="476"/>
      <point x="151" y="525"/>
      <point x="171" y="557" type="curve"/>
      <point x="164" y="559"/>
      <point x="155" y="560"/>
      <point x="147" y="560" type="curve" smooth="yes"/>
      <point x="90" y="560"/>
      <point x="29" y="526"/>
      <point x="29" y="420" type="curve" smooth="yes"/>
      <point x="29" y="325"/>
      <point x="71" y="233"/>
      <point x="118" y="139" type="curve" smooth="yes"/>
      <point x="168" y="40"/>
      <point x="194" y="-32"/>
      <point x="194" y="-108" type="curve" smooth="yes"/>
      <point x="194" y="-196"/>
      <point x="161" y="-257"/>
      <point x="8" y="-257" type="curve" smooth="yes"/>
      <point x="-118" y="-257"/>
      <point x="-162" y="-214"/>
      <point x="-162" y="-147" type="curve" smooth="yes"/>
      <point x="-162" y="-104"/>
      <point x="-139" y="-81"/>
      <point x="-111" y="-81" type="curve" smooth="yes"/>
      <point x="-77" y="-81"/>
      <point x="-62" y="-102"/>
      <point x="-62" y="-137" type="curve" smooth="yes"/>
      <point x="-62" y="-218" type="line"/>
      <point x="-6" y="-218" type="line"/>
      <point x="-6" y="-137" type="line" smooth="yes"/>
      <point x="-6" y="-102"/>
      <point x="11" y="-81"/>
      <point x="43" y="-81" type="curve" smooth="yes"/>
      <point x="70" y="-81"/>
      <point x="93" y="-98"/>
      <point x="93" y="-140" type="curve" smooth="yes"/>
      <point x="93" y="-179"/>
      <point x="80" y="-205"/>
      <point x="67" y="-221" type="curve"/>
      <point x="72" y="-224"/>
      <point x="80" y="-226"/>
      <point x="86" y="-226" type="curve" smooth="yes"/>
      <point x="119" y="-226"/>
      <point x="152" y="-202"/>
      <point x="152" y="-129" type="curve" smooth="yes"/>
      <point x="152" y="-66"/>
      <point x="115" y="-30"/>
      <point x="55" y="-30" type="curve" smooth="yes"/>
      <point x="8" y="-30"/>
      <point x="-30" y="-62"/>
      <point x="-38" y="-102" type="curve"/>
      <point x="-26" y="-107" type="line"/>
      <point x="-33" y="-62"/>
      <point x="-64" y="-30"/>
      <point x="-113" y="-30" type="curve" smooth="yes"/>
      <point x="-166" y="-30"/>
      <point x="-220" y="-65"/>
      <point x="-220" y="-144" type="curve" smooth="yes"/>
      <point x="-220" y="-254"/>
      <point x="-137" y="-310"/>
    </contour>
  </outline>
</glyph>
<glyph name="evowelsignmlym" format="2">
  <advance width="694"/>
  <unicode hex="0D46"/>
  <outline>
    <contour>
      <point x="252" y="-6" type="curve" smooth="yes"/>
      <point x="359" y="-6"/>
      <point x="422" y="64"/>
      <point x="422" y="159" type="curve" smooth="yes"/>
      <point x="422" y="252"/>
      <point x="356" y="322"/>
      <point x="259" y="322" type="curve" smooth="yes"/>
      <point x="185" y="322"/>
      <point x="127" y="276"/>
      <point x="90" y="213" type="curve"/>
      <point x="99" y="152" type="line"/>
      <point x="128" y="209"/>
      <point x="175" y="261"/>
      <point x="235" y="261" type="curve" smooth="yes"/>
      <point x="288" y="261"/>
      <point x="331" y="225"/>
      <point x="331" y="159" type="curve" smooth="yes"/>
      <point x="331" y="100"/>
      <point x="298" y="54"/>
      <point x="234" y="54" type="curve" smooth="yes"/>
      <point x="169" y="54"/>
      <point x="97" y="116"/>
      <point x="97" y="246" type="curve" smooth="yes"/>
      <point x="97" y="417"/>
      <point x="208" y="496"/>
      <point x="335" y="496" type="curve" smooth="yes"/>
      <point x="466" y="496"/>
      <point x="554" y="408"/>
      <point x="554" y="256" type="curve" smooth="yes"/>
      <point x="554" y="136"/>
      <point x="511" y="56"/>
      <point x="440" y="0" type="curve"/>
      <point x="448" y="-4"/>
      <point x="459" y="-8"/>
      <point x="477" y="-8" type="curve" smooth="yes"/>
      <point x="551" y="-8"/>
      <point x="652" y="81"/>
      <point x="652" y="255" type="curve" smooth="yes"/>
      <point x="652" y="432"/>
      <point x="534" y="560"/>
      <point x="348" y="560" type="curve" smooth="yes"/>
      <point x="186" y="560"/>
      <point x="42" y="456"/>
      <point x="42" y="247" type="curve" smooth="yes"/>
      <point x="42" y="123"/>
      <point x="107" y="-6"/>
    </contour>
  </outline>
</glyph>
<glyph name="eevowelsignmlym" format="2">
  <advance width="564"/>
  <unicode hex="0D47"/>
  <outline>
    <contour>
      <point x="338" y="-6" type="curve" smooth="yes"/>
      <point x="474" y="-6"/>
      <point x="530" y="72"/>
      <point x="530" y="143" type="curve" smooth="yes"/>
      <point x="530" y="202"/>
      <point x="487" y="257"/>
      <point x="409" y="257" type="curve" smooth="yes"/>
      <point x="334" y="257"/>
      <point x="292" y="208"/>
      <point x="292" y="152" type="curve" smooth="yes"/>
      <point x="292" y="113"/>
      <point x="319" y="64"/>
      <point x="373" y="44" type="curve"/>
      <point x="420" y="53" type="line"/>
      <point x="376" y="74"/>
      <point x="351" y="104"/>
      <point x="351" y="142" type="curve" smooth="yes"/>
      <point x="351" y="175"/>
      <point x="374" y="204"/>
      <point x="411" y="204" type="curve" smooth="yes"/>
      <point x="448" y="204"/>
      <point x="470" y="174"/>
      <point x="470" y="142" type="curve" smooth="yes"/>
      <point x="470" y="92"/>
      <point x="429" y="50"/>
      <point x="352" y="50" type="curve" smooth="yes"/>
      <point x="189" y="50"/>
      <point x="136" y="164"/>
      <point x="136" y="276" type="curve" smooth="yes"/>
      <point x="136" y="390"/>
      <point x="194" y="504"/>
      <point x="353" y="504" type="curve" smooth="yes"/>
      <point x="423" y="504"/>
      <point x="470" y="464"/>
      <point x="470" y="411" type="curve" smooth="yes"/>
      <point x="470" y="378"/>
      <point x="448" y="349"/>
      <point x="411" y="349" type="curve" smooth="yes"/>
      <point x="374" y="349"/>
      <point x="351" y="377"/>
      <point x="351" y="411" type="curve" smooth="yes"/>
      <point x="351" y="439"/>
      <point x="368" y="475"/>
      <point x="418" y="499" type="curve"/>
      <point x="375" y="510" type="line"/>
      <point x="320" y="489"/>
      <point x="292" y="440"/>
      <point x="292" y="401" type="curve" smooth="yes"/>
      <point x="292" y="345"/>
      <point x="334" y="295"/>
      <point x="409" y="295" type="curve" smooth="yes"/>
      <point x="487" y="295"/>
      <point x="530" y="351"/>
      <point x="530" y="411" type="curve" smooth="yes"/>
      <point x="530" y="482"/>
      <point x="470" y="560"/>
      <point x="331" y="560" type="curve" smooth="yes"/>
      <point x="133" y="560"/>
      <point x="41" y="417"/>
      <point x="41" y="276" type="curve" smooth="yes"/>
      <point x="41" y="135"/>
      <point x="135" y="-6"/>
    </contour>
  </outline>
</glyph>
<glyph name="viramamlym" format="2">
  <unicode hex="0D4D"/>
  <outline>
    <contour>
      <point x="-93" y="605" type="curve" smooth="yes"/>
      <point x="10" y="605"/>
      <point x="64" y="660"/>
      <point x="64" y="733" type="curve" smooth="yes"/>
      <point x="64" y="766"/>
      <point x="48" y="799"/>
      <point x="13" y="799" type="curve" smooth="yes"/>
      <point x="7" y="799"/>
      <point x="0" y="798"/>
      <point x="-6" y="796" type="curve"/>
      <point x="1" y="782"/>
      <point x="4" y="767"/>
      <point x="4" y="751" type="curve" smooth="yes"/>
      <point x="4" y="691"/>
      <point x="-31" y="663"/>
      <point x="-87" y="663" type="curve" smooth="yes"/>
      <point x="-145" y="663"/>
      <point x="-180" y="696"/>
      <point x="-180" y="755" type="curve" smooth="yes"/>
      <point x="-180" y="768"/>
      <point x="-178" y="782"/>
      <point x="-173" y="796" type="curve"/>
      <point x="-181" y="799"/>
      <point x="-189" y="800"/>
      <point x="-196" y="800" type="curve" smooth="yes"/>
      <point x="-234" y="800"/>
      <point x="-271" y="773"/>
      <point x="-271" y="727" type="curve" smooth="yes"/>
      <point x="-271" y="669"/>
      <point x="-235" y="605"/>
    </contour>
  </outline>
</glyph>
<glyph name="rephmlym" format="2">
  <unicode hex="0D4E"/>
  <outline>
    <contour>
      <point x="-280" y="620" type="curve" smooth="yes"/>
      <point x="-259" y="620"/>
      <point x="-218" y="658"/>
      <point x="-218" y="716" type="curve" smooth="yes"/>
      <point x="-218" y="760"/>
      <point x="-242" y="786"/>
      <point x="-280" y="786" type="curve" smooth="yes"/>
      <point x="-318" y="786"/>
      <point x="-342" y="760"/>
      <point x="-342" y="716" type="curve" smooth="yes"/>
      <point x="-342" y="658"/>
      <point x="-301" y="620"/>
    </contour>
  </outline>
</glyph>
<glyph name="uni0D4F" format="2">
  <advance width="1207"/>
  <unicode hex="0D4F"/>
  <outline>
    <contour>
      <point x="697" y="292" type="line"/>
      <point x="697" y="0" type="line"/>
      <point x="782" y="0" type="line"/>
      <point x="782" y="355" type="line" smooth="yes"/>
      <point x="782" y="436"/>
      <point x="834" y="500"/>
      <point x="917" y="500" type="curve" smooth="yes"/>
      <point x="998" y="500"/>
      <point x="1067" y="425"/>
      <point x="1067" y="250" type="curve" smooth="yes"/>
      <point x="1067" y="-15"/>
      <point x="879" y="-132"/>
      <point x="583" y="-132" type="curve" smooth="yes"/>
      <point x="318" y="-132"/>
      <point x="105" y="-31"/>
      <point x="105" y="239" type="curve" smooth="yes"/>
      <point x="105" y="392"/>
      <point x="165" y="483"/>
      <point x="220" y="539" type="curve"/>
      <point x="216" y="546"/>
      <point x="206" y="549"/>
      <point x="193" y="549" type="curve" smooth="yes"/>
      <point x="127" y="549"/>
      <point x="46" y="420"/>
      <point x="46" y="243" type="curve" smooth="yes"/>
      <point x="46" y="-60"/>
      <point x="263" y="-194"/>
      <point x="590" y="-194" type="curve" smooth="yes"/>
      <point x="959" y="-194"/>
      <point x="1165" y="-37"/>
      <point x="1165" y="253" type="curve" smooth="yes"/>
      <point x="1165" y="461"/>
      <point x="1059" y="560"/>
      <point x="929" y="560" type="curve" smooth="yes"/>
      <point x="852" y="560"/>
      <point x="777" y="532"/>
      <point x="726" y="413" type="curve"/>
    </contour>
    <contour>
      <point x="415" y="-6" type="curve" smooth="yes"/>
      <point x="522" y="-6"/>
      <point x="585" y="64"/>
      <point x="585" y="159" type="curve" smooth="yes"/>
      <point x="585" y="252"/>
      <point x="519" y="322"/>
      <point x="422" y="322" type="curve" smooth="yes"/>
      <point x="348" y="322"/>
      <point x="290" y="276"/>
      <point x="253" y="213" type="curve"/>
      <point x="262" y="152" type="line"/>
      <point x="291" y="209"/>
      <point x="338" y="261"/>
      <point x="398" y="261" type="curve" smooth="yes"/>
      <point x="451" y="261"/>
      <point x="494" y="225"/>
      <point x="494" y="159" type="curve" smooth="yes"/>
      <point x="494" y="100"/>
      <point x="461" y="54"/>
      <point x="397" y="54" type="curve" smooth="yes"/>
      <point x="336" y="54"/>
      <point x="260" y="116"/>
      <point x="260" y="250" type="curve" smooth="yes"/>
      <point x="260" y="417"/>
      <point x="376" y="500"/>
      <point x="492" y="500" type="curve" smooth="yes"/>
      <point x="608" y="500"/>
      <point x="687" y="428"/>
      <point x="687" y="292" type="curve" smooth="yes"/>
      <point x="687" y="0" type="line"/>
      <point x="772" y="0" type="line"/>
      <point x="772" y="361" type="line"/>
      <point x="756" y="423" type="line"/>
      <point x="701" y="523"/>
      <point x="600" y="560"/>
      <point x="504" y="560" type="curve" smooth="yes"/>
      <point x="353" y="560"/>
      <point x="205" y="457"/>
      <point x="205" y="251" type="curve" smooth="yes"/>
      <point x="205" y="123"/>
      <point x="274" y="-6"/>
    </contour>
  </outline>
</glyph>
<glyph name="machillumlym" format="2">
  <advance width="582"/>
  <unicode hex="0D54"/>
  <outline>
    <contour>
      <point x="64" y="0" type="line"/>
      <point x="565" y="0" type="line"/>
      <point x="565" y="56" type="line"/>
      <point x="324" y="221"/>
      <point x="267" y="277"/>
      <point x="267" y="382" type="curve" smooth="yes"/>
      <point x="267" y="430"/>
      <point x="285" y="474"/>
      <point x="304" y="518" type="curve" smooth="yes"/>
      <point x="325" y="568"/>
      <point x="345" y="622"/>
      <point x="345" y="671" type="curve" smooth="yes"/>
      <point x="345" y="768"/>
      <point x="281" y="805"/>
      <point x="217" y="805" type="curve" smooth="yes"/>
      <point x="159" y="805"/>
      <point x="125" y="774"/>
      <point x="125" y="742" type="curve" smooth="yes"/>
      <point x="125" y="739"/>
      <point x="125" y="733"/>
      <point x="126" y="727" type="curve"/>
      <point x="144" y="733"/>
      <point x="160" y="735"/>
      <point x="179" y="735" type="curve" smooth="yes"/>
      <point x="237" y="735"/>
      <point x="272" y="703"/>
      <point x="272" y="648" type="curve" smooth="yes"/>
      <point x="272" y="600"/>
      <point x="259" y="566"/>
      <point x="242" y="524" type="curve" smooth="yes"/>
      <point x="225" y="481"/>
      <point x="208" y="437"/>
      <point x="208" y="379" type="curve" smooth="yes"/>
      <point x="208" y="277"/>
      <point x="262" y="193"/>
      <point x="475" y="54" type="curve"/>
      <point x="123" y="54" type="line"/>
      <point x="123" y="291" type="line" smooth="yes"/>
      <point x="123" y="423"/>
      <point x="180" y="491"/>
      <point x="263" y="491" type="curve" smooth="yes"/>
      <point x="339" y="491"/>
      <point x="385" y="434"/>
      <point x="385" y="347" type="curve" smooth="yes"/>
      <point x="385" y="236"/>
      <point x="290" y="153"/>
      <point x="123" y="54" type="curve"/>
      <point x="153" y="28" type="line"/>
      <point x="338" y="94"/>
      <point x="484" y="219"/>
      <point x="484" y="351" type="curve" smooth="yes"/>
      <point x="484" y="469"/>
      <point x="400" y="544"/>
      <point x="290" y="544" type="curve" smooth="yes"/>
      <point x="160" y="544"/>
      <point x="64" y="458"/>
      <point x="64" y="293" type="curve" smooth="yes"/>
    </contour>
  </outline>
</glyph>
<glyph name="yachillumlym" format="2">
  <advance width="948"/>
  <unicode hex="0D55"/>
  <outline>
    <contour>
      <point x="617" y="-6" type="curve" smooth="yes"/>
      <point x="807" y="-6"/>
      <point x="896" y="118"/>
      <point x="896" y="287" type="curve" smooth="yes"/>
      <point x="896" y="377"/>
      <point x="867" y="446"/>
      <point x="841" y="507" type="curve" smooth="yes"/>
      <point x="819" y="558"/>
      <point x="806" y="597"/>
      <point x="806" y="648" type="curve" smooth="yes"/>
      <point x="806" y="702"/>
      <point x="840" y="735"/>
      <point x="899" y="735" type="curve" smooth="yes"/>
      <point x="918" y="735"/>
      <point x="934" y="733"/>
      <point x="952" y="727" type="curve"/>
      <point x="953" y="733"/>
      <point x="953" y="739"/>
      <point x="953" y="742" type="curve" smooth="yes"/>
      <point x="953" y="774"/>
      <point x="919" y="805"/>
      <point x="861" y="805" type="curve" smooth="yes"/>
      <point x="776" y="805"/>
      <point x="733" y="748"/>
      <point x="733" y="671" type="curve" smooth="yes"/>
      <point x="733" y="614"/>
      <point x="758" y="554"/>
      <point x="783" y="498" type="curve" smooth="yes"/>
      <point x="815" y="427"/>
      <point x="836" y="366"/>
      <point x="836" y="291" type="curve" smooth="yes"/>
      <point x="836" y="126"/>
      <point x="744" y="51"/>
      <point x="614" y="51" type="curve" smooth="yes"/>
      <point x="451" y="51"/>
      <point x="337" y="172"/>
      <point x="337" y="344" type="curve" smooth="yes"/>
      <point x="337" y="450"/>
      <point x="395" y="500"/>
      <point x="457" y="500" type="curve" smooth="yes"/>
      <point x="521" y="500"/>
      <point x="580" y="451"/>
      <point x="580" y="330" type="curve" smooth="yes"/>
      <point x="580" y="206"/>
      <point x="513" y="54"/>
      <point x="340" y="54" type="curve" smooth="yes"/>
      <point x="185" y="54"/>
      <point x="101" y="172"/>
      <point x="101" y="315" type="curve" smooth="yes"/>
      <point x="101" y="417"/>
      <point x="148" y="500"/>
      <point x="252" y="500" type="curve" smooth="yes"/>
      <point x="292" y="500"/>
      <point x="326" y="487"/>
      <point x="354" y="456" type="curve"/>
      <point x="390" y="514" type="line"/>
      <point x="351" y="544"/>
      <point x="313" y="560"/>
      <point x="255" y="560" type="curve" smooth="yes"/>
      <point x="123" y="560"/>
      <point x="42" y="460"/>
      <point x="42" y="314" type="curve" smooth="yes"/>
      <point x="42" y="133"/>
      <point x="155" y="-6"/>
      <point x="337" y="-6" type="curve" smooth="yes"/>
      <point x="544" y="-6"/>
      <point x="679" y="147"/>
      <point x="679" y="322" type="curve" smooth="yes"/>
      <point x="679" y="491"/>
      <point x="573" y="560"/>
      <point x="472" y="560" type="curve" smooth="yes"/>
      <point x="368" y="560"/>
      <point x="278" y="486"/>
      <point x="278" y="344" type="curve" smooth="yes"/>
      <point x="278" y="122"/>
      <point x="441" y="-6"/>
    </contour>
  </outline>
</glyph>
<glyph name="lllachillumlym" format="2">
  <advance width="661"/>
  <unicode hex="0D56"/>
  <outline>
    <contour>
      <point x="288" y="-6" type="curve" smooth="yes"/>
      <point x="402" y="-6"/>
      <point x="464" y="45"/>
      <point x="464" y="134" type="curve" smooth="yes"/>
      <point x="464" y="186"/>
      <point x="442" y="238"/>
      <point x="421" y="287" type="curve" smooth="yes"/>
      <point x="402" y="330"/>
      <point x="385" y="370"/>
      <point x="385" y="406" type="curve" smooth="yes"/>
      <point x="385" y="470"/>
      <point x="420" y="502"/>
      <point x="475" y="502" type="curve" smooth="yes"/>
      <point x="529" y="502"/>
      <point x="566" y="469"/>
      <point x="566" y="403" type="curve" smooth="yes"/>
      <point x="566" y="297"/>
      <point x="473" y="245"/>
      <point x="351" y="245" type="curve" smooth="yes"/>
      <point x="197" y="245"/>
      <point x="130" y="309"/>
      <point x="130" y="417" type="curve" smooth="yes"/>
      <point x="130" y="463"/>
      <point x="147" y="517"/>
      <point x="185" y="554" type="curve"/>
      <point x="179" y="556"/>
      <point x="170" y="557"/>
      <point x="161" y="557" type="curve" smooth="yes"/>
      <point x="98" y="557"/>
      <point x="37" y="495"/>
      <point x="37" y="404" type="curve" smooth="yes"/>
      <point x="37" y="278"/>
      <point x="136" y="194"/>
      <point x="333" y="194" type="curve" smooth="yes"/>
      <point x="495" y="194"/>
      <point x="623" y="266"/>
      <point x="623" y="401" type="curve" smooth="yes"/>
      <point x="623" y="498"/>
      <point x="562" y="560"/>
      <point x="463" y="560" type="curve" smooth="yes"/>
      <point x="373" y="560"/>
      <point x="298" y="502"/>
      <point x="298" y="406" type="curve" smooth="yes"/>
      <point x="298" y="351"/>
      <point x="317" y="309"/>
      <point x="336" y="268" type="curve" smooth="yes"/>
      <point x="355" y="227"/>
      <point x="373" y="187"/>
      <point x="373" y="137" type="curve" smooth="yes"/>
      <point x="373" y="83"/>
      <point x="344" y="55"/>
      <point x="284" y="55" type="curve" smooth="yes"/>
      <point x="214" y="55"/>
      <point x="189" y="102"/>
      <point x="189" y="157" type="curve" smooth="yes"/>
      <point x="189" y="223"/>
      <point x="221" y="292"/>
      <point x="281" y="411" type="curve" smooth="yes"/>
      <point x="346" y="540"/>
      <point x="375" y="610"/>
      <point x="375" y="671" type="curve" smooth="yes"/>
      <point x="375" y="743"/>
      <point x="336" y="805"/>
      <point x="247" y="805" type="curve" smooth="yes"/>
      <point x="189" y="805"/>
      <point x="155" y="774"/>
      <point x="155" y="742" type="curve" smooth="yes"/>
      <point x="155" y="739"/>
      <point x="155" y="733"/>
      <point x="156" y="727" type="curve"/>
      <point x="174" y="733"/>
      <point x="190" y="735"/>
      <point x="209" y="735" type="curve" smooth="yes"/>
      <point x="267" y="735"/>
      <point x="302" y="702"/>
      <point x="302" y="648" type="curve" smooth="yes"/>
      <point x="302" y="593"/>
      <point x="289" y="551"/>
      <point x="230" y="433" type="curve" smooth="yes"/>
      <point x="178" y="330"/>
      <point x="130" y="225"/>
      <point x="130" y="155" type="curve" smooth="yes"/>
      <point x="130" y="50"/>
      <point x="192" y="-6"/>
    </contour>
  </outline>
</glyph>
<glyph name="aulengthmarkmlym" format="2">
  <advance width="738"/>
  <unicode hex="0D57"/>
  <outline>
    <contour>
      <point x="401" y="-6" type="curve" smooth="yes"/>
      <point x="616" y="-6"/>
      <point x="694" y="118"/>
      <point x="694" y="304" type="curve" smooth="yes"/>
      <point x="694" y="453"/>
      <point x="637" y="560"/>
      <point x="500" y="560" type="curve" smooth="yes"/>
      <point x="430" y="560"/>
      <point x="368" y="524"/>
      <point x="328" y="434" type="curve"/>
      <point x="367" y="428" type="line"/>
      <point x="347" y="511"/>
      <point x="280" y="560"/>
      <point x="202" y="560" type="curve" smooth="yes"/>
      <point x="97" y="560"/>
      <point x="29" y="483"/>
      <point x="29" y="388" type="curve" smooth="yes"/>
      <point x="29" y="289"/>
      <point x="75" y="228"/>
      <point x="118" y="228" type="curve" smooth="yes"/>
      <point x="127" y="228"/>
      <point x="137" y="230"/>
      <point x="146" y="237" type="curve"/>
      <point x="104" y="282"/>
      <point x="86" y="323"/>
      <point x="86" y="385" type="curve" smooth="yes"/>
      <point x="86" y="448"/>
      <point x="126" y="500"/>
      <point x="190" y="500" type="curve" smooth="yes"/>
      <point x="252" y="500"/>
      <point x="287" y="456"/>
      <point x="287" y="366" type="curve" smooth="yes"/>
      <point x="287" y="233" type="line"/>
      <point x="382" y="233" type="line"/>
      <point x="382" y="370" type="line" smooth="yes"/>
      <point x="382" y="460"/>
      <point x="430" y="500"/>
      <point x="485" y="500" type="curve" smooth="yes"/>
      <point x="566" y="500"/>
      <point x="597" y="422"/>
      <point x="597" y="307" type="curve" smooth="yes"/>
      <point x="597" y="127"/>
      <point x="530" y="54"/>
      <point x="395" y="54" type="curve" smooth="yes"/>
      <point x="321" y="54"/>
      <point x="275" y="69"/>
      <point x="225" y="92" type="curve"/>
      <point x="222" y="87"/>
      <point x="220" y="75"/>
      <point x="220" y="67" type="curve" smooth="yes"/>
      <point x="220" y="38"/>
      <point x="265" y="-6"/>
    </contour>
  </outline>
</glyph>
<glyph name="uni0D58" format="2">
  <advance width="1248"/>
  <unicode hex="0D58"/>
  <outline>
    <contour>
      <point x="509" y="199" type="line"/>
      <point x="509" y="554" type="line"/>
      <point x="424" y="554" type="line"/>
      <point x="424" y="198" type="line" smooth="yes"/>
      <point x="424" y="118"/>
      <point x="373" y="54"/>
      <point x="292" y="54" type="curve" smooth="yes"/>
      <point x="211" y="54"/>
      <point x="140" y="129"/>
      <point x="140" y="291" type="curve" smooth="yes"/>
      <point x="140" y="392"/>
      <point x="181" y="499"/>
      <point x="257" y="554" type="curve"/>
      <point x="249" y="558"/>
      <point x="235" y="562"/>
      <point x="217" y="562" type="curve" smooth="yes"/>
      <point x="143" y="562"/>
      <point x="42" y="466"/>
      <point x="42" y="289" type="curve" smooth="yes"/>
      <point x="42" y="93"/>
      <point x="150" y="-6"/>
      <point x="281" y="-6" type="curve" smooth="yes"/>
      <point x="354" y="-6"/>
      <point x="429" y="22"/>
      <point x="480" y="141" type="curve"/>
    </contour>
    <contour>
      <point x="434" y="199" type="line"/>
      <point x="438" y="108" type="line"/>
      <point x="474" y="38"/>
      <point x="541" y="-6"/>
      <point x="626" y="-6" type="curve" smooth="yes"/>
      <point x="711" y="-6"/>
      <point x="773" y="35"/>
      <point x="805" y="107" type="curve"/>
      <point x="841" y="200" type="line"/>
      <point x="841" y="554" type="line"/>
      <point x="756" y="554" type="line"/>
      <point x="756" y="193" type="line" smooth="yes"/>
      <point x="756" y="103"/>
      <point x="713" y="54"/>
      <point x="636" y="54" type="curve" smooth="yes"/>
      <point x="554" y="54"/>
      <point x="519" y="109"/>
      <point x="519" y="191" type="curve" smooth="yes"/>
      <point x="519" y="554" type="line"/>
      <point x="434" y="554" type="line"/>
    </contour>
    <contour>
      <point x="766" y="193" type="line"/>
      <point x="770" y="146" type="line"/>
      <point x="795" y="57"/>
      <point x="862" y="-6"/>
      <point x="970" y="-6" type="curve" smooth="yes"/>
      <point x="1118" y="-6"/>
      <point x="1204" y="114"/>
      <point x="1204" y="303" type="curve" smooth="yes"/>
      <point x="1204" y="595"/>
      <point x="1045" y="787"/>
      <point x="691" y="787" type="curve" smooth="yes"/>
      <point x="545" y="787"/>
      <point x="386" y="759"/>
      <point x="386" y="701" type="curve" smooth="yes"/>
      <point x="386" y="694"/>
      <point x="386" y="689"/>
      <point x="388" y="684" type="curve"/>
      <point x="479" y="715"/>
      <point x="569" y="729"/>
      <point x="690" y="729" type="curve" smooth="yes"/>
      <point x="1021" y="729"/>
      <point x="1145" y="556"/>
      <point x="1145" y="300" type="curve" smooth="yes"/>
      <point x="1145" y="157"/>
      <point x="1090" y="54"/>
      <point x="976" y="54" type="curve" smooth="yes"/>
      <point x="901" y="54"/>
      <point x="851" y="111"/>
      <point x="851" y="200" type="curve" smooth="yes"/>
      <point x="851" y="554" type="line"/>
      <point x="766" y="554" type="line"/>
    </contour>
  </outline>
</glyph>
<glyph name="uni0D59" format="2">
  <advance width="1012"/>
  <unicode hex="0D59"/>
  <outline>
    <contour>
      <point x="200" y="-6" type="curve" smooth="yes"/>
      <point x="216" y="-6"/>
      <point x="231" y="0"/>
      <point x="238" y="11" type="curve"/>
      <point x="159" y="61"/>
      <point x="101" y="145"/>
      <point x="101" y="254" type="curve" smooth="yes"/>
      <point x="101" y="402"/>
      <point x="194" y="498"/>
      <point x="328" y="498" type="curve" smooth="yes"/>
      <point x="475" y="498"/>
      <point x="546" y="364"/>
      <point x="546" y="232" type="curve" smooth="yes"/>
      <point x="546" y="99"/>
      <point x="490" y="54"/>
      <point x="414" y="54" type="curve" smooth="yes"/>
      <point x="359" y="54"/>
      <point x="318" y="91"/>
      <point x="318" y="152" type="curve" smooth="yes"/>
      <point x="318" y="219"/>
      <point x="374" y="273"/>
      <point x="504" y="273" type="curve" smooth="yes"/>
      <point x="788" y="273" type="line" smooth="yes"/>
      <point x="924" y="273"/>
      <point x="992" y="335"/>
      <point x="992" y="426" type="curve" smooth="yes"/>
      <point x="992" y="505"/>
      <point x="933" y="560"/>
      <point x="838" y="560" type="curve" smooth="yes"/>
      <point x="750" y="560"/>
      <point x="690" y="508"/>
      <point x="690" y="425" type="curve" smooth="yes"/>
      <point x="690" y="380"/>
      <point x="708" y="337"/>
      <point x="733" y="303" type="curve"/>
      <point x="800" y="303" type="line"/>
      <point x="768" y="337"/>
      <point x="748" y="377"/>
      <point x="748" y="418" type="curve" smooth="yes"/>
      <point x="748" y="466"/>
      <point x="776" y="501"/>
      <point x="827" y="501" type="curve" smooth="yes"/>
      <point x="869" y="501"/>
      <point x="900" y="475"/>
      <point x="900" y="418" type="curve" smooth="yes"/>
      <point x="900" y="363"/>
      <point x="861" y="324"/>
      <point x="795" y="324" type="curve" smooth="yes"/>
      <point x="506" y="324" type="line" smooth="yes"/>
      <point x="349" y="324"/>
      <point x="260" y="256"/>
      <point x="260" y="150" type="curve" smooth="yes"/>
      <point x="260" y="35"/>
      <point x="342" y="-6"/>
      <point x="419" y="-6" type="curve" smooth="yes"/>
      <point x="555" y="-6"/>
      <point x="640" y="80"/>
      <point x="640" y="238" type="curve" smooth="yes"/>
      <point x="640" y="420"/>
      <point x="526" y="560"/>
      <point x="336" y="560" type="curve" smooth="yes"/>
      <point x="181" y="560"/>
      <point x="42" y="450"/>
      <point x="42" y="256" type="curve" smooth="yes"/>
      <point x="42" y="104"/>
      <point x="137" y="-6"/>
    </contour>
  </outline>
</glyph>
<glyph name="uni0D5A" format="2">
  <advance width="1046"/>
  <unicode hex="0D5A"/>
  <outline>
    <contour>
      <point x="274" y="560" type="curve" smooth="yes"/>
      <point x="128" y="560"/>
      <point x="42" y="428"/>
      <point x="42" y="279" type="curve" smooth="yes"/>
      <point x="42" y="105"/>
      <point x="142" y="-6"/>
      <point x="202" y="-6" type="curve" smooth="yes"/>
      <point x="216" y="-6"/>
      <point x="230" y="0"/>
      <point x="239" y="11" type="curve"/>
      <point x="159" y="71"/>
      <point x="101" y="145"/>
      <point x="101" y="283" type="curve" smooth="yes"/>
      <point x="101" y="394"/>
      <point x="156" y="500"/>
      <point x="265" y="500" type="curve" smooth="yes"/>
      <point x="340" y="500"/>
      <point x="390" y="443"/>
      <point x="390" y="354" type="curve" smooth="yes"/>
      <point x="390" y="225" type="line"/>
      <point x="475" y="225" type="line"/>
      <point x="475" y="355" type="line"/>
      <point x="471" y="408" type="line"/>
      <point x="446" y="497"/>
      <point x="379" y="560"/>
    </contour>
    <contour>
      <point x="483" y="0" type="line"/>
      <point x="982" y="0" type="line"/>
      <point x="982" y="303" type="line" smooth="yes"/>
      <point x="982" y="469"/>
      <point x="862" y="560"/>
      <point x="707" y="560" type="curve" smooth="yes"/>
      <point x="556" y="560"/>
      <point x="424" y="480"/>
      <point x="424" y="296" type="curve" smooth="yes"/>
      <point x="424" y="225" type="line"/>
      <point x="483" y="225" type="line"/>
      <point x="483" y="291" type="line" smooth="yes"/>
      <point x="483" y="418"/>
      <point x="536" y="457"/>
      <point x="600" y="457" type="curve" smooth="yes"/>
      <point x="675" y="457"/>
      <point x="704" y="403"/>
      <point x="704" y="340" type="curve" smooth="yes"/>
      <point x="704" y="229"/>
      <point x="609" y="127"/>
      <point x="483" y="54" type="curve"/>
      <point x="516" y="25" type="line"/>
      <point x="721" y="110"/>
      <point x="803" y="224"/>
      <point x="803" y="331" type="curve" smooth="yes"/>
      <point x="803" y="429"/>
      <point x="735" y="494"/>
      <point x="626" y="494" type="curve" smooth="yes"/>
      <point x="589" y="494"/>
      <point x="553" y="482"/>
      <point x="522" y="466" type="curve"/>
      <point x="533" y="461" type="line"/>
      <point x="563" y="486"/>
      <point x="612" y="505"/>
      <point x="689" y="505" type="curve" smooth="yes"/>
      <point x="817" y="505"/>
      <point x="896" y="443"/>
      <point x="896" y="298" type="curve" smooth="yes"/>
      <point x="896" y="54" type="line"/>
      <point x="483" y="54" type="line"/>
    </contour>
  </outline>
</glyph>
<glyph name="uni0D5B" format="2">
  <advance width="938"/>
  <unicode hex="0D5B"/>
  <outline>
    <contour>
      <point x="739" y="560" type="curve" smooth="yes"/>
      <point x="725" y="560"/>
      <point x="710" y="554"/>
      <point x="703" y="543" type="curve"/>
      <point x="779" y="492"/>
      <point x="837" y="408"/>
      <point x="837" y="291" type="curve" smooth="yes"/>
      <point x="837" y="133"/>
      <point x="738" y="58"/>
      <point x="634" y="58" type="curve" smooth="yes"/>
      <point x="500" y="58"/>
      <point x="437" y="156"/>
      <point x="437" y="285" type="curve" smooth="yes"/>
      <point x="437" y="385"/>
      <point x="474" y="470"/>
      <point x="551" y="528" type="curve"/>
      <point x="538" y="554" type="line"/>
      <point x="72" y="554" type="line"/>
      <point x="72" y="0" type="line"/>
      <point x="167" y="0" type="line"/>
      <point x="167" y="500" type="line"/>
      <point x="495" y="500" type="line"/>
      <point x="463" y="531" type="line"/>
      <point x="371" y="464"/>
      <point x="339" y="373"/>
      <point x="339" y="268" type="curve" smooth="yes"/>
      <point x="339" y="126"/>
      <point x="441" y="-6"/>
      <point x="620" y="-6" type="curve" smooth="yes"/>
      <point x="763" y="-6"/>
      <point x="896" y="100"/>
      <point x="896" y="293" type="curve" smooth="yes"/>
      <point x="896" y="448"/>
      <point x="802" y="560"/>
    </contour>
  </outline>
</glyph>
<glyph name="uni0D5C" format="2">
  <advance width="1457"/>
  <unicode hex="0D5C"/>
  <outline>
    <contour>
      <point x="574" y="-6" type="curve" smooth="yes"/>
      <point x="694" y="-6"/>
      <point x="776" y="76"/>
      <point x="776" y="217" type="curve" smooth="yes"/>
      <point x="776" y="351" type="line" smooth="yes"/>
      <point x="776" y="453"/>
      <point x="813" y="506"/>
      <point x="882" y="506" type="curve" smooth="yes"/>
      <point x="952" y="506"/>
      <point x="984" y="453"/>
      <point x="984" y="351" type="curve" smooth="yes"/>
      <point x="984" y="240" type="line" smooth="yes"/>
      <point x="984" y="80"/>
      <point x="1057" y="-6"/>
      <point x="1201" y="-6" type="curve" smooth="yes"/>
      <point x="1332" y="-6"/>
      <point x="1415" y="95"/>
      <point x="1415" y="276" type="curve" smooth="yes"/>
      <point x="1415" y="448"/>
      <point x="1315" y="560"/>
      <point x="1255" y="560" type="curve" smooth="yes"/>
      <point x="1241" y="560"/>
      <point x="1228" y="555"/>
      <point x="1218" y="543" type="curve"/>
      <point x="1297" y="484"/>
      <point x="1356" y="409"/>
      <point x="1356" y="271" type="curve" smooth="yes"/>
      <point x="1356" y="138"/>
      <point x="1309" y="55"/>
      <point x="1209" y="55" type="curve" smooth="yes"/>
      <point x="1131" y="55"/>
      <point x="1083" y="94"/>
      <point x="1083" y="225" type="curve" smooth="yes"/>
      <point x="1083" y="340" type="line" smooth="yes"/>
      <point x="1083" y="494"/>
      <point x="999" y="560"/>
      <point x="883" y="560" type="curve" smooth="yes"/>
      <point x="765" y="560"/>
      <point x="681" y="482"/>
      <point x="681" y="340" type="curve" smooth="yes"/>
      <point x="681" y="203" type="line" smooth="yes"/>
      <point x="681" y="101"/>
      <point x="644" y="48"/>
      <point x="575" y="48" type="curve" smooth="yes"/>
      <point x="505" y="48"/>
      <point x="473" y="101"/>
      <point x="473" y="203" type="curve" smooth="yes"/>
      <point x="473" y="314" type="line" smooth="yes"/>
      <point x="473" y="474"/>
      <point x="400" y="560"/>
      <point x="258" y="560" type="curve" smooth="yes"/>
      <point x="126" y="560"/>
      <point x="42" y="459"/>
      <point x="42" y="278" type="curve" smooth="yes"/>
      <point x="42" y="106"/>
      <point x="142" y="-6"/>
      <point x="202" y="-6" type="curve" smooth="yes"/>
      <point x="217" y="-6"/>
      <point x="229" y="0"/>
      <point x="239" y="11" type="curve"/>
      <point x="160" y="70"/>
      <point x="101" y="145"/>
      <point x="101" y="283" type="curve" smooth="yes"/>
      <point x="101" y="416"/>
      <point x="148" y="499"/>
      <point x="248" y="499" type="curve" smooth="yes"/>
      <point x="327" y="499"/>
      <point x="374" y="460"/>
      <point x="374" y="329" type="curve" smooth="yes"/>
      <point x="374" y="217" type="line" smooth="yes"/>
      <point x="374" y="60"/>
      <point x="456" y="-6"/>
    </contour>
  </outline>
</glyph>
<glyph name="uni0D5D" format="2">
  <advance width="2038"/>
  <unicode hex="0D5D"/>
  <outline>
    <contour>
      <point x="1054" y="340" type="line" smooth="yes"/>
      <point x="1054" y="494"/>
      <point x="970" y="560"/>
      <point x="854" y="560" type="curve" smooth="yes"/>
      <point x="736" y="560"/>
      <point x="652" y="480"/>
      <point x="652" y="340" type="curve" smooth="yes"/>
      <point x="652" y="203" type="line" smooth="yes"/>
      <point x="652" y="93"/>
      <point x="611" y="48"/>
      <point x="539" y="48" type="curve" smooth="yes"/>
      <point x="466" y="48"/>
      <point x="428" y="101"/>
      <point x="428" y="192" type="curve" smooth="yes"/>
      <point x="428" y="554" type="line"/>
      <point x="333" y="554" type="line"/>
      <point x="333" y="198" type="line" smooth="yes"/>
      <point x="333" y="118"/>
      <point x="289" y="54"/>
      <point x="204" y="54" type="curve" smooth="yes"/>
      <point x="121" y="54"/>
      <point x="85" y="110"/>
      <point x="63" y="178" type="curve"/>
      <point x="40" y="171"/>
      <point x="23" y="151"/>
      <point x="23" y="115" type="curve" smooth="yes"/>
      <point x="23" y="54"/>
      <point x="82" y="-6"/>
      <point x="185" y="-6" type="curve" smooth="yes"/>
      <point x="268" y="-6"/>
      <point x="348" y="28"/>
      <point x="389" y="141" type="curve"/>
      <point x="349" y="139" type="line"/>
      <point x="386" y="19"/>
      <point x="468" y="-6"/>
      <point x="539" y="-6" type="curve" smooth="yes"/>
      <point x="657" y="-6"/>
      <point x="747" y="55"/>
      <point x="747" y="230" type="curve" smooth="yes"/>
      <point x="747" y="351" type="line" smooth="yes"/>
      <point x="747" y="455"/>
      <point x="783" y="506"/>
      <point x="853" y="506" type="curve" smooth="yes"/>
      <point x="926" y="506"/>
      <point x="955" y="454"/>
      <point x="955" y="351" type="curve" smooth="yes"/>
      <point x="955" y="217" type="line" smooth="yes"/>
      <point x="955" y="60"/>
      <point x="1037" y="-6"/>
      <point x="1155" y="-6" type="curve" smooth="yes"/>
      <point x="1275" y="-6"/>
      <point x="1357" y="76"/>
      <point x="1357" y="217" type="curve" smooth="yes"/>
      <point x="1357" y="351" type="line" smooth="yes"/>
      <point x="1357" y="453"/>
      <point x="1394" y="506"/>
      <point x="1463" y="506" type="curve" smooth="yes"/>
      <point x="1533" y="506"/>
      <point x="1565" y="453"/>
      <point x="1565" y="351" type="curve" smooth="yes"/>
      <point x="1565" y="240" type="line" smooth="yes"/>
      <point x="1565" y="80"/>
      <point x="1638" y="-6"/>
      <point x="1782" y="-6" type="curve" smooth="yes"/>
      <point x="1913" y="-6"/>
      <point x="1996" y="95"/>
      <point x="1996" y="276" type="curve" smooth="yes"/>
      <point x="1996" y="448"/>
      <point x="1896" y="560"/>
      <point x="1836" y="560" type="curve" smooth="yes"/>
      <point x="1822" y="560"/>
      <point x="1809" y="555"/>
      <point x="1799" y="543" type="curve"/>
      <point x="1878" y="484"/>
      <point x="1937" y="409"/>
      <point x="1937" y="271" type="curve" smooth="yes"/>
      <point x="1937" y="138"/>
      <point x="1890" y="55"/>
      <point x="1790" y="55" type="curve" smooth="yes"/>
      <point x="1712" y="55"/>
      <point x="1664" y="94"/>
      <point x="1664" y="225" type="curve" smooth="yes"/>
      <point x="1664" y="340" type="line" smooth="yes"/>
      <point x="1664" y="494"/>
      <point x="1580" y="560"/>
      <point x="1464" y="560" type="curve" smooth="yes"/>
      <point x="1346" y="560"/>
      <point x="1262" y="482"/>
      <point x="1262" y="340" type="curve" smooth="yes"/>
      <point x="1262" y="203" type="line" smooth="yes"/>
      <point x="1262" y="101"/>
      <point x="1225" y="48"/>
      <point x="1156" y="48" type="curve" smooth="yes"/>
      <point x="1086" y="48"/>
      <point x="1054" y="101"/>
      <point x="1054" y="203" type="curve" smooth="yes"/>
    </contour>
  </outline>
</glyph>
<glyph name="uni0D5E" format="2">
  <advance width="1293"/>
  <unicode hex="0D5E"/>
  <outline>
    <contour>
      <point x="200" y="-6" type="curve" smooth="yes"/>
      <point x="216" y="-6"/>
      <point x="231" y="0"/>
      <point x="238" y="11" type="curve"/>
      <point x="159" y="61"/>
      <point x="101" y="145"/>
      <point x="101" y="254" type="curve" smooth="yes"/>
      <point x="101" y="402"/>
      <point x="194" y="498"/>
      <point x="328" y="498" type="curve" smooth="yes"/>
      <point x="475" y="498"/>
      <point x="546" y="364"/>
      <point x="546" y="232" type="curve" smooth="yes"/>
      <point x="546" y="99"/>
      <point x="490" y="54"/>
      <point x="414" y="54" type="curve" smooth="yes"/>
      <point x="359" y="54"/>
      <point x="318" y="91"/>
      <point x="318" y="152" type="curve" smooth="yes"/>
      <point x="318" y="219"/>
      <point x="374" y="273"/>
      <point x="504" y="273" type="curve" smooth="yes"/>
      <point x="558" y="273" type="line"/>
      <point x="558" y="324" type="line"/>
      <point x="506" y="324" type="line" smooth="yes"/>
      <point x="349" y="324"/>
      <point x="260" y="256"/>
      <point x="260" y="150" type="curve" smooth="yes"/>
      <point x="260" y="35"/>
      <point x="342" y="-6"/>
      <point x="419" y="-6" type="curve" smooth="yes"/>
      <point x="555" y="-6"/>
      <point x="640" y="80"/>
      <point x="640" y="238" type="curve" smooth="yes"/>
      <point x="640" y="420"/>
      <point x="526" y="560"/>
      <point x="336" y="560" type="curve" smooth="yes"/>
      <point x="181" y="560"/>
      <point x="42" y="450"/>
      <point x="42" y="256" type="curve" smooth="yes"/>
      <point x="42" y="104"/>
      <point x="137" y="-6"/>
    </contour>
    <contour>
      <point x="571" y="324" type="line"/>
      <point x="572" y="273" type="line"/>
      <point x="598" y="273" type="line" smooth="yes"/>
      <point x="716" y="273"/>
      <point x="792" y="327"/>
      <point x="792" y="418" type="curve" smooth="yes"/>
      <point x="792" y="466"/>
      <point x="770" y="499"/>
      <point x="730" y="522" type="curve"/>
      <point x="732" y="500" type="line"/>
      <point x="850" y="500" type="line"/>
      <point x="855" y="554" type="line"/>
      <point x="671" y="554" type="line"/>
      <point x="661" y="532" type="line"/>
      <point x="702" y="499"/>
      <point x="727" y="476"/>
      <point x="727" y="420" type="curve" smooth="yes"/>
      <point x="727" y="358"/>
      <point x="684" y="324"/>
      <point x="584" y="324" type="curve" smooth="yes"/>
    </contour>
    <contour>
      <point x="1152" y="560" type="curve" smooth="yes"/>
      <point x="1135" y="560"/>
      <point x="1128" y="554"/>
      <point x="1120" y="540" type="curve"/>
      <point x="1163" y="512"/>
      <point x="1209" y="463"/>
      <point x="1209" y="387" type="curve" smooth="yes"/>
      <point x="1209" y="315"/>
      <point x="1163" y="255"/>
      <point x="1084" y="255" type="curve" smooth="yes"/>
      <point x="1013" y="255"/>
      <point x="967" y="309"/>
      <point x="967" y="377" type="curve" smooth="yes"/>
      <point x="967" y="464"/>
      <point x="1017" y="513"/>
      <point x="1045" y="537" type="curve"/>
      <point x="1035" y="554" type="line"/>
      <point x="846" y="554" type="line"/>
      <point x="846" y="500" type="line"/>
      <point x="933" y="500" type="line"/>
      <point x="894" y="466"/>
      <point x="876" y="417"/>
      <point x="876" y="372" type="curve" smooth="yes"/>
      <point x="876" y="262"/>
      <point x="966" y="195"/>
      <point x="1072" y="195" type="curve" smooth="yes"/>
      <point x="1182" y="195"/>
      <point x="1266" y="271"/>
      <point x="1266" y="387" type="curve" smooth="yes"/>
      <point x="1266" y="486"/>
      <point x="1202" y="560"/>
    </contour>
  </outline>
</glyph>
<glyph name="uni0D5F" format="2">
  <advance width="1187"/>
  <unicode hex="0D5F"/>
  <outline>
    <contour>
      <point x="133" y="181" type="curve" smooth="yes"/>
      <point x="200" y="181"/>
      <point x="244" y="221"/>
      <point x="244" y="287" type="curve" smooth="yes"/>
      <point x="244" y="352"/>
      <point x="200" y="393"/>
      <point x="136" y="393" type="curve" smooth="yes"/>
      <point x="75" y="393"/>
      <point x="30" y="354"/>
      <point x="30" y="287" type="curve" smooth="yes"/>
      <point x="30" y="217"/>
      <point x="75" y="181"/>
    </contour>
    <contour>
      <point x="123" y="228" type="curve" smooth="yes"/>
      <point x="94" y="228"/>
      <point x="72" y="249"/>
      <point x="72" y="287" type="curve" smooth="yes"/>
      <point x="72" y="325"/>
      <point x="94" y="346"/>
      <point x="123" y="346" type="curve" smooth="yes"/>
      <point x="148" y="346"/>
      <point x="172" y="327"/>
      <point x="172" y="287" type="curve" smooth="yes"/>
      <point x="172" y="247"/>
      <point x="148" y="228"/>
    </contour>
    <contour>
      <point x="1046" y="181" type="curve" smooth="yes"/>
      <point x="1113" y="181"/>
      <point x="1157" y="221"/>
      <point x="1157" y="287" type="curve" smooth="yes"/>
      <point x="1157" y="352"/>
      <point x="1113" y="393"/>
      <point x="1049" y="393" type="curve" smooth="yes"/>
      <point x="988" y="393"/>
      <point x="943" y="354"/>
      <point x="943" y="287" type="curve" smooth="yes"/>
      <point x="943" y="217"/>
      <point x="988" y="181"/>
    </contour>
    <contour>
      <point x="1036" y="228" type="curve" smooth="yes"/>
      <point x="1007" y="228"/>
      <point x="985" y="249"/>
      <point x="985" y="287" type="curve" smooth="yes"/>
      <point x="985" y="325"/>
      <point x="1007" y="346"/>
      <point x="1036" y="346" type="curve" smooth="yes"/>
      <point x="1061" y="346"/>
      <point x="1085" y="327"/>
      <point x="1085" y="287" type="curve" smooth="yes"/>
      <point x="1085" y="247"/>
      <point x="1061" y="228"/>
    </contour>
    <component base="ramlym" xOffset="252"/>
  </outline>
</glyph>
